SplineFontDB: 3.2
FontName: FdSymbolB-Bold
FullName: FdSymbolB-Bold
FamilyName: FdSymbolB
Weight: Bold
Copyright: Copyright (c) 2012, Michael Ummels. This Font Software is licensed under the SIL Open Font License, Version 1.1.
Version: 1.008
ItalicAngle: 0
UnderlinePosition: -100
UnderlineWidth: 50
Ascent: 800
Descent: 200
InvalidEm: 0
LayerCount: 2
Layer: 0 0 "Back" 1
Layer: 1 0 "Fore" 0
OS2Version: 0
OS2_WeightWidthSlopeOnly: 0
OS2_UseTypoMetrics: 0
CreationTime: 1739777132
ModificationTime: 1739777132
OS2TypoAscent: 0
OS2TypoAOffset: 1
OS2TypoDescent: 0
OS2TypoDOffset: 1
OS2TypoLinegap: 0
OS2WinAscent: 0
OS2WinAOffset: 1
OS2WinDescent: 0
OS2WinDOffset: 1
HheadAscent: 0
HheadAOffset: 1
HheadDescent: 0
HheadDOffset: 1
OS2Vendor: 'PfEd'
DEI: 91125
Encoding: Custom
UnicodeInterp: none
NameList: AGL For New Fonts
DisplaySize: -48
AntiAlias: 1
FitToEm: 0
BeginPrivate: 2
BlueValues 31 [-10 0 546 556 707 717 754 764]
OtherBlues 11 [-230 -220]
EndPrivate
BeginChars: 256 236

StartChar: equal
Encoding: 0 61 0
Width: 660
Flags: HW
HStem: 150 100<90 570> 350 100<90 570>
LayerCount: 2
Fore
SplineSet
90 350 m 1
 90 450 l 1
 570 450 l 1
 570 350 l 1
 90 350 l 1
90 150 m 1
 90 250 l 1
 570 250 l 1
 570 150 l 1
 90 150 l 1
EndSplineSet
EndChar

StartChar: uni2261
Encoding: 1 8801 1
Width: 660
Flags: HW
HStem: 51 100<90 570> 250 100<90 570> 449 100<90 570>
CounterMasks: 1 e0
LayerCount: 2
Fore
SplineSet
90 449 m 1
 90 549 l 1
 570 549 l 1
 570 449 l 1
 90 449 l 1
90 250 m 1
 90 350 l 1
 570 350 l 1
 570 250 l 1
 90 250 l 1
90 51 m 1
 90 151 l 1
 570 151 l 1
 570 51 l 1
 90 51 l 1
EndSplineSet
EndChar

StartChar: similar
Encoding: 2 8764 2
Width: 660
Flags: HW
HStem: 200 100<384.164 476.517> 300 100<183.483 275.836>
LayerCount: 2
Fore
SplineSet
433 200 m 0x80
 330 200 283 300 227 300 c 0
 193 300 173 266 150 242 c 1
 90 300 l 1
 131 343 167 400 227 400 c 0x40
 330 400 377 300 433 300 c 0x80
 467 300 487 334 510 358 c 1
 570 300 l 1x40
 529 257 493 200 433 200 c 0x80
EndSplineSet
EndChar

StartChar: uni223D
Encoding: 3 8765 3
Width: 660
Flags: HW
HStem: 200 100<183.483 275.836> 300 100<384.164 476.517>
LayerCount: 2
Fore
SplineSet
227 300 m 0x80
 283 300 330 400 433 400 c 0
 493 400 529 343 570 300 c 1
 510 242 l 1
 487 266 467 300 433 300 c 0x40
 377 300 330 200 227 200 c 0x80
 167 200 131 257 90 300 c 1x40
 150 358 l 1
 173 334 193 300 227 300 c 0x80
EndSplineSet
EndChar

StartChar: approxequal
Encoding: 4 8776 4
Width: 660
Flags: HW
HStem: 101 100<383.881 477.079> 200 100<182.921 276.119> 300 100<383.881 477.079> 399 100<182.921 276.119>
LayerCount: 2
Fore
SplineSet
433 300 m 0x20
 331 300 285 399 227 399 c 0x10
 193 399 173 366 150 342 c 1
 90 400 l 1x20
 131 442 167 499 227 499 c 0x10
 329 499 375 400 433 400 c 0
 467 400 487 433 510 457 c 1
 570 400 l 1
 529 357 493 300 433 300 c 0x20
433 101 m 0x80
 331 101 285 200 227 200 c 0
 193 200 173 167 150 143 c 1
 90 200 l 1
 131 243 167 300 227 300 c 0x40
 329 300 375 201 433 201 c 0x80
 467 201 487 234 510 258 c 1
 570 200 l 1x40
 529 158 493 101 433 101 c 0x80
EndSplineSet
EndChar

StartChar: uni224B
Encoding: 5 8779 5
Width: 660
Flags: HW
HStem: 1 100<384.164 476.517> 101 100<183.483 275.836> 200 100<384.164 476.517> 300 100<183.483 275.836> 399 100<384.164 476.517> 499 100<183.483 275.836> 537 20G<498.5 530.69>
LayerCount: 2
Fore
SplineSet
433 399 m 0x08
 330 399 283 499 227 499 c 0
 193 499 173 465 150 441 c 1
 90 499 l 1
 131 542 167 599 227 599 c 0x04
 330 599 377 499 433 499 c 0
 467 499 487 533 510 557 c 1x0a
 570 499 l 1x04
 529 456 493 399 433 399 c 0x08
433 200 m 0x20
 330 200 283 300 227 300 c 0
 193 300 173 266 150 242 c 1
 90 300 l 1
 131 343 167 400 227 400 c 0x10
 330 400 377 300 433 300 c 0x20
 467 300 487 334 510 358 c 1
 570 300 l 1x10
 529 257 493 200 433 200 c 0x20
433 1 m 0x80
 330 1 283 101 227 101 c 0
 193 101 173 67 150 43 c 1
 90 101 l 1
 131 144 167 201 227 201 c 0x40
 330 201 377 101 433 101 c 0x80
 467 101 487 135 510 159 c 1
 570 101 l 1x40
 529 58 493 1 433 1 c 0x80
EndSplineSet
EndChar

StartChar: uni2243
Encoding: 6 8771 6
Width: 660
Flags: HW
HStem: 150 100<90 570> 300 100<383.881 477.079> 399 100<182.921 276.119>
LayerCount: 2
Fore
SplineSet
433 300 m 0xc0
 331 300 285 399 227 399 c 0xa0
 193 399 173 366 150 342 c 1
 90 400 l 1xc0
 131 442 167 499 227 499 c 0xa0
 329 499 375 400 433 400 c 0
 467 400 487 433 510 457 c 1
 570 400 l 1
 529 357 493 300 433 300 c 0xc0
90 150 m 1
 90 250 l 1
 570 250 l 1
 570 150 l 1
 90 150 l 1
EndSplineSet
EndChar

StartChar: uni22CD
Encoding: 7 8909 7
Width: 660
Flags: HW
HStem: 150 100<90 570> 300 100<182.921 276.119> 399 100<383.881 477.079>
LayerCount: 2
Fore
SplineSet
227 400 m 0xc0
 285 400 331 499 433 499 c 0xa0
 493 499 529 442 570 400 c 1xc0
 510 342 l 1
 487 366 467 399 433 399 c 0xa0
 375 399 329 300 227 300 c 0
 167 300 131 357 90 400 c 1
 150 457 l 1
 173 433 193 400 227 400 c 0xc0
570 250 m 1
 570 150 l 1
 90 150 l 1
 90 250 l 1
 570 250 l 1
EndSplineSet
EndChar

StartChar: uni2242
Encoding: 8 8770 8
Width: 660
Flags: HW
HStem: 101 100<383.881 477.079> 200 100<182.921 276.119> 350 100<90 570>
LayerCount: 2
Fore
SplineSet
90 350 m 1x20
 90 450 l 1
 570 450 l 1
 570 350 l 1
 90 350 l 1x20
433 101 m 0xa0
 331 101 285 200 227 200 c 0
 193 200 173 167 150 143 c 1
 90 200 l 1
 131 243 167 300 227 300 c 0x60
 329 300 375 201 433 201 c 0xa0
 467 201 487 234 510 258 c 1
 570 200 l 1x60
 529 158 493 101 433 101 c 0xa0
EndSplineSet
EndChar

StartChar: congruent
Encoding: 9 8773 9
Width: 660
Flags: HW
HStem: 51 100<90 570> 250 100<90 570> 399 100<384.164 476.517> 499 100<183.483 275.836> 537 20G<498.5 530.69>
LayerCount: 2
Fore
SplineSet
433 399 m 0xe0
 330 399 283 499 227 499 c 0
 193 499 173 465 150 441 c 1
 90 499 l 1
 131 542 167 599 227 599 c 0xd0
 330 599 377 499 433 499 c 0
 467 499 487 533 510 557 c 1xe8
 570 499 l 1xd0
 529 456 493 399 433 399 c 0xe0
90 250 m 1
 90 350 l 1
 570 350 l 1
 570 250 l 1
 90 250 l 1
90 51 m 1
 90 151 l 1
 570 151 l 1
 570 51 l 1
 90 51 l 1
EndSplineSet
EndChar

StartChar: uni224C
Encoding: 10 8780 10
Width: 660
Flags: HW
HStem: 51 100<90 570> 250 100<90 570> 399 100<183.483 275.836> 499 100<384.164 476.517> 537 20G<129.31 161.5>
LayerCount: 2
Fore
SplineSet
227 499 m 0xe8
 283 499 330 599 433 599 c 0
 493 599 529 542 570 499 c 1
 510 441 l 1
 487 465 467 499 433 499 c 0xd0
 377 499 330 399 227 399 c 0xe0
 167 399 131 456 90 499 c 1xd0
 150 557 l 1
 173 533 193 499 227 499 c 0xe8
570 350 m 1
 570 250 l 1
 90 250 l 1
 90 350 l 1
 570 350 l 1
570 151 m 1
 570 51 l 1
 90 51 l 1
 90 151 l 1
 570 151 l 1
EndSplineSet
EndChar

StartChar: uni224A
Encoding: 11 8778 11
Width: 660
Flags: HW
HStem: 51 100<90 570> 200 100<384.164 476.517> 300 100<183.483 275.836> 399 100<384.164 476.517> 499 100<183.483 275.836> 537 20G<498.5 530.69>
LayerCount: 2
Fore
SplineSet
433 399 m 0x90
 330 399 283 499 227 499 c 0
 193 499 173 465 150 441 c 1
 90 499 l 1
 131 542 167 599 227 599 c 0x88
 330 599 377 499 433 499 c 0
 467 499 487 533 510 557 c 1x94
 570 499 l 1x88
 529 456 493 399 433 399 c 0x90
433 200 m 0xc0
 330 200 283 300 227 300 c 0
 193 300 173 266 150 242 c 1
 90 300 l 1
 131 343 167 400 227 400 c 0xa0
 330 400 377 300 433 300 c 0xc0
 467 300 487 334 510 358 c 1
 570 300 l 1xa0
 529 257 493 200 433 200 c 0xc0
90 51 m 1
 90 151 l 1
 570 151 l 1
 570 51 l 1
 90 51 l 1
EndSplineSet
EndChar

StartChar: uni224F
Encoding: 12 8783 12
Width: 660
Flags: HW
HStem: 150 100<90 570> 350 100<90 202.045 457.955 570> 446 100<292.14 367.86>
LayerCount: 2
Fore
SplineSet
90 450 m 1xc0
 193 450 l 1xc0
 213 506 267 546 330 546 c 0xa0
 393 546 447 506 467 450 c 1
 570 450 l 1
 570 350 l 1
 376 350 l 1xc0
 376 400 l 2
 376 425 355 446 330 446 c 0xa0
 305 446 284 425 284 400 c 2
 284 350 l 1
 90 350 l 1
 90 450 l 1xc0
90 150 m 1
 90 250 l 1
 570 250 l 1
 570 150 l 1
 90 150 l 1
EndSplineSet
EndChar

StartChar: uni2AAE
Encoding: 13 10926 13
Width: 660
Flags: HW
HStem: 51 100<90 570> 250 100<90 570> 449 100<90 202.045 457.955 570> 545 100<292.14 367.86>
LayerCount: 2
Fore
SplineSet
90 549 m 1xe0
 193 549 l 1xe0
 213 605 267 645 330 645 c 0xd0
 393 645 447 605 467 549 c 1
 570 549 l 1
 570 449 l 1
 376 449 l 1xe0
 376 499 l 2
 376 524 355 545 330 545 c 0xd0
 305 545 284 524 284 499 c 2
 284 449 l 1
 90 449 l 1
 90 549 l 1xe0
90 250 m 1
 90 350 l 1
 570 350 l 1
 570 250 l 1
 90 250 l 1
90 51 m 1
 90 151 l 1
 570 151 l 1
 570 51 l 1
 90 51 l 1
EndSplineSet
EndChar

StartChar: uni224E
Encoding: 14 8782 14
Width: 660
Flags: HW
HStem: 54 100<292.14 367.86> 150 100<90 202.045 457.955 570> 350 100<90 202.045 457.955 570> 446 100<292.14 367.86>
VStem: 90 194<161.347 250 350 438.653> 376 194<161.347 250 350 438.653>
LayerCount: 2
Fore
SplineSet
90 450 m 1x2c
 193 450 l 1x2c
 213 506 267 546 330 546 c 0x1c
 393 546 447 506 467 450 c 1
 570 450 l 1
 570 350 l 1
 376 350 l 1x2c
 376 400 l 2
 376 425 355 446 330 446 c 0x1c
 305 446 284 425 284 400 c 2
 284 350 l 1
 90 350 l 1
 90 450 l 1x2c
90 150 m 1x4c
 90 250 l 1
 284 250 l 1x4c
 284 200 l 2
 284 175 305 154 330 154 c 0x8c
 355 154 376 175 376 200 c 2
 376 250 l 1
 570 250 l 1
 570 150 l 1
 467 150 l 1x4c
 447 94 393 54 330 54 c 0x8c
 267 54 213 94 193 150 c 1
 90 150 l 1x4c
EndSplineSet
EndChar

StartChar: uni2250
Encoding: 15 8784 15
Width: 660
Flags: HW
HStem: 150 100<90 570> 350 100<90 570> 519 159<293.245 367.574>
VStem: 251 159<561.472 635.319>
LayerCount: 2
Fore
SplineSet
90 350 m 1
 90 450 l 1
 570 450 l 1
 570 350 l 1
 90 350 l 1
90 150 m 1
 90 250 l 1
 570 250 l 1
 570 150 l 1
 90 150 l 1
251 599 m 0
 251 621 307 678 330 678 c 0
 346 678 364 660 378 646 c 0
 392 632 410 614 410 599 c 0
 410 583 392 565 378 551 c 0
 364 537 346 519 330 519 c 0
 307 519 251 575 251 599 c 0
EndSplineSet
EndChar

StartChar: uni2A66
Encoding: 16 10854 16
Width: 660
Flags: HW
HStem: -78 159<293.245 367.574> 150 100<90 570> 350 100<90 570>
VStem: 251 159<-35.3194 38.5282>
LayerCount: 2
Fore
SplineSet
90 350 m 1
 90 450 l 1
 570 450 l 1
 570 350 l 1
 90 350 l 1
90 150 m 1
 90 250 l 1
 570 250 l 1
 570 150 l 1
 90 150 l 1
251 1 m 0
 251 25 307 81 330 81 c 0
 346 81 364 63 378 49 c 0
 392 35 410 17 410 1 c 0
 410 -14 392 -32 378 -46 c 0
 364 -60 346 -78 330 -78 c 0
 307 -78 251 -21 251 1 c 0
EndSplineSet
EndChar

StartChar: uni2251
Encoding: 17 8785 17
Width: 660
Flags: HW
HStem: -78 159<293.245 367.574> 150 100<90 570> 350 100<90 570> 519 159<293.245 367.574>
VStem: 251 159<-35.3194 38.5282 561.472 635.319>
LayerCount: 2
Fore
SplineSet
90 350 m 1
 90 450 l 1
 570 450 l 1
 570 350 l 1
 90 350 l 1
90 150 m 1
 90 250 l 1
 570 250 l 1
 570 150 l 1
 90 150 l 1
251 599 m 0
 251 621 307 678 330 678 c 0
 346 678 364 660 378 646 c 0
 392 632 410 614 410 599 c 0
 410 583 392 565 378 551 c 0
 364 537 346 519 330 519 c 0
 307 519 251 575 251 599 c 0
251 1 m 0
 251 25 307 81 330 81 c 0
 346 81 364 63 378 49 c 0
 392 35 410 17 410 1 c 0
 410 -14 392 -32 378 -46 c 0
 364 -60 346 -78 330 -78 c 0
 307 -78 251 -21 251 1 c 0
EndSplineSet
EndChar

StartChar: uni2252
Encoding: 18 8786 18
Width: 660
Flags: HW
HStem: -78 159<453.426 527.587> 150 100<90 570> 350 100<90 570> 519 159<132.426 206.587>
VStem: 90 159<561.426 635.587> 411 159<-35.5872 38.5743>
LayerCount: 2
Fore
SplineSet
90 350 m 1
 90 450 l 1
 570 450 l 1
 570 350 l 1
 90 350 l 1
90 150 m 1
 90 250 l 1
 570 250 l 1
 570 150 l 1
 90 150 l 1
249 599 m 0
 249 583 231 565 217 551 c 0
 203 537 185 519 170 519 c 0
 154 519 136 537 122 551 c 0
 108 565 90 583 90 599 c 0
 90 614 108 632 122 646 c 0
 136 660 154 678 170 678 c 0
 185 678 203 660 217 646 c 0
 231 632 249 614 249 599 c 0
570 1 m 0
 570 -14 552 -32 538 -46 c 0
 524 -60 506 -78 491 -78 c 0
 475 -78 457 -60 443 -46 c 0
 429 -32 411 -14 411 1 c 0
 411 17 429 35 443 49 c 0
 457 63 475 81 491 81 c 0
 506 81 524 63 538 49 c 0
 552 35 570 17 570 1 c 0
EndSplineSet
EndChar

StartChar: uni2253
Encoding: 19 8787 19
Width: 660
Flags: HW
HStem: -78 159<132.426 206.587> 150 100<90 570> 350 100<90 570> 519 159<453.426 527.587>
VStem: 90 159<-35.5872 38.5743> 411 159<561.426 635.587>
LayerCount: 2
Fore
SplineSet
570 450 m 1
 570 350 l 1
 90 350 l 1
 90 450 l 1
 570 450 l 1
570 250 m 1
 570 150 l 1
 90 150 l 1
 90 250 l 1
 570 250 l 1
570 599 m 0
 570 583 552 565 538 551 c 0
 524 537 506 519 491 519 c 0
 475 519 457 537 443 551 c 0
 429 565 411 583 411 599 c 0
 411 614 429 632 443 646 c 0
 457 660 475 678 491 678 c 0
 506 678 524 660 538 646 c 0
 552 632 570 614 570 599 c 0
249 1 m 0
 249 -14 231 -32 217 -46 c 0
 203 -60 185 -78 170 -78 c 0
 154 -78 136 -60 122 -46 c 0
 108 -32 90 -14 90 1 c 0
 90 17 108 35 122 49 c 0
 136 63 154 81 170 81 c 0
 185 81 203 63 217 49 c 0
 231 35 249 17 249 1 c 0
EndSplineSet
EndChar

StartChar: uni2254
Encoding: 20 8788 20
Width: 900
Flags: HW
HStem: 121 159<132.426 206.587> 150 100<330 810> 320 159<132.426 206.587> 350 100<330 810>
VStem: 90 159<163.413 237.574 362.426 436.587>
LayerCount: 2
Fore
SplineSet
249 400 m 0x28
 249 384 231 366 217 352 c 0
 203 338 185 320 170 320 c 0
 154 320 136 338 122 352 c 0
 108 366 90 384 90 400 c 0
 90 415 108 433 122 447 c 0
 136 461 154 479 170 479 c 0
 185 479 203 461 217 447 c 0
 231 433 249 415 249 400 c 0x28
249 200 m 0
 249 185 231 167 217 153 c 0
 203 139 185 121 170 121 c 0
 154 121 136 139 122 153 c 0
 108 167 90 185 90 200 c 0
 90 216 108 234 122 248 c 0
 136 262 154 280 170 280 c 0x88
 185 280 203 262 217 248 c 0
 231 234 249 216 249 200 c 0
330 350 m 1x18
 330 450 l 1
 810 450 l 1
 810 350 l 1
 330 350 l 1x18
330 150 m 1x48
 330 250 l 1
 810 250 l 1
 810 150 l 1
 330 150 l 1x48
EndSplineSet
EndChar

StartChar: uni2255
Encoding: 21 8789 21
Width: 900
Flags: HW
HStem: 121 159<693.245 767.574> 150 100<90 570> 320 159<693.245 767.574> 350 100<90 570>
VStem: 651 159<163.681 237.528 362.472 436.319>
LayerCount: 2
Fore
SplineSet
651 400 m 0x28
 651 422 707 479 730 479 c 0
 746 479 764 461 778 447 c 0
 792 433 810 415 810 400 c 0
 810 384 792 366 778 352 c 0
 764 338 746 320 730 320 c 0
 707 320 651 376 651 400 c 0x28
651 200 m 0
 651 224 707 280 730 280 c 0
 746 280 764 262 778 248 c 0
 792 234 810 216 810 200 c 0
 810 185 792 167 778 153 c 0
 764 139 746 121 730 121 c 0x88
 707 121 651 178 651 200 c 0
570 450 m 1x18
 570 350 l 1
 90 350 l 1
 90 450 l 1
 570 450 l 1x18
570 250 m 1x48
 570 150 l 1
 90 150 l 1
 90 250 l 1
 570 250 l 1x48
EndSplineSet
EndChar

StartChar: uni2323
Encoding: 22 8995 22
Width: 660
Flags: HW
HStem: 200 100<245.143 414.857>
LayerCount: 2
Fore
SplineSet
162 384 m 1
 207 337 265 300 330 300 c 0
 395 300 453 337 498 384 c 1
 570 315 l 1
 506 248 422 200 330 200 c 0
 238 200 154 248 90 315 c 1
 162 384 l 1
EndSplineSet
EndChar

StartChar: uni2322
Encoding: 23 8994 23
Width: 660
Flags: HW
HStem: 300 100<245.143 414.857>
LayerCount: 2
Fore
SplineSet
162 216 m 1
 90 285 l 1
 154 352 238 400 330 400 c 0
 422 400 506 352 570 285 c 1
 498 216 l 1
 453 263 395 300 330 300 c 0
 265 300 207 263 162 216 c 1
EndSplineSet
EndChar

StartChar: uni224D
Encoding: 24 8781 24
Width: 660
Flags: HW
HStem: 167 100<245.143 414.857> 333 100<245.143 414.857>
LayerCount: 2
Fore
SplineSet
162 517 m 1
 207 470 265 433 330 433 c 0
 395 433 453 470 498 517 c 1
 570 448 l 1
 506 381 422 333 330 333 c 0
 238 333 154 381 90 448 c 1
 162 517 l 1
162 83 m 1
 90 152 l 1
 154 219 238 267 330 267 c 0
 422 267 506 219 570 152 c 1
 498 83 l 1
 453 130 395 167 330 167 c 0
 265 167 207 130 162 83 c 1
EndSplineSet
EndChar

StartChar: uni2050
Encoding: 25 8272 25
Width: 660
Flags: HW
HStem: 68 100<245.143 414.857> 432 100<245.143 414.857>
LayerCount: 2
Fore
SplineSet
162 348 m 1
 90 418 l 1
 154 484 238 532 330 532 c 0
 422 532 506 484 570 418 c 1
 498 348 l 1
 453 395 395 432 330 432 c 0
 265 432 207 395 162 348 c 1
162 252 m 1
 207 205 265 168 330 168 c 0
 395 168 453 205 498 252 c 1
 570 182 l 1
 506 116 422 68 330 68 c 0
 238 68 154 116 90 182 c 1
 162 252 l 1
EndSplineSet
EndChar

StartChar: sym020
Encoding: 26 -1 26
Width: 660
Flags: HW
HStem: 51 100<90 570> 250 100<90 570> 399 100<245.143 414.857>
LayerCount: 2
Fore
SplineSet
162 583 m 1
 207 536 265 499 330 499 c 0
 395 499 453 536 498 583 c 1
 570 514 l 1
 506 447 422 399 330 399 c 0
 238 399 154 447 90 514 c 1
 162 583 l 1
90 250 m 1
 90 350 l 1
 570 350 l 1
 570 250 l 1
 90 250 l 1
90 51 m 1
 90 151 l 1
 570 151 l 1
 570 51 l 1
 90 51 l 1
EndSplineSet
EndChar

StartChar: uni2258
Encoding: 27 8792 27
Width: 660
Flags: HW
HStem: 51 100<90 570> 250 100<90 570> 499 100<245.143 414.857>
LayerCount: 2
Fore
SplineSet
162 415 m 1
 90 484 l 1
 154 551 238 599 330 599 c 0
 422 599 506 551 570 484 c 1
 498 415 l 1
 453 462 395 499 330 499 c 0
 265 499 207 462 162 415 c 1
90 250 m 1
 90 350 l 1
 570 350 l 1
 570 250 l 1
 90 250 l 1
90 51 m 1
 90 151 l 1
 570 151 l 1
 570 51 l 1
 90 51 l 1
EndSplineSet
EndChar

StartChar: uni2256
Encoding: 28 8790 28
Width: 660
Flags: HW
HStem: 150 100<90 220 294.244 365.756 440 570> 350 100<90 220 294.244 365.756 440 570>
VStem: 210 75<261.325 338.675> 375 75<261.325 338.675>
LayerCount: 2
Fore
SplineSet
90 150 m 1
 90 250 l 1
 220 250 l 1
 213 266 210 283 210 300 c 0
 210 317 213 334 220 350 c 1
 90 350 l 1
 90 450 l 1
 570 450 l 1
 570 350 l 1
 440 350 l 1
 447 334 450 317 450 300 c 0
 450 283 447 266 440 250 c 1
 570 250 l 1
 570 150 l 1
 90 150 l 1
330 255 m 0
 356 255 375 274 375 300 c 0
 375 326 356 345 330 345 c 0
 304 345 285 326 285 300 c 0
 285 274 304 255 330 255 c 0
EndSplineSet
EndChar

StartChar: uni2257
Encoding: 29 8791 29
Width: 660
Flags: HW
HStem: 150 100<90 570> 350 100<90 570> 528 75<291.699 368.301> 694 75<292.289 367.711>
VStem: 210 75<610.262 686.126> 375 75<610.262 686.126>
LayerCount: 2
Fore
SplineSet
90 350 m 1
 90 450 l 1
 570 450 l 1
 570 350 l 1
 90 350 l 1
90 150 m 1
 90 250 l 1
 570 250 l 1
 570 150 l 1
 90 150 l 1
330 769 m 0
 393 769 450 718 450 648 c 0
 450 578 394 528 330 528 c 0
 266 528 210 578 210 648 c 0
 210 718 267 769 330 769 c 0
330 603 m 0
 352 603 375 619 375 648 c 0
 375 677 351 694 330 694 c 0
 309 694 285 677 285 648 c 0
 285 619 308 603 330 603 c 0
EndSplineSet
EndChar

StartChar: uni2259
Encoding: 30 8793 30
Width: 660
Flags: HW
HStem: 150 100<90 570> 350 100<90 570>
LayerCount: 2
Fore
SplineSet
90 350 m 1
 90 450 l 1
 570 450 l 1
 570 350 l 1
 90 350 l 1
90 150 m 1
 90 250 l 1
 570 250 l 1
 570 150 l 1
 90 150 l 1
543 562 m 1
 465 499 l 1
 330 668 l 1
 195 499 l 1
 117 562 l 1
 306 798 l 1
 354 798 l 1
 543 562 l 1
EndSplineSet
EndChar

StartChar: uni225A
Encoding: 31 8794 31
Width: 660
Flags: HW
HStem: 150 100<90 570> 350 100<90 570>
LayerCount: 2
Fore
SplineSet
90 350 m 1
 90 450 l 1
 570 450 l 1
 570 350 l 1
 90 350 l 1
90 150 m 1
 90 250 l 1
 570 250 l 1
 570 150 l 1
 90 150 l 1
117 735 m 1
 195 798 l 1
 330 629 l 1
 465 798 l 1
 543 735 l 1
 354 499 l 1
 306 499 l 1
 117 735 l 1
EndSplineSet
EndChar

StartChar: uni225B
Encoding: 32 8795 32
Width: 660
Flags: HW
HStem: 150 100<90 570> 350 100<90 570>
LayerCount: 2
Fore
SplineSet
90 350 m 1
 90 450 l 1
 570 450 l 1
 570 350 l 1
 90 350 l 1
90 150 m 1
 90 250 l 1
 570 250 l 1
 570 150 l 1
 90 150 l 1
330 848 m 1
 377 713 l 1
 520 710 l 1
 406 624 l 1
 447 487 l 1
 330 569 l 1
 213 487 l 1
 254 624 l 1
 140 710 l 1
 283 713 l 1
 330 848 l 1
EndSplineSet
EndChar

StartChar: uni225C
Encoding: 33 8796 33
Width: 660
Flags: HW
HStem: 150 100<90 570> 350 100<90 570> 536 75<266 394>
LayerCount: 2
Fore
SplineSet
90 350 m 1
 90 450 l 1
 570 450 l 1
 570 350 l 1
 90 350 l 1
90 150 m 1
 90 250 l 1
 570 250 l 1
 570 150 l 1
 90 150 l 1
330 873 m 1
 524 536 l 1
 136 536 l 1
 330 873 l 1
330 723 m 1
 266 611 l 1
 394 611 l 1
 330 723 l 1
EndSplineSet
EndChar

StartChar: element
Encoding: 34 8712 34
Width: 660
Flags: HW
HStem: 1 100<272.673 570> 250 100<194 570> 499 100<272.673 570>
VStem: 90 104<187.047 250 350 412.953>
CounterMasks: 1 e0
LayerCount: 2
Fore
SplineSet
570 499 m 1
 338 499 l 2
 260 499 209 432 194 350 c 1
 570 350 l 1
 570 250 l 1
 194 250 l 1
 209 168 260 101 338 101 c 2
 570 101 l 1
 570 1 l 1
 338 1 l 2
 191 1 90 143 90 300 c 0
 90 457 191 599 338 599 c 2
 570 599 l 1
 570 499 l 1
EndSplineSet
EndChar

StartChar: uni220B
Encoding: 35 8715 35
Width: 660
Flags: HW
HStem: 1 100<90 387.327> 250 100<90 466> 499 100<90 387.327>
VStem: 466 104<187.047 250 350 412.953>
CounterMasks: 1 e0
LayerCount: 2
Fore
SplineSet
90 101 m 1
 322 101 l 2
 400 101 451 168 466 250 c 1
 90 250 l 1
 90 350 l 1
 466 350 l 1
 451 432 400 499 322 499 c 2
 90 499 l 1
 90 599 l 1
 322 599 l 2
 469 599 570 457 570 300 c 0
 570 143 469 1 322 1 c 2
 90 1 l 1
 90 101 l 1
EndSplineSet
EndChar

StartChar: less
Encoding: 36 60 36
Width: 660
Flags: HW
LayerCount: 2
Fore
SplineSet
520 578 m 1
 570 491 l 1
 240 300 l 1
 570 109 l 1
 520 22 l 1
 90 271 l 1
 90 329 l 1
 520 578 l 1
EndSplineSet
EndChar

StartChar: greater
Encoding: 37 62 37
Width: 660
Flags: HW
LayerCount: 2
Fore
SplineSet
140 22 m 1
 90 109 l 1
 420 300 l 1
 90 491 l 1
 140 578 l 1
 570 329 l 1
 570 271 l 1
 140 22 l 1
EndSplineSet
EndChar

StartChar: lessequal
Encoding: 38 8804 38
Width: 660
Flags: HW
HStem: -3 100<90 570>
LayerCount: 2
Fore
SplineSet
530 590 m 1
 570 498 l 1
 266 366 l 1
 570 234 l 1
 530 143 l 1
 90 334 l 1
 90 399 l 1
 530 590 l 1
90 -3 m 1
 90 97 l 1
 570 97 l 1
 570 -3 l 1
 90 -3 l 1
EndSplineSet
EndChar

StartChar: greaterequal
Encoding: 39 8805 39
Width: 660
Flags: HW
HStem: -3 100<90 570>
LayerCount: 2
Fore
SplineSet
130 143 m 1
 90 234 l 1
 394 366 l 1
 90 498 l 1
 130 590 l 1
 570 399 l 1
 570 334 l 1
 130 143 l 1
570 97 m 1
 570 -3 l 1
 90 -3 l 1
 90 97 l 1
 570 97 l 1
EndSplineSet
EndChar

StartChar: uni2A7D
Encoding: 40 10877 40
Width: 660
Flags: HW
LayerCount: 2
Fore
SplineSet
530 623 m 1
 570 532 l 1
 266 400 l 1
 570 267 l 1
 530 176 l 1
 90 367 l 1
 90 432 l 1
 530 623 l 1
570 68 m 1
 530 -23 l 1
 90 168 l 1
 130 259 l 1
 570 68 l 1
EndSplineSet
EndChar

StartChar: uni2A7E
Encoding: 41 10878 41
Width: 660
Flags: HW
LayerCount: 2
Fore
SplineSet
130 176 m 1
 90 267 l 1
 394 400 l 1
 90 532 l 1
 130 623 l 1
 570 432 l 1
 570 367 l 1
 130 176 l 1
130 -23 m 1
 90 68 l 1
 530 259 l 1
 570 168 l 1
 130 -23 l 1
EndSplineSet
EndChar

StartChar: uni2266
Encoding: 42 8806 42
Width: 660
Flags: HW
HStem: -102 100<90 570> 97 100<90 570>
LayerCount: 2
Fore
SplineSet
530 690 m 1
 570 598 l 1
 266 466 l 1
 570 334 l 1
 530 242 l 1
 90 433 l 1
 90 499 l 1
 530 690 l 1
90 97 m 1
 90 197 l 1
 570 197 l 1
 570 97 l 1
 90 97 l 1
90 -102 m 1
 90 -2 l 1
 570 -2 l 1
 570 -102 l 1
 90 -102 l 1
EndSplineSet
EndChar

StartChar: uni2267
Encoding: 43 8807 43
Width: 660
Flags: HW
HStem: -102 100<90 570> 97 100<90 570>
LayerCount: 2
Fore
SplineSet
130 242 m 1
 90 334 l 1
 394 466 l 1
 90 598 l 1
 130 690 l 1
 570 499 l 1
 570 433 l 1
 130 242 l 1
570 197 m 1
 570 97 l 1
 90 97 l 1
 90 197 l 1
 570 197 l 1
570 -2 m 1
 570 -102 l 1
 90 -102 l 1
 90 -2 l 1
 570 -2 l 1
EndSplineSet
EndChar

StartChar: uni2272
Encoding: 44 8818 44
Width: 660
Flags: HW
HStem: -36 100<383.881 477.079> 63 100<182.921 276.119>
LayerCount: 2
Fore
SplineSet
530 623 m 1x00
 570 532 l 1
 266 400 l 1
 570 267 l 1
 530 176 l 1
 90 367 l 1
 90 432 l 1
 530 623 l 1x00
433 -36 m 0x80
 331 -36 285 63 227 63 c 0x40
 193 63 173 30 150 6 c 1
 90 64 l 1x80
 131 106 167 163 227 163 c 0x40
 329 163 375 64 433 64 c 0
 467 64 487 97 510 122 c 1
 570 64 l 1
 529 21 493 -36 433 -36 c 0x80
EndSplineSet
EndChar

StartChar: uni2273
Encoding: 45 8819 45
Width: 660
Flags: HW
HStem: -36 100<383.881 477.079> 63 100<182.921 276.119>
LayerCount: 2
Fore
SplineSet
130 176 m 1x00
 90 267 l 1
 394 400 l 1
 90 532 l 1
 130 623 l 1
 570 432 l 1
 570 367 l 1
 130 176 l 1x00
433 -36 m 0x80
 331 -36 285 63 227 63 c 0x40
 193 63 173 30 150 6 c 1
 90 64 l 1x80
 131 106 167 163 227 163 c 0x40
 329 163 375 64 433 64 c 0
 467 64 487 97 510 122 c 1
 570 64 l 1
 529 21 493 -36 433 -36 c 0x80
EndSplineSet
EndChar

StartChar: uni2A85
Encoding: 46 10885 46
Width: 660
Flags: HW
HStem: -136 100<384.143 476.517> -36 100<182.921 276.702> 63 100<384.143 476.517> 163 100<182.921 276.702>
LayerCount: 2
Fore
SplineSet
530 723 m 1x00
 570 631 l 1
 266 499 l 1
 570 367 l 1
 530 275 l 1
 90 466 l 1
 90 532 l 1
 530 723 l 1x00
227 263 m 0x10
 330 263 377 163 433 163 c 0x20
 467 163 487 197 510 221 c 1
 570 163 l 1x10
 529 120 493 63 433 63 c 0x20
 382 63 336 92 297 125 c 0
 276 144 254 163 227 163 c 0
 193 163 173 130 150 105 c 1
 90 163 l 1
 131 206 167 263 227 263 c 0x10
227 64 m 0x40
 330 64 377 -36 433 -36 c 0x80
 467 -36 487 -2 510 22 c 1
 570 -36 l 1x40
 529 -79 493 -136 433 -136 c 0x80
 382 -136 336 -107 297 -74 c 0
 276 -55 254 -36 227 -36 c 0
 193 -36 173 -69 150 -94 c 1
 90 -36 l 1
 131 7 167 64 227 64 c 0x40
EndSplineSet
EndChar

StartChar: uni2A86
Encoding: 47 10886 47
Width: 660
Flags: HW
HStem: -136 100<384.143 476.517> -36 100<182.921 276.702> 63 100<384.143 476.517> 163 100<182.921 276.702>
LayerCount: 2
Fore
SplineSet
130 275 m 1x00
 90 367 l 1
 394 499 l 1
 90 631 l 1
 130 723 l 1
 570 532 l 1
 570 466 l 1
 130 275 l 1x00
227 263 m 0x10
 330 263 377 163 433 163 c 0x20
 467 163 487 197 510 221 c 1
 570 163 l 1x10
 529 120 493 63 433 63 c 0x20
 382 63 336 92 297 125 c 0
 276 144 254 163 227 163 c 0
 193 163 173 130 150 105 c 1
 90 163 l 1
 131 206 167 263 227 263 c 0x10
227 64 m 0x40
 330 64 377 -36 433 -36 c 0x80
 467 -36 487 -2 510 22 c 1
 570 -36 l 1x40
 529 -79 493 -136 433 -136 c 0x80
 382 -136 336 -107 297 -74 c 0
 276 -55 254 -36 227 -36 c 0
 193 -36 173 -69 150 -94 c 1
 90 -36 l 1
 131 7 167 64 227 64 c 0x40
EndSplineSet
EndChar

StartChar: uni2276
Encoding: 48 8822 48
Width: 660
Flags: HW
HStem: 697 20G<483.927 538.696>
LayerCount: 2
Fore
SplineSet
530 717 m 1
 570 625 l 1
 266 493 l 1
 570 361 l 1
 530 269 l 1
 90 460 l 1
 90 526 l 1
 530 717 l 1
130 -117 m 1
 90 -25 l 1
 394 107 l 1
 90 239 l 1
 130 331 l 1
 570 140 l 1
 570 74 l 1
 130 -117 l 1
EndSplineSet
EndChar

StartChar: uni2277
Encoding: 49 8823 49
Width: 660
Flags: HW
HStem: 697 20G<121.304 176.073>
LayerCount: 2
Fore
SplineSet
130 269 m 1
 90 361 l 1
 394 493 l 1
 90 625 l 1
 130 717 l 1
 570 526 l 1
 570 460 l 1
 130 269 l 1
530 331 m 1
 570 239 l 1
 266 107 l 1
 570 -25 l 1
 530 -117 l 1
 90 74 l 1
 90 140 l 1
 530 331 l 1
EndSplineSet
EndChar

StartChar: uni22DA
Encoding: 50 8922 50
Width: 660
Flags: HW
HStem: 250 100<90 570>
LayerCount: 2
Fore
SplineSet
530 843 m 1
 570 751 l 1
 266 619 l 1
 570 487 l 1
 530 395 l 1
 90 586 l 1
 90 652 l 1
 530 843 l 1
130 -243 m 1
 90 -151 l 1
 394 -19 l 1
 90 113 l 1
 130 205 l 1
 570 14 l 1
 570 -52 l 1
 130 -243 l 1
90 250 m 1
 90 350 l 1
 570 350 l 1
 570 250 l 1
 90 250 l 1
EndSplineSet
EndChar

StartChar: uni22DB
Encoding: 51 8923 51
Width: 660
Flags: HW
HStem: 250 100<90 570>
LayerCount: 2
Fore
SplineSet
130 395 m 1
 90 487 l 1
 394 619 l 1
 90 751 l 1
 130 843 l 1
 570 652 l 1
 570 586 l 1
 130 395 l 1
530 205 m 1
 570 113 l 1
 266 -19 l 1
 570 -151 l 1
 530 -243 l 1
 90 -52 l 1
 90 14 l 1
 530 205 l 1
570 350 m 1
 570 250 l 1
 90 250 l 1
 90 350 l 1
 570 350 l 1
EndSplineSet
EndChar

StartChar: uni2A8B
Encoding: 52 10891 52
Width: 660
Flags: HW
HStem: 150 100<90 570> 350 100<90 570>
LayerCount: 2
Fore
SplineSet
530 943 m 1
 570 851 l 1
 266 719 l 1
 570 587 l 1
 530 495 l 1
 90 686 l 1
 90 752 l 1
 530 943 l 1
130 -343 m 1
 90 -251 l 1
 394 -119 l 1
 90 13 l 1
 130 105 l 1
 570 -86 l 1
 570 -152 l 1
 130 -343 l 1
90 350 m 1
 90 450 l 1
 570 450 l 1
 570 350 l 1
 90 350 l 1
90 150 m 1
 90 250 l 1
 570 250 l 1
 570 150 l 1
 90 150 l 1
EndSplineSet
EndChar

StartChar: uni2A8C
Encoding: 53 10892 53
Width: 660
Flags: HW
HStem: 150 100<90 570> 350 100<90 570>
LayerCount: 2
Fore
SplineSet
130 495 m 1
 90 587 l 1
 394 719 l 1
 90 851 l 1
 130 943 l 1
 570 752 l 1
 570 686 l 1
 130 495 l 1
530 105 m 1
 570 13 l 1
 266 -119 l 1
 570 -251 l 1
 530 -343 l 1
 90 -152 l 1
 90 -86 l 1
 530 105 l 1
570 450 m 1
 570 350 l 1
 90 350 l 1
 90 450 l 1
 570 450 l 1
570 250 m 1
 570 150 l 1
 90 150 l 1
 90 250 l 1
 570 250 l 1
EndSplineSet
EndChar

StartChar: uni22DA.alt
Encoding: 54 -1 54
Width: 660
Flags: HW
LayerCount: 2
Fore
SplineSet
530 816 m 1
 570 724 l 1
 266 592 l 1
 570 460 l 1
 530 368 l 1
 90 559 l 1
 90 625 l 1
 530 816 l 1
130 -216 m 1
 90 -124 l 1
 394 8 l 1
 90 140 l 1
 130 232 l 1
 570 41 l 1
 570 -25 l 1
 130 -216 l 1
570 250 m 1
 530 159 l 1
 90 350 l 1
 130 441 l 1
 570 250 l 1
EndSplineSet
EndChar

StartChar: uni22DB.alt
Encoding: 55 -1 55
Width: 660
Flags: HW
LayerCount: 2
Fore
SplineSet
130 368 m 1
 90 460 l 1
 394 592 l 1
 90 724 l 1
 130 816 l 1
 570 625 l 1
 570 559 l 1
 130 368 l 1
530 232 m 1
 570 140 l 1
 266 8 l 1
 570 -124 l 1
 530 -216 l 1
 90 -25 l 1
 90 41 l 1
 530 232 l 1
130 159 m 1
 90 250 l 1
 530 441 l 1
 570 350 l 1
 130 159 l 1
EndSplineSet
EndChar

StartChar: uni226A
Encoding: 56 8810 56
Width: 1158
Flags: HW
LayerCount: 2
Fore
SplineSet
628 584 m 1
 670 494 l 1
 258 300 l 1
 670 106 l 1
 628 16 l 1
 90 268 l 1
 90 332 l 1
 628 584 l 1
1026 584 m 1
 1068 494 l 1
 656 300 l 1
 1068 106 l 1
 1026 16 l 1
 488 268 l 1
 488 332 l 1
 1026 584 l 1
EndSplineSet
EndChar

StartChar: uni226B
Encoding: 57 8811 57
Width: 1158
Flags: HW
LayerCount: 2
Fore
SplineSet
530 16 m 1
 488 106 l 1
 900 300 l 1
 488 494 l 1
 530 584 l 1
 1068 332 l 1
 1068 268 l 1
 530 16 l 1
132 16 m 1
 90 106 l 1
 502 300 l 1
 90 494 l 1
 132 584 l 1
 670 332 l 1
 670 268 l 1
 132 16 l 1
EndSplineSet
EndChar

StartChar: uni22D8
Encoding: 58 8920 58
Width: 1556
Flags: HW
LayerCount: 2
Fore
SplineSet
628 584 m 1
 670 494 l 1
 258 300 l 1
 670 106 l 1
 628 16 l 1
 90 268 l 1
 90 332 l 1
 628 584 l 1
1026 584 m 1
 1068 494 l 1
 656 300 l 1
 1068 106 l 1
 1026 16 l 1
 488 268 l 1
 488 332 l 1
 1026 584 l 1
1424 584 m 1
 1466 494 l 1
 1054 300 l 1
 1466 106 l 1
 1424 16 l 1
 886 268 l 1
 886 332 l 1
 1424 584 l 1
EndSplineSet
EndChar

StartChar: uni22D9
Encoding: 59 8921 59
Width: 1556
Flags: HW
LayerCount: 2
Fore
SplineSet
928 16 m 1
 886 106 l 1
 1298 300 l 1
 886 494 l 1
 928 584 l 1
 1466 332 l 1
 1466 268 l 1
 928 16 l 1
530 16 m 1
 488 106 l 1
 900 300 l 1
 488 494 l 1
 530 584 l 1
 1068 332 l 1
 1068 268 l 1
 530 16 l 1
132 16 m 1
 90 106 l 1
 502 300 l 1
 90 494 l 1
 132 584 l 1
 670 332 l 1
 670 268 l 1
 132 16 l 1
EndSplineSet
EndChar

StartChar: uni22B2
Encoding: 60 8882 60
Width: 660
Flags: HW
VStem: 470 100<167 433>
LayerCount: 2
Fore
SplineSet
470 167 m 1
 470 433 l 1
 240 300 l 1
 470 167 l 1
520 22 m 1
 90 271 l 1
 90 329 l 1
 520 578 l 1
 570 549 l 1
 570 51 l 1
 520 22 l 1
EndSplineSet
EndChar

StartChar: uni22B3
Encoding: 61 8883 61
Width: 660
Flags: HW
VStem: 90 100<167 433>
LayerCount: 2
Fore
SplineSet
190 433 m 1
 190 167 l 1
 420 300 l 1
 190 433 l 1
140 578 m 1
 570 329 l 1
 570 271 l 1
 140 22 l 1
 90 51 l 1
 90 549 l 1
 140 578 l 1
EndSplineSet
EndChar

StartChar: uni22B4
Encoding: 62 8884 62
Width: 660
Flags: HW
HStem: -3 100<90 570>
VStem: 470 100<277 455>
LayerCount: 2
Fore
SplineSet
470 277 m 1
 470 455 l 1
 266 366 l 1
 470 277 l 1
470 564 m 2
 530 590 l 1
 570 564 l 1
 570 169 l 1
 530 143 l 1
 470 169 l 2
 90 334 l 1
 90 399 l 1
 470 564 l 2
90 -3 m 1
 90 97 l 1
 570 97 l 1
 570 -3 l 1
 90 -3 l 1
EndSplineSet
EndChar

StartChar: uni22B5
Encoding: 63 8885 63
Width: 660
Flags: HW
HStem: -3 100<90 570>
VStem: 90 100<277 455>
LayerCount: 2
Fore
SplineSet
190 455 m 1
 190 277 l 1
 394 366 l 1
 190 455 l 1
190 169 m 2
 130 143 l 1
 90 169 l 1
 90 564 l 1
 130 590 l 1
 190 564 l 2
 570 399 l 1
 570 334 l 1
 190 169 l 2
570 97 m 1
 570 -3 l 1
 90 -3 l 1
 90 97 l 1
 570 97 l 1
EndSplineSet
EndChar

StartChar: uni2AA6
Encoding: 64 10918 64
Width: 717
Flags: HW
VStem: 521 100<192.572 407.428>
LayerCount: 2
Fore
SplineSet
483 159 m 1
 508 202 521 251 521 300 c 0
 521 349 508 398 483 441 c 1
 240 300 l 1
 483 159 l 1
570 109 m 2
 520 22 l 1
 90 271 l 1
 90 329 l 1
 520 578 l 1
 570 491 l 2
 604 432 621 366 621 300 c 0
 621 234 604 168 570 109 c 2
EndSplineSet
EndChar

StartChar: uni2AA7
Encoding: 65 10919 65
Width: 717
Flags: HW
VStem: 95 101<189.825 409.999>
LayerCount: 2
Fore
SplineSet
233 441 m 1
 218 415 196 365 196 300 c 0
 196 269 201 214 233 159 c 1
 477 300 l 1
 233 441 l 1
147 491 m 2
 197 578 l 1
 627 329 l 1
 627 271 l 1
 197 22 l 1
 147 109 l 2
 113 168 95 234 95 300 c 0
 95 366 113 432 147 491 c 2
EndSplineSet
EndChar

StartChar: uni2AA8
Encoding: 66 10920 66
Width: 698
Flags: HW
VStem: 487 100<310.637 490.009>
LayerCount: 2
Fore
SplineSet
475 309 m 1
 483 339 487 369 487 400 c 0
 487 431 483 461 475 491 c 1
 266 400 l 1
 475 309 l 1
530 623 m 1
 570 532 l 1
 567 531 l 1
 580 488 587 444 587 400 c 0
 587 356 580 311 567 268 c 1
 570 267 l 1
 530 176 l 1
 90 367 l 1
 90 432 l 1
 530 623 l 1
570 68 m 1
 530 -23 l 1
 90 168 l 1
 130 259 l 1
 570 68 l 1
EndSplineSet
EndChar

StartChar: uni2AA9
Encoding: 67 10921 67
Width: 698
Flags: HW
VStem: 111 101<310.637 490.009>
LayerCount: 2
Fore
SplineSet
224 491 m 1
 216 461 212 431 212 400 c 0
 212 369 215 339 223 309 c 1
 433 400 l 1
 224 491 l 1
168 176 m 1
 128 267 l 1
 131 268 l 1
 118 311 111 356 111 400 c 0
 111 444 118 488 131 531 c 1
 128 532 l 1
 168 623 l 1
 608 432 l 1
 608 367 l 1
 168 176 l 1
168 -23 m 1
 128 68 l 1
 569 259 l 1
 608 168 l 1
 168 -23 l 1
EndSplineSet
EndChar

StartChar: uni228F
Encoding: 68 8847 68
Width: 660
Flags: HW
HStem: 1 100<190 570> 499 100<190 570>
VStem: 90 100<101 499>
LayerCount: 2
Fore
SplineSet
190 101 m 1
 570 101 l 1
 570 1 l 1
 90 1 l 1
 90 599 l 1
 570 599 l 1
 570 499 l 1
 190 499 l 1
 190 101 l 1
EndSplineSet
EndChar

StartChar: uni2290
Encoding: 69 8848 69
Width: 660
Flags: HW
HStem: 1 100<90 470> 499 100<90 470>
VStem: 470 100<101 499>
LayerCount: 2
Fore
SplineSet
470 101 m 1
 470 499 l 1
 90 499 l 1
 90 599 l 1
 570 599 l 1
 570 1 l 1
 90 1 l 1
 90 101 l 1
 470 101 l 1
EndSplineSet
EndChar

StartChar: uni2291
Encoding: 70 8849 70
Width: 660
Flags: HW
HStem: -36 100<90 570> 163 100<190 570> 536 100<190 570>
VStem: 90 100<263 536>
LayerCount: 2
Fore
SplineSet
190 263 m 1
 570 263 l 1
 570 163 l 1
 90 163 l 1
 90 636 l 1
 570 636 l 1
 570 536 l 1
 190 536 l 1
 190 263 l 1
90 -36 m 1
 90 64 l 1
 570 64 l 1
 570 -36 l 1
 90 -36 l 1
EndSplineSet
EndChar

StartChar: uni2292
Encoding: 71 8850 71
Width: 660
Flags: HW
HStem: -36 100<90 570> 163 100<90 470> 536 100<90 470>
VStem: 470 100<263 536>
LayerCount: 2
Fore
SplineSet
470 263 m 1
 470 536 l 1
 90 536 l 1
 90 636 l 1
 570 636 l 1
 570 163 l 1
 90 163 l 1
 90 263 l 1
 470 263 l 1
570 64 m 1
 570 -36 l 1
 90 -36 l 1
 90 64 l 1
 570 64 l 1
EndSplineSet
EndChar

StartChar: sym021
Encoding: 72 -1 72
Width: 660
Flags: HW
HStem: -136 100<90 570> 63 100<90 570> 262 100<190 570> 636 100<190 570>
VStem: 90 480<-136 -36 63 163 262 362 636 736> 90 100<362 636>
LayerCount: 2
Fore
SplineSet
190 362 m 1xf4
 570 362 l 1
 570 262 l 1
 90 262 l 1
 90 736 l 1
 570 736 l 1
 570 636 l 1xf8
 190 636 l 1
 190 362 l 1xf4
90 63 m 1
 90 163 l 1
 570 163 l 1
 570 63 l 1
 90 63 l 1
90 -136 m 1
 90 -36 l 1
 570 -36 l 1
 570 -136 l 1
 90 -136 l 1
EndSplineSet
EndChar

StartChar: sym022
Encoding: 73 -1 73
Width: 660
Flags: HW
HStem: -136 100<90 570> 63 100<90 570> 262 100<90 470> 636 100<90 470>
VStem: 90 480<-136 -36 63 163 262 362 636 736> 470 100<362 636>
LayerCount: 2
Fore
SplineSet
470 362 m 1xf4
 470 636 l 1xf4
 90 636 l 1
 90 736 l 1
 570 736 l 1
 570 262 l 1
 90 262 l 1
 90 362 l 1xf8
 470 362 l 1xf4
570 163 m 1xf8
 570 63 l 1
 90 63 l 1
 90 163 l 1
 570 163 l 1xf8
570 -36 m 1
 570 -136 l 1
 90 -136 l 1
 90 -36 l 1
 570 -36 l 1
EndSplineSet
EndChar

StartChar: sym023
Encoding: 74 -1 74
Width: 660
Flags: HW
HStem: 1 100<190 570> 150 100<339 570> 350 100<339 570> 499 100<190 570>
VStem: 90 100<101 499> 239 100<250 350>
LayerCount: 2
Fore
SplineSet
190 101 m 1
 570 101 l 1
 570 1 l 1
 90 1 l 1
 90 599 l 1
 570 599 l 1
 570 499 l 1
 190 499 l 1
 190 101 l 1
339 250 m 1
 570 250 l 1
 570 150 l 1
 239 150 l 1
 239 450 l 1
 570 450 l 1
 570 350 l 1
 339 350 l 1
 339 250 l 1
EndSplineSet
EndChar

StartChar: sym024
Encoding: 75 -1 75
Width: 660
Flags: HW
HStem: 1 100<90 470> 150 100<90 321> 350 100<90 321> 499 100<90 470>
VStem: 321 100<250 350> 470 100<101 499>
LayerCount: 2
Fore
SplineSet
470 101 m 1
 470 499 l 1
 90 499 l 1
 90 599 l 1
 570 599 l 1
 570 1 l 1
 90 1 l 1
 90 101 l 1
 470 101 l 1
321 250 m 1
 321 350 l 1
 90 350 l 1
 90 450 l 1
 421 450 l 1
 421 150 l 1
 90 150 l 1
 90 250 l 1
 321 250 l 1
EndSplineSet
EndChar

StartChar: propersubset
Encoding: 76 8834 76
Width: 660
Flags: HW
HStem: 1 100<272.673 570> 499 100<272.673 570>
VStem: 90 100<194.977 405.023>
LayerCount: 2
Fore
SplineSet
570 499 m 1
 338 499 l 2
 245 499 190 402 190 300 c 0
 190 198 245 101 338 101 c 2
 570 101 l 1
 570 1 l 1
 338 1 l 2
 191 1 90 143 90 300 c 0
 90 457 191 599 338 599 c 2
 570 599 l 1
 570 499 l 1
EndSplineSet
EndChar

StartChar: propersuperset
Encoding: 77 8835 77
Width: 660
Flags: HW
HStem: 1 100<90 387.327> 499 100<90 387.327>
VStem: 470 100<194.977 405.023>
LayerCount: 2
Fore
SplineSet
90 101 m 1
 322 101 l 2
 415 101 470 198 470 300 c 0
 470 402 415 499 322 499 c 2
 90 499 l 1
 90 599 l 1
 322 599 l 2
 469 599 570 457 570 300 c 0
 570 143 469 1 322 1 c 2
 90 1 l 1
 90 101 l 1
EndSplineSet
EndChar

StartChar: reflexsubset
Encoding: 78 8838 78
Width: 660
Flags: HW
HStem: -36 100<90 570> 163 100<236.565 570> 536 100<236.565 570>
VStem: 90 100<314.086 485.22>
LayerCount: 2
Fore
SplineSet
570 536 m 1
 289 536 l 2
 226 536 190 469 190 400 c 0
 190 330 226 263 289 263 c 2
 570 263 l 1
 570 163 l 1
 289 163 l 2
 171 163 90 275 90 400 c 0
 90 524 171 636 289 636 c 2
 570 636 l 1
 570 536 l 1
90 -36 m 1
 90 64 l 1
 570 64 l 1
 570 -36 l 1
 90 -36 l 1
EndSplineSet
EndChar

StartChar: reflexsuperset
Encoding: 79 8839 79
Width: 660
Flags: HW
HStem: -36 100<90 570> 163 100<90 423.435> 536 100<90 423.435>
VStem: 470 100<314.086 485.22>
LayerCount: 2
Fore
SplineSet
90 263 m 1
 371 263 l 2
 434 263 470 330 470 400 c 0
 470 469 434 536 371 536 c 2
 90 536 l 1
 90 636 l 1
 371 636 l 2
 489 636 570 524 570 400 c 0
 570 275 489 163 371 163 c 2
 90 163 l 1
 90 263 l 1
570 64 m 1
 570 -36 l 1
 90 -36 l 1
 90 64 l 1
 570 64 l 1
EndSplineSet
EndChar

StartChar: uni2AC5
Encoding: 80 10949 80
Width: 660
Flags: HW
HStem: -136 100<90 570> 63 100<90 570> 262 100<236.565 570> 636 100<236.565 570>
VStem: 90 100<413.496 584.504>
LayerCount: 2
Fore
SplineSet
570 636 m 1
 289 636 l 2
 226 636 190 568 190 499 c 0
 190 430 226 362 289 362 c 2
 570 362 l 1
 570 262 l 1
 289 262 l 2
 171 262 90 375 90 499 c 0
 90 623 171 736 289 736 c 2
 570 736 l 1
 570 636 l 1
90 63 m 1
 90 163 l 1
 570 163 l 1
 570 63 l 1
 90 63 l 1
90 -136 m 1
 90 -36 l 1
 570 -36 l 1
 570 -136 l 1
 90 -136 l 1
EndSplineSet
EndChar

StartChar: uni2AC6
Encoding: 81 10950 81
Width: 660
Flags: HW
HStem: -136 100<90 570> 63 100<90 570> 262 100<90 423.435> 636 100<90 423.435>
VStem: 470 100<413.496 584.504>
LayerCount: 2
Fore
SplineSet
90 362 m 1
 371 362 l 2
 434 362 470 430 470 499 c 0
 470 568 434 636 371 636 c 2
 90 636 l 1
 90 736 l 1
 371 736 l 2
 489 736 570 623 570 499 c 0
 570 375 489 262 371 262 c 2
 90 262 l 1
 90 362 l 1
570 163 m 1
 570 63 l 1
 90 63 l 1
 90 163 l 1
 570 163 l 1
570 -36 m 1
 570 -136 l 1
 90 -136 l 1
 90 -36 l 1
 570 -36 l 1
EndSplineSet
EndChar

StartChar: uni22D0
Encoding: 82 8912 82
Width: 660
Flags: HW
HStem: 1 100<272.673 570> 150 100<343.817 570> 350 100<343.817 570> 499 100<272.673 570>
VStem: 90 100<194.977 405.023> 239 100<250.331 349.669>
LayerCount: 2
Fore
SplineSet
570 499 m 1
 338 499 l 2
 245 499 190 402 190 300 c 0
 190 198 245 101 338 101 c 2
 570 101 l 1
 570 1 l 1
 338 1 l 2
 191 1 90 143 90 300 c 0
 90 457 191 599 338 599 c 2
 570 599 l 1
 570 499 l 1
570 350 m 1
 364 350 l 2
 344 350 339 324 339 300 c 0
 339 276 344 250 364 250 c 2
 570 250 l 1
 570 150 l 1
 364 150 l 2
 290 150 239 222 239 300 c 0
 239 378 290 450 364 450 c 2
 570 450 l 1
 570 350 l 1
EndSplineSet
EndChar

StartChar: uni22D1
Encoding: 83 8913 83
Width: 660
Flags: HW
HStem: 1 100<90 387.327> 150 100<90 316.183> 350 100<90 316.183> 499 100<90 387.327>
VStem: 321 100<250.331 349.669> 470 100<194.977 405.023>
LayerCount: 2
Fore
SplineSet
90 101 m 1
 322 101 l 2
 415 101 470 198 470 300 c 0
 470 402 415 499 322 499 c 2
 90 499 l 1
 90 599 l 1
 322 599 l 2
 469 599 570 457 570 300 c 0
 570 143 469 1 322 1 c 2
 90 1 l 1
 90 101 l 1
90 250 m 1
 296 250 l 2
 316 250 321 276 321 300 c 0
 321 324 316 350 296 350 c 2
 90 350 l 1
 90 450 l 1
 296 450 l 2
 370 450 421 378 421 300 c 0
 421 222 370 150 296 150 c 2
 90 150 l 1
 90 250 l 1
EndSplineSet
EndChar

StartChar: uni227A
Encoding: 84 8826 84
Width: 660
Flags: HW
HStem: 250 100<90 244.297>
LayerCount: 2
Fore
SplineSet
322 300 m 1
 414 249 495 166 570 85 c 1
 497 17 l 1
 395 126 289 250 140 250 c 2
 90 250 l 1
 90 350 l 1
 140 350 l 2
 289 350 395 474 497 583 c 1
 570 515 l 1
 495 434 414 351 322 300 c 1
EndSplineSet
EndChar

StartChar: uni227B
Encoding: 85 8827 85
Width: 660
Flags: HW
HStem: 250 100<415.703 570>
LayerCount: 2
Fore
SplineSet
338 300 m 1
 246 351 165 434 90 515 c 1
 163 583 l 1
 265 474 371 350 520 350 c 2
 570 350 l 1
 570 250 l 1
 520 250 l 2
 371 250 265 126 163 17 c 1
 90 85 l 1
 165 166 246 249 338 300 c 1
EndSplineSet
EndChar

StartChar: uni2AAF
Encoding: 86 10927 86
Width: 660
Flags: HW
HStem: -3 100<90 570> 316 100<90 270.565>
LayerCount: 2
Fore
SplineSet
362 366 m 1
 440 330 510 278 570 214 c 1
 497 146 l 1
 403 246 277 316 140 316 c 2
 90 316 l 1
 90 416 l 1
 140 416 l 2
 277 416 403 486 497 587 c 1
 570 519 l 1
 510 455 440 402 362 366 c 1
90 -3 m 1
 90 97 l 1
 570 97 l 1
 570 -3 l 1
 90 -3 l 1
EndSplineSet
EndChar

StartChar: uni2AB0
Encoding: 87 10928 87
Width: 660
Flags: HW
HStem: -3 100<90 570> 316 100<389.435 570>
LayerCount: 2
Fore
SplineSet
298 366 m 1
 220 402 150 455 90 519 c 1
 163 587 l 1
 257 486 383 416 520 416 c 2
 570 416 l 1
 570 316 l 1
 520 316 l 2
 383 316 257 246 163 146 c 1
 90 214 l 1
 150 278 220 330 298 366 c 1
570 97 m 1
 570 -3 l 1
 90 -3 l 1
 90 97 l 1
 570 97 l 1
EndSplineSet
EndChar

StartChar: uni227C
Encoding: 88 8828 88
Width: 660
Flags: HW
HStem: 150 100<90 283.581> 350 100<90 270.565>
LayerCount: 2
Fore
SplineSet
362 400 m 1
 440 364 510 311 570 247 c 1
 497 179 l 1
 403 280 277 350 140 350 c 2
 90 350 l 1
 90 450 l 1
 140 450 l 2
 277 450 403 519 497 620 c 1
 570 552 l 1
 510 488 440 436 362 400 c 1
90 150 m 1
 90 250 l 1
 190 250 l 2
 331 250 436 153 534 47 c 1
 462 -19 l 1
 385 68 304 150 190 150 c 2
 90 150 l 1
EndSplineSet
EndChar

StartChar: uni227D
Encoding: 89 8829 89
Width: 660
Flags: HW
HStem: 150 100<376.419 570> 350 100<389.435 570>
LayerCount: 2
Fore
SplineSet
298 400 m 1
 220 436 150 488 90 552 c 1
 163 620 l 1
 257 519 383 450 520 450 c 2
 570 450 l 1
 570 350 l 1
 520 350 l 2
 383 350 257 280 163 179 c 1
 90 247 l 1
 150 311 220 364 298 400 c 1
570 150 m 1
 470 150 l 2
 356 150 275 68 198 -19 c 1
 126 47 l 1
 224 153 329 250 470 250 c 2
 570 250 l 1
 570 150 l 1
EndSplineSet
EndChar

StartChar: uni2AB3
Encoding: 90 10931 90
Width: 660
Flags: HW
HStem: -102 100<90 570> 97 100<90 570> 416 100<90 270.565>
LayerCount: 2
Fore
SplineSet
362 466 m 1
 440 430 510 377 570 313 c 1
 497 245 l 1
 403 346 277 416 140 416 c 2
 90 416 l 1
 90 516 l 1
 140 516 l 2
 277 516 403 586 497 686 c 1
 570 618 l 1
 510 554 440 502 362 466 c 1
90 97 m 1
 90 197 l 1
 570 197 l 1
 570 97 l 1
 90 97 l 1
90 -102 m 1
 90 -2 l 1
 570 -2 l 1
 570 -102 l 1
 90 -102 l 1
EndSplineSet
EndChar

StartChar: uni2AB4
Encoding: 91 10932 91
Width: 660
Flags: HW
HStem: -102 100<90 570> 97 100<90 570> 416 100<389.435 570>
LayerCount: 2
Fore
SplineSet
298 466 m 1
 220 502 150 554 90 618 c 1
 163 686 l 1
 257 586 383 516 520 516 c 2
 570 516 l 1
 570 416 l 1
 520 416 l 2
 383 416 257 346 163 245 c 1
 90 313 l 1
 150 377 220 430 298 466 c 1
570 197 m 1
 570 97 l 1
 90 97 l 1
 90 197 l 1
 570 197 l 1
570 -2 m 1
 570 -102 l 1
 90 -102 l 1
 90 -2 l 1
 570 -2 l 1
EndSplineSet
EndChar

StartChar: uni227E
Encoding: 92 8830 92
Width: 660
Flags: HW
HStem: -36 100<383.881 477.079> 63 100<182.921 276.119> 350 100<90 270.565>
LayerCount: 2
Fore
SplineSet
362 400 m 1x20
 440 364 510 311 570 247 c 1
 497 179 l 1
 403 280 277 350 140 350 c 2
 90 350 l 1
 90 450 l 1
 140 450 l 2
 277 450 403 519 497 620 c 1
 570 552 l 1
 510 488 440 436 362 400 c 1x20
433 -36 m 0xa0
 331 -36 285 63 227 63 c 0x60
 193 63 173 30 150 6 c 1
 90 64 l 1xa0
 131 106 167 163 227 163 c 0x60
 329 163 375 64 433 64 c 0
 467 64 487 97 510 122 c 1
 570 64 l 1
 529 21 493 -36 433 -36 c 0xa0
EndSplineSet
EndChar

StartChar: uni227F
Encoding: 93 8831 93
Width: 660
Flags: HW
HStem: -36 100<383.881 477.079> 63 100<182.921 276.119> 350 100<389.435 570>
LayerCount: 2
Fore
SplineSet
298 400 m 1x20
 220 436 150 488 90 552 c 1
 163 620 l 1
 257 519 383 450 520 450 c 2
 570 450 l 1
 570 350 l 1
 520 350 l 2
 383 350 257 280 163 179 c 1
 90 247 l 1
 150 311 220 364 298 400 c 1x20
433 -36 m 0xa0
 331 -36 285 63 227 63 c 0x60
 193 63 173 30 150 6 c 1
 90 64 l 1xa0
 131 106 167 163 227 163 c 0x60
 329 163 375 64 433 64 c 0
 467 64 487 97 510 122 c 1
 570 64 l 1
 529 21 493 -36 433 -36 c 0xa0
EndSplineSet
EndChar

StartChar: uni2AB7
Encoding: 94 10935 94
Width: 660
Flags: HW
HStem: -136 100<384.143 476.517> -36 100<182.921 276.702> 63 100<384.143 476.517> 163 100<182.921 276.702> 449 100<90 270.565>
LayerCount: 2
Fore
SplineSet
363 499 m 1x08
 440 463 510 411 570 347 c 1
 497 278 l 1
 403 379 277 449 140 449 c 2
 90 449 l 1
 90 549 l 1
 140 549 l 2
 277 549 403 619 497 720 c 1
 570 651 l 1
 510 587 440 535 363 499 c 1x08
227 263 m 0x18
 330 263 377 163 433 163 c 0x28
 467 163 487 197 510 221 c 1
 570 163 l 1x18
 529 120 493 63 433 63 c 0x28
 382 63 336 92 297 125 c 0
 276 144 254 163 227 163 c 0
 193 163 173 130 150 105 c 1
 90 163 l 1
 131 206 167 263 227 263 c 0x18
227 64 m 0x48
 330 64 377 -36 433 -36 c 0x88
 467 -36 487 -2 510 22 c 1
 570 -36 l 1x48
 529 -79 493 -136 433 -136 c 0x88
 382 -136 336 -107 297 -74 c 0
 276 -55 254 -36 227 -36 c 0
 193 -36 173 -69 150 -94 c 1
 90 -36 l 1
 131 7 167 64 227 64 c 0x48
EndSplineSet
EndChar

StartChar: uni2AB8
Encoding: 95 10936 95
Width: 660
Flags: HW
HStem: -136 100<384.143 476.517> -36 100<182.921 276.702> 63 100<384.143 476.517> 163 100<182.921 276.702> 449 100<389.435 570>
LayerCount: 2
Fore
SplineSet
297 499 m 1x08
 220 535 150 587 90 651 c 1
 163 720 l 1
 257 619 383 549 520 549 c 2
 570 549 l 1
 570 449 l 1
 520 449 l 2
 383 449 257 379 163 278 c 1
 90 347 l 1
 150 411 220 463 297 499 c 1x08
227 263 m 0x18
 330 263 377 163 433 163 c 0x28
 467 163 487 197 510 221 c 1
 570 163 l 1x18
 529 120 493 63 433 63 c 0x28
 382 63 336 92 297 125 c 0
 276 144 254 163 227 163 c 0
 193 163 173 130 150 105 c 1
 90 163 l 1
 131 206 167 263 227 263 c 0x18
227 64 m 0x48
 330 64 377 -36 433 -36 c 0x88
 467 -36 487 -2 510 22 c 1
 570 -36 l 1x48
 529 -79 493 -136 433 -136 c 0x88
 382 -136 336 -107 297 -74 c 0
 276 -55 254 -36 227 -36 c 0
 193 -36 173 -69 150 -94 c 1
 90 -36 l 1
 131 7 167 64 227 64 c 0x48
EndSplineSet
EndChar

StartChar: uni22D6
Encoding: 96 8918 96
Width: 660
Flags: HW
HStem: 221 159<453.472 527.319>
VStem: 411 159<263.245 337.574>
LayerCount: 2
Fore
SplineSet
520 578 m 1
 570 491 l 1
 240 300 l 1
 570 109 l 1
 520 22 l 1
 90 271 l 1
 90 329 l 1
 520 578 l 1
491 221 m 0
 467 221 411 277 411 300 c 0
 411 316 429 334 443 348 c 0
 457 362 475 380 491 380 c 0
 506 380 524 362 538 348 c 0
 552 334 570 316 570 300 c 0
 570 277 513 221 491 221 c 0
EndSplineSet
EndChar

StartChar: uni22D7
Encoding: 97 8919 97
Width: 660
Flags: HW
HStem: 221 159<132.472 206.319>
VStem: 90 159<263.245 337.574>
LayerCount: 2
Fore
SplineSet
140 22 m 1
 90 109 l 1
 420 300 l 1
 90 491 l 1
 140 578 l 1
 570 329 l 1
 570 271 l 1
 140 22 l 1
170 221 m 0
 146 221 90 277 90 300 c 0
 90 316 108 334 122 348 c 0
 136 362 154 380 170 380 c 0
 185 380 203 362 217 348 c 0
 231 334 249 316 249 300 c 0
 249 277 192 221 170 221 c 0
EndSplineSet
EndChar

StartChar: sym025
Encoding: 98 -1 98
Width: 660
Flags: HW
HStem: -3 100<90 570> 287 159<453.426 527.587>
VStem: 411 159<329.287 403.574>
LayerCount: 2
Fore
SplineSet
530 590 m 1
 570 498 l 1
 266 366 l 1
 570 234 l 1
 530 143 l 1
 90 334 l 1
 90 399 l 1
 530 590 l 1
570 366 m 0
 570 350 552 333 538 319 c 0
 524 304 506 287 491 287 c 0
 475 287 457 304 443 319 c 0
 429 333 411 350 411 366 c 0
 411 382 429 400 443 414 c 0
 457 428 475 446 491 446 c 0
 506 446 524 428 538 414 c 0
 552 400 570 382 570 366 c 0
90 -3 m 1
 90 97 l 1
 570 97 l 1
 570 -3 l 1
 90 -3 l 1
EndSplineSet
EndChar

StartChar: sym026
Encoding: 99 -1 99
Width: 660
Flags: HW
HStem: -3 100<90 570> 287 159<132.426 206.587>
VStem: 90 159<329.287 403.574>
LayerCount: 2
Fore
SplineSet
130 143 m 1
 90 234 l 1
 394 366 l 1
 90 498 l 1
 130 590 l 1
 570 399 l 1
 570 334 l 1
 130 143 l 1
249 366 m 0
 249 350 231 333 217 319 c 0
 203 304 185 287 170 287 c 0
 154 287 136 304 122 319 c 0
 108 333 90 350 90 366 c 0
 90 382 108 400 122 414 c 0
 136 428 154 446 170 446 c 0
 185 446 203 428 217 414 c 0
 231 400 249 382 249 366 c 0
570 97 m 1
 570 -3 l 1
 90 -3 l 1
 90 97 l 1
 570 97 l 1
EndSplineSet
EndChar

StartChar: uni2A7F
Encoding: 100 10879 100
Width: 660
Flags: HW
HStem: 320 159<453.426 527.587>
VStem: 411 159<362.426 436.587>
LayerCount: 2
Fore
SplineSet
530 623 m 1
 570 532 l 1
 266 400 l 1
 570 267 l 1
 530 176 l 1
 90 367 l 1
 90 432 l 1
 530 623 l 1
570 400 m 0
 570 384 552 366 538 352 c 0
 524 338 506 320 491 320 c 0
 475 320 457 338 443 352 c 0
 429 366 411 384 411 400 c 0
 411 415 429 433 443 447 c 0
 457 461 475 479 491 479 c 0
 506 479 524 461 538 447 c 0
 552 433 570 415 570 400 c 0
570 68 m 1
 530 -23 l 1
 90 168 l 1
 130 259 l 1
 570 68 l 1
EndSplineSet
EndChar

StartChar: uni2A80
Encoding: 101 10880 101
Width: 660
Flags: HW
HStem: 320 159<132.426 206.587>
VStem: 90 159<362.426 436.587>
LayerCount: 2
Fore
SplineSet
130 176 m 1
 90 267 l 1
 394 400 l 1
 90 532 l 1
 130 623 l 1
 570 432 l 1
 570 367 l 1
 130 176 l 1
249 400 m 0
 249 384 231 366 217 352 c 0
 203 338 185 320 170 320 c 0
 154 320 136 338 122 352 c 0
 108 366 90 384 90 400 c 0
 90 415 108 433 122 447 c 0
 136 461 154 479 170 479 c 0
 185 479 203 461 217 447 c 0
 231 433 249 415 249 400 c 0
130 -23 m 1
 90 68 l 1
 530 259 l 1
 570 168 l 1
 130 -23 l 1
EndSplineSet
EndChar

StartChar: uni2A95
Encoding: 102 10901 102
Width: 660
Flags: HW
LayerCount: 2
Fore
SplineSet
530 424 m 1
 570 333 l 1
 266 200 l 1
 570 68 l 1
 530 -23 l 1
 90 168 l 1
 90 233 l 1
 530 424 l 1
530 623 m 1
 570 532 l 1
 130 341 l 1
 90 432 l 1
 530 623 l 1
EndSplineSet
EndChar

StartChar: uni2A96
Encoding: 103 10902 103
Width: 660
Flags: HW
LayerCount: 2
Fore
SplineSet
130 -23 m 1
 90 68 l 1
 394 200 l 1
 90 333 l 1
 130 424 l 1
 570 233 l 1
 570 168 l 1
 130 -23 l 1
90 532 m 1
 130 623 l 1
 570 432 l 1
 530 341 l 1
 90 532 l 1
EndSplineSet
EndChar

StartChar: uni22DE
Encoding: 104 8926 104
Width: 660
Flags: HW
HStem: 150 100<90 270.565> 350 100<90 283.581>
LayerCount: 2
Fore
SplineSet
362 200 m 1
 440 164 510 112 570 48 c 1
 497 -20 l 1
 403 81 277 150 140 150 c 2
 90 150 l 1
 90 250 l 1
 140 250 l 2
 277 250 403 320 497 421 c 1
 570 353 l 1
 510 289 440 236 362 200 c 1
90 450 m 1
 190 450 l 2
 304 450 385 532 462 619 c 1
 534 553 l 1
 436 447 331 350 190 350 c 2
 90 350 l 1
 90 450 l 1
EndSplineSet
EndChar

StartChar: uni22DF
Encoding: 105 8927 105
Width: 660
Flags: HW
HStem: 150 100<389.435 570> 350 100<376.419 570>
LayerCount: 2
Fore
SplineSet
298 200 m 1
 220 236 150 289 90 353 c 1
 163 421 l 1
 257 320 383 250 520 250 c 2
 570 250 l 1
 570 150 l 1
 520 150 l 2
 383 150 257 81 163 -20 c 1
 90 48 l 1
 150 112 220 164 298 200 c 1
570 450 m 1
 570 350 l 1
 470 350 l 2
 329 350 224 447 126 553 c 1
 198 619 l 1
 275 532 356 450 470 450 c 2
 570 450 l 1
EndSplineSet
EndChar

StartChar: notequal
Encoding: 106 8800 106
Width: 660
Flags: HW
HStem: 150 100<90 243 363 570> 350 100<90 297 417 570>
LayerCount: 2
Fore
SplineSet
378 654 m 1
 465 630 l 1
 417 450 l 1
 570 450 l 1
 570 350 l 1
 390 350 l 1
 363 250 l 1
 570 250 l 1
 570 150 l 1
 337 150 l 1
 282 -54 l 1
 195 -30 l 1
 243 150 l 1
 90 150 l 1
 90 250 l 1
 270 250 l 1
 297 350 l 1
 90 350 l 1
 90 450 l 1
 323 450 l 1
 378 654 l 1
EndSplineSet
EndChar

StartChar: uni2262
Encoding: 107 8802 107
Width: 660
Flags: HW
HStem: 51 100<90 217 337 570> 250 100<90 270 390 570> 449 100<90 323 443 570>
CounterMasks: 1 e0
LayerCount: 2
Fore
SplineSet
391 703 m 1
 478 680 l 1
 443 549 l 1
 570 549 l 1
 570 449 l 1
 416 449 l 1
 390 350 l 1
 570 350 l 1
 570 250 l 1
 363 250 l 1
 337 151 l 1
 570 151 l 1
 570 51 l 1
 310 51 l 1
 269 -103 l 1
 182 -80 l 1
 217 51 l 1
 90 51 l 1
 90 151 l 1
 244 151 l 1
 270 250 l 1
 90 250 l 1
 90 350 l 1
 297 350 l 1
 323 449 l 1
 90 449 l 1
 90 549 l 1
 350 549 l 1
 391 703 l 1
EndSplineSet
EndChar

StartChar: uni2241
Encoding: 108 8769 108
Width: 660
Flags: HW
HStem: -4 21G<219.348 300.333> 200 100<382.906 476.517> 300 100<183.483 277.094>
LayerCount: 2
Fore
SplineSet
365 604 m 1xa0
 452 581 l 1
 382 322 l 1
 397 310 414 300 433 300 c 0xc0
 467 300 487 334 510 358 c 1
 570 300 l 1xa0
 529 257 493 200 433 200 c 0xc0
 406 200 379 208 355 221 c 1
 295 -4 l 1
 208 19 l 1
 278 278 l 1
 263 290 246 300 227 300 c 0
 193 300 173 266 150 242 c 1
 90 300 l 1
 131 343 167 400 227 400 c 0
 254 400 281 392 305 379 c 1
 365 604 l 1xa0
EndSplineSet
EndChar

StartChar: uni223D0338
Encoding: 109 -1 109
Width: 660
Flags: HW
HStem: -4 21G<219.348 300.333> 200 100<183.483 256.631> 300 100<403.369 476.517>
LayerCount: 2
Fore
SplineSet
365 604 m 1xc0
 452 581 l 1
 403 397 l 1
 413 399 423 400 433 400 c 0
 493 400 529 343 570 300 c 1
 510 242 l 1
 487 266 467 300 433 300 c 0xa0
 408 300 387 283 367 266 c 1
 295 -4 l 1
 208 19 l 1
 257 203 l 1
 247 201 237 200 227 200 c 0xc0
 167 200 131 257 90 300 c 1xa0
 150 358 l 1
 173 334 193 300 227 300 c 0
 252 300 273 317 293 334 c 1
 365 604 l 1xc0
EndSplineSet
EndChar

StartChar: uni2249
Encoding: 110 8777 110
Width: 660
Flags: HW
HStem: 101 100<382.07 477.079> 200 100<182.921 254.664> 300 100<405.336 477.079> 399 100<182.921 277.93>
LayerCount: 2
Fore
SplineSet
299 360 m 1x40
 275 381 254 399 227 399 c 0x50
 193 399 173 366 150 342 c 1
 90 400 l 1x20
 131 442 167 499 227 499 c 0x10
 263 499 297 485 327 465 c 1
 378 654 l 1
 465 630 l 1
 405 407 l 1
 414 403 423 400 433 400 c 0
 467 400 487 433 510 457 c 1
 570 400 l 1
 529 357 493 300 433 300 c 0
 414 300 396 304 379 310 c 1
 361 240 l 1
 385 219 406 201 433 201 c 0xa0
 467 201 487 234 510 258 c 1
 570 200 l 1x40
 529 158 493 101 433 101 c 0x80
 397 101 363 115 333 135 c 1
 282 -54 l 1
 195 -30 l 1
 255 193 l 1
 246 197 237 200 227 200 c 0
 193 200 173 167 150 143 c 1
 90 200 l 1
 131 243 167 300 227 300 c 0
 246 300 264 296 281 290 c 1
 299 360 l 1x40
EndSplineSet
EndChar

StartChar: uni224B0338
Encoding: 111 58044 111
Width: 660
Flags: HW
HStem: 1 100<383.451 476.517> 101 100<183.724 229.788> 200 100<382.906 476.517> 300 100<183.483 277.094> 399 100<430.212 476.276> 499 100<183.483 276.549> 537 20G<498.5 530.69>
LayerCount: 2
Fore
SplineSet
391 703 m 1x54
 478 680 l 1
 430 499 l 1x54
 431 499 432 499 433 499 c 0
 467 499 487 533 510 557 c 1x0a
 570 499 l 1x04
 529 456 493 399 433 399 c 0
 423 399 414 400 404 402 c 1
 382 322 l 1
 397 310 414 300 433 300 c 0x28
 467 300 487 334 510 358 c 1
 570 300 l 1x10
 529 257 493 200 433 200 c 0
 406 200 379 208 355 221 c 1
 339 158 l 1
 347 152 355 146 363 139 c 0
 384 121 406 101 433 101 c 0xa0
 467 101 487 135 510 159 c 1
 570 101 l 1x40
 529 58 493 1 433 1 c 0x80
 388 1 346 23 310 52 c 1
 269 -103 l 1
 182 -80 l 1
 230 101 l 1
 229 101 228 101 227 101 c 0
 193 101 173 67 150 43 c 1
 90 101 l 1
 131 144 167 201 227 201 c 0
 237 201 246 200 256 198 c 1
 278 278 l 1
 263 290 246 300 227 300 c 0
 193 300 173 266 150 242 c 1
 90 300 l 1
 131 343 167 400 227 400 c 0
 254 400 281 392 305 379 c 1
 321 442 l 1
 313 448 305 454 297 461 c 0
 276 479 254 499 227 499 c 0
 193 499 173 465 150 441 c 1
 90 499 l 1
 131 542 167 599 227 599 c 0
 272 599 314 577 350 548 c 1
 391 703 l 1x54
EndSplineSet
EndChar

StartChar: uni2244
Encoding: 112 8772 112
Width: 660
Flags: HW
HStem: 150 100<90 243 363 570> 300 100<405.336 477.079> 399 100<182.921 277.93>
LayerCount: 2
Fore
SplineSet
299 360 m 1xc0
 275 381 254 399 227 399 c 0xa0
 193 399 173 366 150 342 c 1
 90 400 l 1xc0
 131 442 167 499 227 499 c 0xa0
 263 499 297 485 327 465 c 1
 378 654 l 1
 465 630 l 1
 405 407 l 1
 414 403 423 400 433 400 c 0
 467 400 487 433 510 457 c 1
 570 400 l 1
 529 357 493 300 433 300 c 0
 414 300 396 304 379 310 c 1
 363 250 l 1
 570 250 l 1
 570 150 l 1
 337 150 l 1
 282 -54 l 1
 195 -30 l 1
 243 150 l 1
 90 150 l 1
 90 250 l 1
 270 250 l 1
 299 360 l 1xc0
EndSplineSet
EndChar

StartChar: uni22CD0338
Encoding: 113 -1 113
Width: 660
Flags: HW
HStem: 150 100<90 243 363 570> 300 100<182.921 278.426> 399 100<430.223 476.276>
LayerCount: 2
Fore
SplineSet
378 654 m 1xc0
 465 630 l 1
 430 499 l 1
 431 499 432 499 433 499 c 0xa0
 493 499 529 442 570 400 c 1xc0
 510 342 l 1
 487 366 467 399 433 399 c 0xa0
 421 399 411 395 401 390 c 1
 363 250 l 1
 570 250 l 1
 570 150 l 1
 337 150 l 1
 282 -54 l 1
 195 -30 l 1
 243 150 l 1
 90 150 l 1
 90 250 l 1
 270 250 l 1
 287 312 l 1
 268 304 248 300 227 300 c 0
 167 300 131 357 90 400 c 1
 150 457 l 1
 173 433 193 400 227 400 c 0
 254 400 276 419 297 437 c 0
 306 445 316 453 326 460 c 1
 378 654 l 1xc0
EndSplineSet
EndChar

StartChar: uni22420338
Encoding: 114 59470 114
Width: 660
Flags: HW
HStem: 101 100<382.07 477.079> 200 100<182.921 254.664> 350 100<90 297 417 570>
LayerCount: 2
Fore
SplineSet
361 240 m 1x60
 385 219 406 201 433 201 c 0xa0
 467 201 487 234 510 258 c 1
 570 200 l 1x60
 529 158 493 101 433 101 c 0xa0
 397 101 363 115 333 135 c 1
 282 -54 l 1
 195 -30 l 1
 255 193 l 1
 246 197 237 200 227 200 c 0
 193 200 173 167 150 143 c 1
 90 200 l 1
 131 243 167 300 227 300 c 0
 246 300 264 296 281 290 c 1
 297 350 l 1
 90 350 l 1
 90 450 l 1
 323 450 l 1
 378 654 l 1
 465 630 l 1
 417 450 l 1
 570 450 l 1
 570 350 l 1
 390 350 l 1
 361 240 l 1x60
EndSplineSet
EndChar

StartChar: uni2247
Encoding: 115 8775 115
Width: 660
Flags: HW
HStem: 51 100<90 217 337 570> 250 100<90 270 390 570> 399 100<430.212 476.276> 499 100<183.483 276.549> 537 20G<498.5 530.69>
LayerCount: 2
Fore
SplineSet
391 703 m 1xd0
 478 680 l 1
 430 499 l 1xd0
 431 499 432 499 433 499 c 0
 467 499 487 533 510 557 c 1xe8
 570 499 l 1xd0
 529 456 493 399 433 399 c 0xe0
 423 399 414 400 404 402 c 1
 390 350 l 1
 570 350 l 1
 570 250 l 1
 363 250 l 1
 337 151 l 1
 570 151 l 1
 570 51 l 1
 310 51 l 1
 269 -103 l 1
 182 -80 l 1
 217 51 l 1
 90 51 l 1
 90 151 l 1
 244 151 l 1
 270 250 l 1
 90 250 l 1
 90 350 l 1
 297 350 l 1
 321 442 l 1
 313 448 305 454 297 461 c 0
 276 479 254 499 227 499 c 0
 193 499 173 465 150 441 c 1
 90 499 l 1
 131 542 167 599 227 599 c 0
 272 599 314 577 350 548 c 1
 391 703 l 1xd0
EndSplineSet
EndChar

StartChar: uni224C0338
Encoding: 116 -1 116
Width: 660
Flags: HW
HStem: 51 100<90 217 337 570> 250 100<90 270 390 570> 399 100<183.483 276.373> 537 20G<129.31 161.5>
LayerCount: 2
Fore
SplineSet
391 703 m 1
 478 680 l 1
 456 596 l 1
 503 584 534 536 570 499 c 1
 510 441 l 1
 487 465 467 499 433 499 c 0
 432 499 431 499 430 499 c 1
 390 350 l 1
 570 350 l 1
 570 250 l 1
 363 250 l 1
 337 151 l 1
 570 151 l 1
 570 51 l 1
 310 51 l 1
 269 -103 l 1
 182 -80 l 1
 217 51 l 1
 90 51 l 1
 90 151 l 1
 244 151 l 1
 270 250 l 1
 90 250 l 1
 90 350 l 1
 297 350 l 1
 317 427 l 1
 289 410 259 399 227 399 c 0
 167 399 131 456 90 499 c 1
 150 557 l 1
 173 533 193 499 227 499 c 0
 271 499 295 548 358 580 c 1
 391 703 l 1
EndSplineSet
EndChar

StartChar: uni224A0338
Encoding: 117 -1 117
Width: 660
Flags: HW
HStem: 51 100<90 217 337 570> 200 100<382.906 476.517> 300 100<183.483 277.094> 399 100<430.212 476.276> 499 100<183.483 276.549> 537 20G<498.5 530.69>
LayerCount: 2
Fore
SplineSet
391 703 m 1xa8
 478 680 l 1
 430 499 l 1xa8
 431 499 432 499 433 499 c 0
 467 499 487 533 510 557 c 1x94
 570 499 l 1x88
 529 456 493 399 433 399 c 0
 423 399 414 400 404 402 c 1
 382 322 l 1
 397 310 414 300 433 300 c 0xd0
 467 300 487 334 510 358 c 1
 570 300 l 1xa0
 529 257 493 200 433 200 c 0xc0
 406 200 379 208 355 221 c 1
 337 151 l 1
 570 151 l 1
 570 51 l 1
 310 51 l 1
 269 -103 l 1
 182 -80 l 1
 217 51 l 1
 90 51 l 1
 90 151 l 1
 244 151 l 1
 278 278 l 1
 263 290 246 300 227 300 c 0
 193 300 173 266 150 242 c 1
 90 300 l 1
 131 343 167 400 227 400 c 0
 254 400 281 392 305 379 c 1
 321 442 l 1
 313 448 305 454 297 461 c 0
 276 479 254 499 227 499 c 0
 193 499 173 465 150 441 c 1
 90 499 l 1
 131 542 167 599 227 599 c 0
 272 599 314 577 350 548 c 1
 391 703 l 1xa8
EndSplineSet
EndChar

StartChar: uni224F0338
Encoding: 118 59469 118
Width: 660
Flags: HW
HStem: 150 100<90 243 363 570> 350 100<90 202.045 457.562 570> 526 20G<298.5 333>
LayerCount: 2
Fore
SplineSet
378 654 m 1
 465 630 l 1
 432 505 l 1
 448 490 460 471 467 450 c 1
 570 450 l 1
 570 350 l 1
 390 350 l 1
 363 250 l 1
 570 250 l 1
 570 150 l 1
 337 150 l 1
 282 -54 l 1
 195 -30 l 1
 243 150 l 1
 90 150 l 1
 90 250 l 1
 270 250 l 1
 322 445 l 1
 301 441 284 422 284 400 c 2
 284 350 l 1
 90 350 l 1
 90 450 l 1
 193 450 l 1
 213 506 267 546 330 546 c 0
 336 546 343 546 349 545 c 1
 378 654 l 1
EndSplineSet
EndChar

StartChar: uni2AAE0338
Encoding: 119 -1 119
Width: 660
Flags: HW
HStem: 51 100<90 217 337 570> 250 100<90 270 390 570> 449 100<90 202.045 456.564 570> 545 100<292.14 347.619>
LayerCount: 2
Fore
SplineSet
391 703 m 1xd0
 478 680 l 1
 451 580 l 1
 457 570 463 560 467 549 c 1
 570 549 l 1
 570 449 l 1
 416 449 l 1xe0
 390 350 l 1
 570 350 l 1
 570 250 l 1
 363 250 l 1
 337 151 l 1
 570 151 l 1
 570 51 l 1
 310 51 l 1
 269 -103 l 1
 182 -80 l 1
 217 51 l 1
 90 51 l 1
 90 151 l 1
 244 151 l 1
 270 250 l 1
 90 250 l 1
 90 350 l 1
 297 350 l 1
 348 541 l 1
 342 543 336 545 330 545 c 0xd0
 305 545 284 524 284 499 c 2
 284 449 l 1
 90 449 l 1
 90 549 l 1
 193 549 l 1xe0
 213 605 267 645 330 645 c 0
 345 645 360 642 374 638 c 1
 391 703 l 1xd0
EndSplineSet
EndChar

StartChar: uni224E0338
Encoding: 120 58902 120
Width: 660
Flags: HW
HStem: 150 100<90 203.175 457.955 570> 350 100<90 202.045 456.825 570> 526 20G<298.5 333>
VStem: 376 194<161.668 250>
LayerCount: 2
Fore
SplineSet
391 703 m 1
 478 680 l 1
 431 505 l 1
 447 490 459 471 467 450 c 1
 570 450 l 1
 570 350 l 1
 390 350 l 1
 338 155 l 1
 359 159 376 178 376 200 c 2
 376 250 l 1
 570 250 l 1
 570 150 l 1
 467 150 l 1
 447 94 393 54 330 54 c 0
 324 54 317 54 311 55 c 1
 269 -103 l 1
 182 -80 l 1
 229 95 l 1
 213 110 201 129 193 150 c 1
 90 150 l 1
 90 250 l 1
 270 250 l 1
 322 445 l 1
 301 441 284 422 284 400 c 2
 284 350 l 1
 90 350 l 1
 90 450 l 1
 193 450 l 1
 213 506 267 546 330 546 c 0
 336 546 343 546 349 545 c 1
 391 703 l 1
EndSplineSet
EndChar

StartChar: uni22500338
Encoding: 121 58250 121
Width: 660
Flags: HW
HStem: 150 100<90 243 363 570> 350 100<90 297 417 570>
LayerCount: 2
Fore
SplineSet
251 599 m 0
 251 621 307 678 330 678 c 0
 345 678 362 662 376 648 c 1
 391 703 l 1
 478 680 l 1
 417 450 l 1
 570 450 l 1
 570 350 l 1
 390 350 l 1
 363 250 l 1
 570 250 l 1
 570 150 l 1
 337 150 l 1
 269 -103 l 1
 182 -80 l 1
 243 150 l 1
 90 150 l 1
 90 250 l 1
 270 250 l 1
 297 350 l 1
 90 350 l 1
 90 450 l 1
 323 450 l 1
 343 522 l 1
 339 520 334 519 330 519 c 0
 307 519 251 575 251 599 c 0
EndSplineSet
EndChar

StartChar: uni2A660338
Encoding: 122 -1 122
Width: 660
Flags: HW
HStem: 150 100<90 243 363 570> 350 100<90 297 417 570>
LayerCount: 2
Fore
SplineSet
391 703 m 1
 478 680 l 1
 417 450 l 1
 570 450 l 1
 570 350 l 1
 390 350 l 1
 363 250 l 1
 570 250 l 1
 570 150 l 1
 337 150 l 1
 317 78 l 1
 321 80 326 81 330 81 c 0
 346 81 364 63 378 49 c 0
 392 35 410 17 410 1 c 0
 410 -14 392 -32 378 -46 c 0
 364 -60 346 -78 330 -78 c 0
 315 -78 298 -62 284 -48 c 1
 269 -103 l 1
 182 -80 l 1
 243 150 l 1
 90 150 l 1
 90 250 l 1
 270 250 l 1
 297 350 l 1
 90 350 l 1
 90 450 l 1
 323 450 l 1
 391 703 l 1
EndSplineSet
EndChar

StartChar: uni22510338
Encoding: 123 -1 123
Width: 660
Flags: HW
HStem: 150 100<90 243 363 570> 350 100<90 297 417 570>
LayerCount: 2
Fore
SplineSet
251 599 m 0
 251 621 307 678 330 678 c 0
 345 678 362 662 376 648 c 1
 391 703 l 1
 478 680 l 1
 417 450 l 1
 570 450 l 1
 570 350 l 1
 390 350 l 1
 363 250 l 1
 570 250 l 1
 570 150 l 1
 337 150 l 1
 317 78 l 1
 321 80 326 81 330 81 c 0
 346 81 364 63 378 49 c 0
 392 35 410 17 410 1 c 0
 410 -14 392 -32 378 -46 c 0
 364 -60 346 -78 330 -78 c 0
 315 -78 298 -62 284 -48 c 1
 269 -103 l 1
 182 -80 l 1
 243 150 l 1
 90 150 l 1
 90 250 l 1
 270 250 l 1
 297 350 l 1
 90 350 l 1
 90 450 l 1
 323 450 l 1
 343 522 l 1
 339 520 334 519 330 519 c 0
 307 519 251 575 251 599 c 0
EndSplineSet
EndChar

StartChar: uni22520338
Encoding: 124 -1 124
Width: 660
Flags: HW
HStem: -78 159<453.426 527.587> 150 100<90 243 363 570> 350 100<90 297 417 570> 519 159<132.426 206.587>
VStem: 90 159<561.426 635.587> 411 159<-35.5872 38.5743>
LayerCount: 2
Fore
SplineSet
249 599 m 0
 249 583 231 565 217 551 c 0
 203 537 185 519 170 519 c 0
 154 519 136 537 122 551 c 0
 108 565 90 583 90 599 c 0
 90 614 108 632 122 646 c 0
 136 660 154 678 170 678 c 0
 185 678 203 660 217 646 c 0
 231 632 249 614 249 599 c 0
570 1 m 0
 570 -14 552 -32 538 -46 c 0
 524 -60 506 -78 491 -78 c 0
 475 -78 457 -60 443 -46 c 0
 429 -32 411 -14 411 1 c 0
 411 17 429 35 443 49 c 0
 457 63 475 81 491 81 c 0
 506 81 524 63 538 49 c 0
 552 35 570 17 570 1 c 0
391 703 m 1
 478 680 l 1
 417 450 l 1
 570 450 l 1
 570 350 l 1
 390 350 l 1
 363 250 l 1
 570 250 l 1
 570 150 l 1
 337 150 l 1
 269 -103 l 1
 182 -80 l 1
 243 150 l 1
 90 150 l 1
 90 250 l 1
 270 250 l 1
 297 350 l 1
 90 350 l 1
 90 450 l 1
 323 450 l 1
 391 703 l 1
EndSplineSet
EndChar

StartChar: uni22530338
Encoding: 125 -1 125
Width: 660
Flags: HW
HStem: 150 100<90 243 363 570> 350 100<90 297 417 570>
LayerCount: 2
Fore
SplineSet
391 703 m 1
 478 680 l 1
 476 674 l 1
 481 677 486 678 491 678 c 0
 506 678 524 660 538 646 c 0
 552 632 570 614 570 599 c 0
 570 583 552 565 538 551 c 0
 524 537 506 519 491 519 c 0
 475 519 457 537 443 551 c 1
 417 450 l 1
 570 450 l 1
 570 350 l 1
 390 350 l 1
 363 250 l 1
 570 250 l 1
 570 150 l 1
 337 150 l 1
 269 -103 l 1
 182 -80 l 1
 184 -74 l 1
 179 -76 174 -78 170 -78 c 0
 154 -78 136 -60 122 -46 c 0
 108 -32 90 -14 90 1 c 0
 90 17 108 35 122 49 c 0
 136 63 154 81 170 81 c 0
 185 81 203 63 217 49 c 1
 243 150 l 1
 90 150 l 1
 90 250 l 1
 270 250 l 1
 297 350 l 1
 90 350 l 1
 90 450 l 1
 323 450 l 1
 391 703 l 1
EndSplineSet
EndChar

StartChar: uni23230338
Encoding: 126 -1 126
Width: 660
Flags: HW
HStem: -4 21G<219.348 300.366>
LayerCount: 2
Fore
SplineSet
365 604 m 1
 452 581 l 1
 378 307 l 1
 423 320 465 349 498 384 c 1
 570 315 l 1
 511 253 434 207 350 201 c 1
 295 -4 l 1
 208 19 l 1
 259 209 l 1
 195 226 137 266 90 315 c 1
 162 384 l 1
 196 348 238 318 285 306 c 1
 365 604 l 1
EndSplineSet
EndChar

StartChar: uni23220338
Encoding: 127 -1 127
Width: 660
Flags: HW
HStem: -4 21G<219.348 300.369>
LayerCount: 2
Fore
SplineSet
365 604 m 1
 452 581 l 1
 401 391 l 1
 465 374 523 334 570 285 c 1
 498 216 l 1
 464 252 422 282 375 294 c 1
 295 -4 l 1
 208 19 l 1
 282 293 l 1
 237 280 195 251 162 216 c 1
 90 285 l 1
 149 347 226 393 310 399 c 1
 365 604 l 1
EndSplineSet
EndChar

StartChar: uni226D
Encoding: 128 8813 128
Width: 660
Flags: HW
HStem: 167 97<367 416.565> 336 97<243.435 293>
LayerCount: 2
Fore
SplineSet
391 703 m 1
 478 680 l 1
 418 456 l 1
 448 471 475 493 498 517 c 1
 570 448 l 1
 519 395 457 354 387 339 c 1
 367 264 l 1
 444 253 515 210 570 152 c 1
 498 83 l 1
 456 127 402 163 341 167 c 1
 269 -103 l 1
 182 -80 l 1
 242 144 l 1
 212 129 185 107 162 83 c 1
 90 152 l 1
 141 205 203 246 273 261 c 1
 293 336 l 1
 216 347 145 390 90 448 c 1
 162 517 l 1
 204 473 258 437 319 433 c 1
 391 703 l 1
EndSplineSet
EndChar

StartChar: uni20500338
Encoding: 129 -1 129
Width: 660
Flags: HW
LayerCount: 2
Fore
SplineSet
391 703 m 1
 478 680 l 1
 433 512 l 1
 484 492 531 458 570 418 c 1
 498 348 l 1
 472 375 441 400 407 415 c 1
 341 168 l 1
 401 172 456 208 498 252 c 1
 570 182 l 1
 506 116 422 68 330 68 c 0
 325 68 320 68 315 68 c 1
 269 -103 l 1
 182 -80 l 1
 227 88 l 1
 176 108 129 142 90 182 c 1
 162 252 l 1
 188 225 219 200 253 185 c 1
 319 432 l 1
 259 428 204 392 162 348 c 1
 90 418 l 1
 154 484 238 532 330 532 c 0
 335 532 340 532 345 532 c 1
 391 703 l 1
EndSplineSet
EndChar

StartChar: sym020_uni0338
Encoding: 130 -1 130
Width: 660
Flags: HW
HStem: 51 100<90 217 337 570> 250 100<90 270 390 570>
LayerCount: 2
Fore
SplineSet
391 703 m 1
 478 680 l 1
 439 534 l 1
 460 548 480 564 498 583 c 1
 570 514 l 1
 524 466 468 428 406 410 c 1
 390 350 l 1
 570 350 l 1
 570 250 l 1
 363 250 l 1
 337 151 l 1
 570 151 l 1
 570 51 l 1
 310 51 l 1
 269 -103 l 1
 182 -80 l 1
 217 51 l 1
 90 51 l 1
 90 151 l 1
 244 151 l 1
 270 250 l 1
 90 250 l 1
 90 350 l 1
 297 350 l 1
 310 400 l 1
 226 406 149 452 90 514 c 1
 162 583 l 1
 207 536 265 499 330 499 c 0
 332 499 335 499 337 499 c 1
 391 703 l 1
EndSplineSet
EndChar

StartChar: uni22580338
Encoding: 131 -1 131
Width: 660
Flags: HW
HStem: 51 100<90 217 337 570> 250 100<90 270 390 570> 499 100<246.46 336.703>
LayerCount: 2
Fore
SplineSet
391 703 m 1
 478 680 l 1
 449 572 l 1
 494 551 535 521 570 484 c 1
 498 415 l 1
 476 438 451 459 423 474 c 1
 390 350 l 1
 570 350 l 1
 570 250 l 1
 363 250 l 1
 337 151 l 1
 570 151 l 1
 570 51 l 1
 310 51 l 1
 269 -103 l 1
 182 -80 l 1
 217 51 l 1
 90 51 l 1
 90 151 l 1
 244 151 l 1
 270 250 l 1
 90 250 l 1
 90 350 l 1
 297 350 l 1
 337 499 l 1
 335 499 332 499 330 499 c 0
 265 499 207 462 162 415 c 1
 90 484 l 1
 154 551 238 599 330 599 c 0
 341 599 352 598 363 597 c 1
 391 703 l 1
EndSplineSet
EndChar

StartChar: uni22560338
Encoding: 132 -1 132
Width: 660
Flags: HW
HStem: 150 100<90 220 440 570> 350 100<90 220 440 570>
LayerCount: 2
Fore
SplineSet
288 316 m 1
 287 314 286 312 286 310 c 1
 288 316 l 1
372 284 m 1
 373 286 374 288 374 290 c 1
 372 284 l 1
378 654 m 1
 465 630 l 1
 417 450 l 1
 570 450 l 1
 570 350 l 1
 440 350 l 1
 447 334 450 317 450 300 c 0
 450 283 447 266 440 250 c 1
 570 250 l 1
 570 150 l 1
 337 150 l 1
 282 -54 l 1
 195 -30 l 1
 243 150 l 1
 90 150 l 1
 90 250 l 1
 220 250 l 1
 213 266 210 283 210 300 c 0
 210 317 213 334 220 350 c 1
 90 350 l 1
 90 450 l 1
 323 450 l 1
 378 654 l 1
EndSplineSet
EndChar

StartChar: uni22570338
Encoding: 133 -1 133
Width: 660
Flags: HW
HStem: 150 100<90 216 337 570> 350 100<90 270 390 570> 694 75<292.289 358.774>
VStem: 210 75<610.148 686.126>
LayerCount: 2
Fore
SplineSet
285 648 m 0
 285 619 308 603 330 603 c 0
 333 603 335 604 338 604 c 1
 359 683 l 1
 351 690 341 694 330 694 c 0
 309 694 285 677 285 648 c 0
210 648 m 0
 210 718 267 769 330 769 c 0
 347 769 365 765 380 758 c 1
 405 853 l 1
 492 829 l 1
 449 667 l 1
 450 661 450 654 450 648 c 0
 450 620 441 594 423 572 c 1
 390 450 l 1
 570 450 l 1
 570 350 l 1
 363 350 l 1
 337 250 l 1
 570 250 l 1
 570 150 l 1
 310 150 l 1
 255 -54 l 1
 168 -30 l 1
 216 150 l 1
 90 150 l 1
 90 250 l 1
 243 250 l 1
 270 350 l 1
 90 350 l 1
 90 450 l 1
 297 450 l 1
 318 529 l 1
 259 535 210 583 210 648 c 0
EndSplineSet
EndChar

StartChar: uni22590338
Encoding: 134 -1 134
Width: 660
Flags: HW
HStem: 150 100<90 216 337 570> 350 100<90 270 390 570>
LayerCount: 2
Fore
SplineSet
405 853 m 1
 492 829 l 1
 451 677 l 1
 543 562 l 1
 465 499 l 1
 419 557 l 1
 390 450 l 1
 570 450 l 1
 570 350 l 1
 363 350 l 1
 337 250 l 1
 570 250 l 1
 570 150 l 1
 310 150 l 1
 255 -54 l 1
 168 -30 l 1
 216 150 l 1
 90 150 l 1
 90 250 l 1
 243 250 l 1
 270 350 l 1
 90 350 l 1
 90 450 l 1
 297 450 l 1
 349 644 l 1
 330 668 l 1
 195 499 l 1
 117 562 l 1
 306 798 l 1
 354 798 l 1
 381 764 l 1
 405 853 l 1
EndSplineSet
EndChar

StartChar: uni225A0338
Encoding: 135 -1 135
Width: 660
Flags: HW
HStem: 150 100<90 216 337 570> 350 100<90 270 390 570>
LayerCount: 2
Fore
SplineSet
405 853 m 1
 492 829 l 1
 480 786 l 1
 543 735 l 1
 428 592 l 1
 390 450 l 1
 570 450 l 1
 570 350 l 1
 363 350 l 1
 337 250 l 1
 570 250 l 1
 570 150 l 1
 310 150 l 1
 255 -54 l 1
 168 -30 l 1
 216 150 l 1
 90 150 l 1
 90 250 l 1
 243 250 l 1
 270 350 l 1
 90 350 l 1
 90 450 l 1
 297 450 l 1
 310 499 l 1
 306 499 l 1
 117 735 l 1
 195 798 l 1
 330 629 l 1
 352 657 l 1
 405 853 l 1
EndSplineSet
EndChar

StartChar: uni225B0338
Encoding: 136 -1 136
Width: 660
Flags: HW
HStem: 150 100<90 216 337 570> 350 100<90 270 390 570>
LayerCount: 2
Fore
SplineSet
405 853 m 1
 492 829 l 1
 460 711 l 1
 520 710 l 1
 445 653 l 1
 422 569 l 1
 447 487 l 1
 408 515 l 1
 390 450 l 1
 570 450 l 1
 570 350 l 1
 363 350 l 1
 337 250 l 1
 570 250 l 1
 570 150 l 1
 310 150 l 1
 255 -54 l 1
 168 -30 l 1
 216 150 l 1
 90 150 l 1
 90 250 l 1
 243 250 l 1
 270 350 l 1
 90 350 l 1
 90 450 l 1
 297 450 l 1
 328 568 l 1
 213 487 l 1
 254 624 l 1
 140 710 l 1
 283 713 l 1
 330 848 l 1
 372 729 l 1
 405 853 l 1
EndSplineSet
EndChar

StartChar: uni225C0338
Encoding: 137 -1 137
Width: 660
Flags: HW
HStem: 150 100<90 216 337 570> 350 100<90 270 390 570> 536 75<266 320>
LayerCount: 2
Fore
SplineSet
330 723 m 1
 266 611 l 1
 340 611 l 1
 357 675 l 1
 330 723 l 1
405 853 m 1
 492 829 l 1
 449 667 l 1
 524 536 l 1
 413 536 l 1
 390 450 l 1
 570 450 l 1
 570 350 l 1
 363 350 l 1
 337 250 l 1
 570 250 l 1
 570 150 l 1
 310 150 l 1
 255 -54 l 1
 168 -30 l 1
 216 150 l 1
 90 150 l 1
 90 250 l 1
 243 250 l 1
 270 350 l 1
 90 350 l 1
 90 450 l 1
 297 450 l 1
 320 536 l 1
 136 536 l 1
 330 873 l 1
 385 778 l 1
 405 853 l 1
EndSplineSet
EndChar

StartChar: notelement
Encoding: 138 8713 138
Width: 660
Flags: HW
HStem: 1 100<323 570> 250 100<194 270 390 570> 499 100<272.673 337 457 570> 733 20G<399.675 480.652>
LayerCount: 2
Fore
SplineSet
297 350 m 1
 337 499 l 1
 260 498 209 431 194 350 c 1
 297 350 l 1
270 250 m 1
 194 250 l 1
 201 210 218 173 242 146 c 1
 270 250 l 1
405 753 m 1
 492 730 l 1
 457 599 l 1
 570 599 l 1
 570 499 l 1
 430 499 l 1
 390 350 l 1
 570 350 l 1
 570 250 l 1
 363 250 l 1
 323 102 l 1
 328 101 333 101 338 101 c 2
 570 101 l 1
 570 1 l 1
 338 1 l 2
 324 1 310 3 297 5 c 1
 255 -153 l 1
 168 -130 l 1
 214 40 l 1
 137 93 90 193 90 300 c 0
 90 457 191 599 338 599 c 2
 364 599 l 1
 405 753 l 1
EndSplineSet
EndChar

StartChar: uni220C
Encoding: 139 8716 139
Width: 660
Flags: HW
HStem: 1 100<90 203 323 387.327> 250 100<90 270 390 466> 499 100<90 337> 733 20G<399.684 480.652>
LayerCount: 2
Fore
SplineSet
363 250 m 1
 323 101 l 1
 400 102 451 169 466 250 c 1
 363 250 l 1
390 350 m 1
 466 350 l 1
 459 390 442 427 418 454 c 1
 390 350 l 1
405 753 m 1
 492 730 l 1
 446 560 l 1
 523 507 570 407 570 300 c 0
 570 143 469 1 322 1 c 2
 296 1 l 1
 255 -153 l 1
 168 -130 l 1
 203 1 l 1
 90 1 l 1
 90 101 l 1
 230 101 l 1
 270 250 l 1
 90 250 l 1
 90 350 l 1
 297 350 l 1
 337 498 l 1
 332 499 327 499 322 499 c 2
 90 499 l 1
 90 599 l 1
 322 599 l 2
 336 599 350 597 363 595 c 1
 405 753 l 1
EndSplineSet
EndChar

StartChar: uni226E
Encoding: 140 8814 140
Width: 660
Flags: HW
LayerCount: 2
Fore
SplineSet
278 278 m 1
 291 330 l 1
 240 300 l 1
 278 278 l 1
391 703 m 1
 478 680 l 1
 438 531 l 1
 520 578 l 1
 570 491 l 1
 402 393 l 1
 358 232 l 1
 570 109 l 1
 520 22 l 1
 332 131 l 1
 269 -103 l 1
 182 -80 l 1
 251 178 l 1
 90 271 l 1
 90 329 l 1
 328 467 l 1
 391 703 l 1
EndSplineSet
EndChar

StartChar: uni226F
Encoding: 141 8815 141
Width: 660
Flags: HW
LayerCount: 2
Fore
SplineSet
382 322 m 1
 369 270 l 1
 420 300 l 1
 382 322 l 1
391 703 m 1
 478 680 l 1
 409 422 l 1
 570 329 l 1
 570 271 l 1
 332 133 l 1
 269 -103 l 1
 182 -80 l 1
 222 69 l 1
 140 22 l 1
 90 109 l 1
 258 207 l 1
 302 368 l 1
 90 491 l 1
 140 578 l 1
 328 469 l 1
 391 703 l 1
EndSplineSet
EndChar

StartChar: uni2270
Encoding: 142 8816 142
Width: 660
Flags: HW
HStem: -3 100<90 202 323 570>
LayerCount: 2
Fore
SplineSet
297 352 m 1
 305 383 l 1
 266 366 l 1
 297 352 l 1
401 741 m 1
 488 717 l 1
 444 553 l 1
 530 590 l 1
 570 498 l 1
 411 429 l 1
 381 316 l 1
 570 234 l 1
 530 143 l 1
 355 219 l 1
 323 97 l 1
 570 97 l 1
 570 -3 l 1
 296 -3 l 1
 259 -141 l 1
 172 -117 l 1
 202 -3 l 1
 90 -3 l 1
 90 97 l 1
 229 97 l 1
 271 255 l 1
 90 334 l 1
 90 399 l 1
 339 507 l 1
 401 741 l 1
EndSplineSet
EndChar

StartChar: uni2271
Encoding: 143 8817 143
Width: 660
Flags: HW
HStem: -3 100<90 202 323 570>
LayerCount: 2
Fore
SplineSet
401 741 m 1
 488 717 l 1
 420 464 l 1
 570 399 l 1
 570 334 l 1
 362 244 l 1
 323 97 l 1
 570 97 l 1
 570 -3 l 1
 296 -3 l 1
 259 -141 l 1
 172 -117 l 1
 202 -3 l 1
 90 -3 l 1
 90 97 l 1
 229 97 l 1
 256 198 l 1
 130 143 l 1
 90 234 l 1
 289 320 l 1
 311 402 l 1
 90 498 l 1
 130 590 l 1
 337 500 l 1
 401 741 l 1
EndSplineSet
EndChar

StartChar: uni2A7D0338
Encoding: 144 58023 144
Width: 660
Flags: HW
LayerCount: 2
Fore
SplineSet
305 383 m 1
 316 422 l 1
 266 400 l 1
 305 383 l 1
401 741 m 1
 488 717 l 1
 454 590 l 1
 530 623 l 1
 570 532 l 1
 421 467 l 1
 389 346 l 1
 570 267 l 1
 530 176 l 1
 363 249 l 1
 341 167 l 1
 570 68 l 1
 530 -23 l 1
 315 70 l 1
 259 -141 l 1
 172 -117 l 1
 232 107 l 1
 90 168 l 1
 130 259 l 1
 258 204 l 1
 279 285 l 1
 90 367 l 1
 90 432 l 1
 348 544 l 1
 401 741 l 1
EndSplineSet
EndChar

StartChar: uni2A7E0338
Encoding: 145 58022 145
Width: 660
Flags: HW
LayerCount: 2
Fore
SplineSet
401 741 m 1
 488 717 l 1
 428 493 l 1
 570 432 l 1
 570 367 l 1
 372 281 l 1
 344 178 l 1
 530 259 l 1
 570 168 l 1
 312 56 l 1
 259 -141 l 1
 172 -117 l 1
 206 10 l 1
 130 -23 l 1
 90 68 l 1
 239 133 l 1
 266 235 l 1
 130 176 l 1
 90 267 l 1
 299 358 l 1
 319 433 l 1
 90 532 l 1
 130 623 l 1
 345 530 l 1
 401 741 l 1
EndSplineSet
EndChar

StartChar: uni22660338
Encoding: 146 58024 146
Width: 660
Flags: HW
HStem: -102 100<90 176 296 570> 97 100<90 229 349 570>
LayerCount: 2
Fore
SplineSet
321 442 m 1
 336 496 l 1
 266 466 l 1
 321 442 l 1
419 807 m 1
 506 784 l 1
 474 666 l 1
 530 690 l 1
 570 598 l 1
 441 542 l 1
 405 406 l 1
 570 334 l 1
 530 242 l 1
 379 308 l 1
 349 197 l 1
 570 197 l 1
 570 97 l 1
 322 97 l 1
 296 -2 l 1
 570 -2 l 1
 570 -102 l 1
 269 -102 l 1
 241 -207 l 1
 154 -184 l 1
 176 -102 l 1
 90 -102 l 1
 90 -2 l 1
 203 -2 l 1
 229 97 l 1
 90 97 l 1
 90 197 l 1
 256 197 l 1
 295 344 l 1
 90 433 l 1
 90 499 l 1
 369 620 l 1
 419 807 l 1
EndSplineSet
EndChar

StartChar: uni22670338
Encoding: 147 58021 147
Width: 660
Flags: HW
HStem: -102 100<90 176 296 570> 97 100<90 229 349 570>
LayerCount: 2
Fore
SplineSet
419 807 m 1
 506 784 l 1
 444 554 l 1
 570 499 l 1
 570 433 l 1
 391 355 l 1
 349 197 l 1
 570 197 l 1
 570 97 l 1
 322 97 l 1
 296 -2 l 1
 570 -2 l 1
 570 -102 l 1
 269 -102 l 1
 241 -207 l 1
 154 -184 l 1
 176 -102 l 1
 90 -102 l 1
 90 -2 l 1
 203 -2 l 1
 229 97 l 1
 90 97 l 1
 90 197 l 1
 256 197 l 1
 286 310 l 1
 130 242 l 1
 90 334 l 1
 319 433 l 1
 335 492 l 1
 90 598 l 1
 130 690 l 1
 361 590 l 1
 419 807 l 1
EndSplineSet
EndChar

StartChar: uni2274
Encoding: 148 8820 148
Width: 660
Flags: HW
HStem: -36 100<382.114 477.079>
LayerCount: 2
Fore
SplineSet
305 383 m 1
 316 422 l 1
 266 400 l 1
 305 383 l 1
401 741 m 1
 488 717 l 1
 454 590 l 1
 530 623 l 1
 570 532 l 1
 421 467 l 1
 389 346 l 1
 570 267 l 1
 530 176 l 1
 363 249 l 1
 330 126 l 1
 341 118 353 110 363 101 c 0
 384 83 406 64 433 64 c 0
 467 64 487 97 510 122 c 1
 570 64 l 1
 529 21 493 -36 433 -36 c 0
 384 -36 340 -11 302 21 c 1
 259 -141 l 1
 172 -117 l 1
 220 63 l 1
 190 59 171 28 150 6 c 1
 90 64 l 1
 131 106 167 163 227 163 c 0
 234 163 240 163 246 162 c 1
 279 285 l 1
 90 367 l 1
 90 432 l 1
 348 544 l 1
 401 741 l 1
EndSplineSet
EndChar

StartChar: uni2275
Encoding: 149 8821 149
Width: 660
Flags: HW
HStem: -36 100<382.114 477.079>
LayerCount: 2
Fore
SplineSet
401 741 m 1
 488 717 l 1
 428 493 l 1
 570 432 l 1
 570 367 l 1
 372 281 l 1
 330 126 l 1
 341 118 353 110 363 101 c 0
 384 83 406 64 433 64 c 0
 467 64 487 97 510 122 c 1
 570 64 l 1
 529 21 493 -36 433 -36 c 0
 384 -36 340 -11 302 21 c 1
 259 -141 l 1
 172 -117 l 1
 220 63 l 1
 190 59 171 28 150 6 c 1
 90 64 l 1
 131 106 167 163 227 163 c 0
 234 163 240 163 246 162 c 1
 266 235 l 1
 130 176 l 1
 90 267 l 1
 299 358 l 1
 319 433 l 1
 90 532 l 1
 130 623 l 1
 345 530 l 1
 401 741 l 1
EndSplineSet
EndChar

StartChar: uni2A850338
Encoding: 150 -1 150
Width: 660
Flags: HW
HStem: -136 100<383.878 476.517> 63 100<382.908 476.517> 163 100<182.921 245.647>
LayerCount: 2
Fore
SplineSet
329 471 m 1x80
 346 534 l 1
 266 499 l 1
 329 471 l 1x80
307 42 m 1
 367 10 390 -36 433 -36 c 0
 467 -36 487 -2 510 22 c 1
 570 -36 l 1
 529 -79 493 -136 433 -136 c 0
 382 -136 336 -107 297 -74 c 0
 291 -69 286 -64 280 -59 c 1
 245 -190 l 1
 158 -167 l 1
 189 -51 l 1
 175 -63 163 -80 150 -94 c 1
 90 -36 l 1
 129 5 164 60 220 64 c 1
 246 160 l 1
 240 162 234 163 227 163 c 0
 193 163 173 130 150 105 c 1
 90 163 l 1
 131 206 167 263 227 263 c 0xa0
 242 263 258 260 272 256 c 1
 303 373 l 1
 90 466 l 1
 90 532 l 1
 379 658 l 1
 415 790 l 1
 502 767 l 1
 485 703 l 1
 530 723 l 1
 570 631 l 1
 452 580 l 1
 413 435 l 1
 570 367 l 1
 530 275 l 1
 387 337 l 1
 352 210 l 1
 356 207 360 204 363 201 c 0
 384 183 406 163 433 163 c 0xc0
 467 163 487 197 510 221 c 1
 570 163 l 1xa0
 529 120 493 63 433 63 c 0xc0
 393 63 357 81 324 104 c 1
 307 42 l 1
EndSplineSet
EndChar

StartChar: uni2A860338
Encoding: 151 -1 151
Width: 660
Flags: HW
HStem: -136 100<383.878 476.517> 63 100<382.908 476.517> 163 100<182.921 245.647>
LayerCount: 2
Fore
SplineSet
307 42 m 1xc0
 367 10 390 -36 433 -36 c 0
 467 -36 487 -2 510 22 c 1
 570 -36 l 1
 529 -79 493 -136 433 -136 c 0
 382 -136 336 -107 297 -74 c 0
 291 -69 286 -64 280 -59 c 1
 245 -190 l 1
 158 -167 l 1
 189 -51 l 1
 175 -63 163 -80 150 -94 c 1
 90 -36 l 1
 129 5 164 60 220 64 c 1
 246 160 l 1
 240 162 234 163 227 163 c 0
 193 163 173 130 150 105 c 1
 90 163 l 1
 131 206 167 263 227 263 c 0xa0
 242 263 258 260 272 256 c 1
 296 347 l 1
 130 275 l 1
 90 367 l 1
 329 471 l 1
 343 521 l 1
 90 631 l 1
 130 723 l 1
 369 619 l 1
 415 790 l 1
 502 767 l 1
 453 583 l 1
 570 532 l 1
 570 466 l 1
 402 393 l 1
 352 210 l 1
 356 207 360 204 363 201 c 0
 384 183 406 163 433 163 c 0xc0
 467 163 487 197 510 221 c 1
 570 163 l 1xa0
 529 120 493 63 433 63 c 0
 393 63 357 81 324 104 c 1
 307 42 l 1xc0
EndSplineSet
EndChar

StartChar: uni2278
Encoding: 152 8824 152
Width: 660
Flags: HW
HStem: 697 20G<484.286 538.696>
LayerCount: 2
Fore
SplineSet
328 466 m 1
 344 527 l 1
 266 493 l 1
 328 466 l 1
332 134 m 1
 316 73 l 1
 394 107 l 1
 332 134 l 1
426 834 m 1
 513 811 l 1
 482 696 l 1
 530 717 l 1
 570 625 l 1
 449 573 l 1
 411 430 l 1
 570 361 l 1
 530 269 l 1
 385 332 l 1
 358 232 l 1
 570 140 l 1
 570 74 l 1
 283 -51 l 1
 234 -234 l 1
 147 -211 l 1
 178 -96 l 1
 130 -117 l 1
 90 -25 l 1
 211 27 l 1
 249 170 l 1
 90 239 l 1
 130 331 l 1
 275 268 l 1
 302 368 l 1
 90 460 l 1
 90 526 l 1
 377 651 l 1
 426 834 l 1
EndSplineSet
EndChar

StartChar: uni2279
Encoding: 153 8825 153
Width: 660
Flags: HW
HStem: 697 20G<121.304 176.019>
LayerCount: 2
Fore
SplineSet
413 784 m 1
 500 761 l 1
 451 578 l 1
 570 526 l 1
 570 460 l 1
 400 386 l 1
 366 260 l 1
 530 331 l 1
 570 239 l 1
 333 136 l 1
 319 84 l 1
 570 -25 l 1
 530 -117 l 1
 293 -14 l 1
 247 -184 l 1
 160 -161 l 1
 209 22 l 1
 90 74 l 1
 90 140 l 1
 260 214 l 1
 294 340 l 1
 130 269 l 1
 90 361 l 1
 327 464 l 1
 341 516 l 1
 90 625 l 1
 130 717 l 1
 367 614 l 1
 413 784 l 1
EndSplineSet
EndChar

StartChar: uni22DA0338
Encoding: 154 -1 154
Width: 660
Flags: HW
HStem: 250 100<90 270 390 570>
LayerCount: 2
Fore
SplineSet
358 579 m 1
 382 669 l 1
 266 619 l 1
 358 579 l 1
302 21 m 1
 278 -69 l 1
 394 -19 l 1
 302 21 l 1
460 960 m 1
 547 937 l 1
 521 839 l 1
 530 843 l 1
 570 751 l 1
 488 715 l 1
 442 543 l 1
 570 487 l 1
 530 395 l 1
 415 445 l 1
 390 350 l 1
 570 350 l 1
 570 250 l 1
 363 250 l 1
 328 119 l 1
 570 14 l 1
 570 -52 l 1
 245 -193 l 1
 200 -360 l 1
 113 -337 l 1
 139 -239 l 1
 130 -243 l 1
 90 -151 l 1
 172 -115 l 1
 218 57 l 1
 90 113 l 1
 130 205 l 1
 245 155 l 1
 270 250 l 1
 90 250 l 1
 90 350 l 1
 297 350 l 1
 332 481 l 1
 90 586 l 1
 90 652 l 1
 415 793 l 1
 460 960 l 1
EndSplineSet
EndChar

StartChar: uni22DB0338
Encoding: 155 -1 155
Width: 660
Flags: HW
HStem: 250 100<90 270 390 570>
LayerCount: 2
Fore
SplineSet
434 861 m 1
 521 838 l 1
 481 690 l 1
 570 652 l 1
 570 586 l 1
 438 529 l 1
 390 350 l 1
 570 350 l 1
 570 250 l 1
 363 250 l 1
 327 117 l 1
 530 205 l 1
 570 113 l 1
 294 -7 l 1
 288 -29 l 1
 570 -151 l 1
 530 -243 l 1
 262 -127 l 1
 226 -261 l 1
 139 -238 l 1
 179 -90 l 1
 90 -52 l 1
 90 14 l 1
 222 71 l 1
 270 250 l 1
 90 250 l 1
 90 350 l 1
 297 350 l 1
 333 483 l 1
 130 395 l 1
 90 487 l 1
 366 607 l 1
 372 629 l 1
 90 751 l 1
 130 843 l 1
 398 727 l 1
 434 861 l 1
EndSplineSet
EndChar

StartChar: uni2A8B0338
Encoding: 156 -1 156
Width: 660
Flags: HW
HStem: 150 100<90 243 363 570> 350 100<90 297 417 570>
LayerCount: 2
Fore
SplineSet
382 669 m 1
 413 783 l 1
 266 719 l 1
 382 669 l 1
278 -69 m 1
 247 -183 l 1
 394 -119 l 1
 278 -69 l 1
487 1060 m 1
 574 1037 l 1
 542 916 l 1
 570 851 l 1
 518 828 l 1
 466 632 l 1
 570 587 l 1
 530 495 l 1
 439 534 l 1
 417 450 l 1
 570 450 l 1
 570 350 l 1
 390 350 l 1
 363 250 l 1
 570 250 l 1
 570 150 l 1
 336 150 l 1
 304 29 l 1
 570 -86 l 1
 570 -152 l 1
 214 -306 l 1
 173 -460 l 1
 86 -437 l 1
 118 -316 l 1
 90 -251 l 1
 142 -228 l 1
 194 -32 l 1
 90 13 l 1
 130 105 l 1
 221 66 l 1
 243 150 l 1
 90 150 l 1
 90 250 l 1
 270 250 l 1
 297 350 l 1
 90 350 l 1
 90 450 l 1
 324 450 l 1
 356 571 l 1
 90 686 l 1
 90 752 l 1
 446 906 l 1
 487 1060 l 1
EndSplineSet
EndChar

StartChar: uni2A8C0338
Encoding: 157 -1 157
Width: 660
Flags: HW
HStem: 150 100<90 243 363 570> 350 100<90 297 417 570>
LayerCount: 2
Fore
SplineSet
460 960 m 1
 547 937 l 1
 505 780 l 1
 570 752 l 1
 570 686 l 1
 468 642 l 1
 417 450 l 1
 570 450 l 1
 570 350 l 1
 390 350 l 1
 363 250 l 1
 570 250 l 1
 570 150 l 1
 336 150 l 1
 297 4 l 1
 530 105 l 1
 570 13 l 1
 266 -119 l 1
 570 -251 l 1
 530 -343 l 1
 238 -216 l 1
 200 -360 l 1
 113 -337 l 1
 155 -180 l 1
 90 -152 l 1
 90 -86 l 1
 192 -42 l 1
 243 150 l 1
 90 150 l 1
 90 250 l 1
 270 250 l 1
 297 350 l 1
 90 350 l 1
 90 450 l 1
 324 450 l 1
 363 596 l 1
 130 495 l 1
 90 587 l 1
 394 719 l 1
 90 851 l 1
 130 943 l 1
 422 816 l 1
 460 960 l 1
EndSplineSet
EndChar

StartChar: uni22DA0338.alt
Encoding: 158 -1 158
Width: 660
Flags: HW
LayerCount: 2
Fore
SplineSet
352 555 m 1
 374 639 l 1
 266 592 l 1
 352 555 l 1
308 45 m 1
 286 -39 l 1
 394 8 l 1
 308 45 l 1
453 933 m 1
 540 910 l 1
 513 809 l 1
 530 816 l 1
 570 724 l 1
 480 685 l 1
 435 519 l 1
 570 460 l 1
 530 368 l 1
 409 421 l 1
 385 330 l 1
 570 250 l 1
 530 159 l 1
 359 233 l 1
 335 143 l 1
 570 41 l 1
 570 -25 l 1
 253 -163 l 1
 207 -333 l 1
 120 -310 l 1
 147 -209 l 1
 130 -216 l 1
 90 -124 l 1
 180 -85 l 1
 225 81 l 1
 90 140 l 1
 130 232 l 1
 251 179 l 1
 275 270 l 1
 90 350 l 1
 130 441 l 1
 301 367 l 1
 325 457 l 1
 90 559 l 1
 90 625 l 1
 407 763 l 1
 453 933 l 1
EndSplineSet
EndChar

StartChar: uni22DB0338.alt
Encoding: 159 -1 159
Width: 660
Flags: HW
LayerCount: 2
Fore
SplineSet
426 834 m 1
 513 811 l 1
 474 666 l 1
 570 625 l 1
 570 559 l 1
 429 498 l 1
 399 384 l 1
 530 441 l 1
 570 350 l 1
 366 262 l 1
 336 148 l 1
 530 232 l 1
 570 140 l 1
 303 24 l 1
 295 -5 l 1
 570 -124 l 1
 530 -216 l 1
 269 -103 l 1
 234 -234 l 1
 147 -211 l 1
 186 -66 l 1
 90 -25 l 1
 90 41 l 1
 231 102 l 1
 261 216 l 1
 130 159 l 1
 90 250 l 1
 294 338 l 1
 324 452 l 1
 130 368 l 1
 90 460 l 1
 357 576 l 1
 365 605 l 1
 90 724 l 1
 130 816 l 1
 391 703 l 1
 426 834 l 1
EndSplineSet
EndChar

StartChar: uni226A0338
Encoding: 160 58059 160
Width: 1158
Flags: HW
LayerCount: 2
Fore
SplineSet
549 360 m 1
 572 448 l 1
 258 300 l 1
 502 185 l 1
 520 253 l 1
 488 268 l 1
 488 332 l 1
 549 360 l 1
640 703 m 1
 727 680 l 1
 655 410 l 1
 1026 584 l 1
 1068 494 l 1
 656 300 l 1
 1068 106 l 1
 1026 16 l 1
 603 214 l 1
 585 146 l 1
 670 106 l 1
 628 16 l 1
 558 49 l 1
 518 -103 l 1
 431 -80 l 1
 476 87 l 1
 90 268 l 1
 90 332 l 1
 605 573 l 1
 640 703 l 1
EndSplineSet
EndChar

StartChar: uni226B0338
Encoding: 161 58060 161
Width: 1158
Flags: HW
LayerCount: 2
Fore
SplineSet
609 240 m 1
 586 152 l 1
 900 300 l 1
 656 415 l 1
 638 347 l 1
 670 332 l 1
 670 268 l 1
 609 240 l 1
640 703 m 1
 727 680 l 1
 682 513 l 1
 1068 332 l 1
 1068 268 l 1
 553 27 l 1
 518 -103 l 1
 431 -80 l 1
 503 190 l 1
 132 16 l 1
 90 106 l 1
 502 300 l 1
 90 494 l 1
 132 584 l 1
 555 386 l 1
 573 454 l 1
 488 494 l 1
 530 584 l 1
 600 551 l 1
 640 703 l 1
EndSplineSet
EndChar

StartChar: uni22D80338
Encoding: 162 58061 162
Width: 1556
Flags: HW
HStem: 692 20G<1048.2 1088.79>
LayerCount: 2
Fore
SplineSet
701 279 m 1
 760 349 l 1
 656 300 l 1
 701 279 l 1
1424 584 m 1
 1466 494 l 1
 1054 300 l 1
 1466 106 l 1
 1424 16 l 1
 886 268 l 1
 886 332 l 1
 1424 584 l 1
1065 712 m 1
 1134 654 l 1
 1044 546 l 1
 1068 494 l 1
 955 441 l 1
 786 239 l 1
 1068 106 l 1
 1026 16 l 1
 719 160 l 1
 665 95 l 1
 628 16 l 1
 607 26 l 1
 491 -112 l 1
 422 -54 l 1
 522 66 l 1
 90 268 l 1
 90 332 l 1
 628 584 l 1
 670 494 l 1
 258 300 l 1
 589 144 l 1
 635 199 l 1
 488 268 l 1
 488 332 l 1
 913 531 l 1
 1065 712 l 1
EndSplineSet
EndChar

StartChar: uni22D90338
Encoding: 163 58062 163
Width: 1556
Flags: HW
HStem: 692 20G<1048.19 1088.79>
LayerCount: 2
Fore
SplineSet
855 321 m 1
 796 251 l 1
 900 300 l 1
 855 321 l 1
132 16 m 1
 90 106 l 1
 502 300 l 1
 90 494 l 1
 132 584 l 1
 670 332 l 1
 670 268 l 1
 132 16 l 1
1065 712 m 1
 1134 654 l 1
 1034 534 l 1
 1466 332 l 1
 1466 268 l 1
 928 16 l 1
 886 106 l 1
 1298 300 l 1
 967 456 l 1
 921 401 l 1
 1068 332 l 1
 1068 268 l 1
 643 69 l 1
 491 -112 l 1
 422 -54 l 1
 512 54 l 1
 488 106 l 1
 601 159 l 1
 770 361 l 1
 488 494 l 1
 530 584 l 1
 837 440 l 1
 891 505 l 1
 928 584 l 1
 949 574 l 1
 1065 712 l 1
EndSplineSet
EndChar

StartChar: uni22EA
Encoding: 164 8938 164
Width: 660
Flags: HW
VStem: 470 100<167 433>
LayerCount: 2
Fore
SplineSet
278 278 m 1
 291 330 l 1
 240 300 l 1
 278 278 l 1
470 167 m 1
 470 433 l 1
 402 393 l 1
 358 232 l 1
 470 167 l 1
391 703 m 1
 478 680 l 1
 438 531 l 1
 520 578 l 1
 570 549 l 1
 570 51 l 1
 520 22 l 1
 332 131 l 1
 269 -103 l 1
 182 -80 l 1
 251 178 l 1
 90 271 l 1
 90 329 l 1
 328 467 l 1
 391 703 l 1
EndSplineSet
EndChar

StartChar: uni22EB
Encoding: 165 8939 165
Width: 660
Flags: HW
VStem: 90 100<167 433>
LayerCount: 2
Fore
SplineSet
382 322 m 1
 369 270 l 1
 420 300 l 1
 382 322 l 1
190 433 m 1
 190 167 l 1
 258 207 l 1
 302 368 l 1
 190 433 l 1
391 703 m 1
 478 680 l 1
 409 422 l 1
 570 329 l 1
 570 271 l 1
 332 133 l 1
 269 -103 l 1
 182 -80 l 1
 222 69 l 1
 140 22 l 1
 90 51 l 1
 90 549 l 1
 140 578 l 1
 328 469 l 1
 391 703 l 1
EndSplineSet
EndChar

StartChar: uni22EC
Encoding: 166 8940 166
Width: 660
Flags: HW
HStem: -3 100<90 202 323 570>
VStem: 470 100<277 455>
LayerCount: 2
Fore
SplineSet
297 352 m 1
 305 383 l 1
 266 366 l 1
 297 352 l 1
470 277 m 1
 470 455 l 1
 411 429 l 1
 381 316 l 1
 470 277 l 1
401 741 m 1
 488 717 l 1
 444 553 l 1
 470 564 l 2
 530 590 l 1
 570 564 l 1
 570 169 l 1
 530 143 l 1
 470 169 l 2
 355 219 l 1
 323 97 l 1
 570 97 l 1
 570 -3 l 1
 296 -3 l 1
 259 -141 l 1
 172 -117 l 1
 202 -3 l 1
 90 -3 l 1
 90 97 l 1
 229 97 l 1
 271 255 l 1
 90 334 l 1
 90 399 l 1
 339 507 l 1
 401 741 l 1
EndSplineSet
EndChar

StartChar: uni22ED
Encoding: 167 8941 167
Width: 660
Flags: HW
HStem: -3 100<90 202 323 570>
VStem: 90 100<277 455>
LayerCount: 2
Fore
SplineSet
190 455 m 1
 190 277 l 1
 289 320 l 1
 311 402 l 1
 190 455 l 1
401 741 m 1
 488 717 l 1
 420 464 l 1
 570 399 l 1
 570 334 l 1
 362 244 l 1
 323 97 l 1
 570 97 l 1
 570 -3 l 1
 296 -3 l 1
 259 -141 l 1
 172 -117 l 1
 202 -3 l 1
 90 -3 l 1
 90 97 l 1
 229 97 l 1
 256 198 l 1
 190 169 l 2
 130 143 l 1
 90 169 l 1
 90 564 l 1
 130 590 l 1
 190 564 l 2
 337 500 l 1
 401 741 l 1
EndSplineSet
EndChar

StartChar: uni2AA60338
Encoding: 168 -1 168
Width: 717
Flags: HW
VStem: 521 100<192.572 407.428>
LayerCount: 2
Fore
SplineSet
302 264 m 1
 325 349 l 1
 240 300 l 1
 302 264 l 1
483 159 m 1
 508 202 521 251 521 300 c 0
 521 349 508 398 483 441 c 1
 435 413 l 1
 383 217 l 1
 483 159 l 1
420 703 m 1
 507 680 l 1
 472 550 l 1
 520 578 l 1
 570 491 l 2
 604 432 621 366 621 300 c 0
 621 234 604 168 570 109 c 2
 520 22 l 1
 356 117 l 1
 297 -103 l 1
 210 -80 l 1
 275 164 l 1
 90 271 l 1
 90 329 l 1
 362 486 l 1
 420 703 l 1
EndSplineSet
EndChar

StartChar: uni2AA70338
Encoding: 169 -1 169
Width: 717
Flags: HW
VStem: 95 101<189.825 409.999>
LayerCount: 2
Fore
SplineSet
415 336 m 1
 392 251 l 1
 477 300 l 1
 415 336 l 1
233 441 m 1
 218 415 196 365 196 300 c 0
 196 269 201 214 233 159 c 1
 282 187 l 1
 334 383 l 1
 233 441 l 1
420 703 m 1
 507 680 l 1
 442 436 l 1
 627 329 l 1
 627 271 l 1
 355 114 l 1
 297 -103 l 1
 210 -80 l 1
 245 50 l 1
 197 22 l 1
 147 109 l 2
 113 168 95 234 95 300 c 0
 95 366 113 432 147 491 c 2
 197 578 l 1
 361 483 l 1
 420 703 l 1
EndSplineSet
EndChar

StartChar: uni2AA80338
Encoding: 170 -1 170
Width: 698
Flags: HW
VStem: 487 100<310.637 490.009>
LayerCount: 2
Fore
SplineSet
323 375 m 1
 338 431 l 1
 266 400 l 1
 323 375 l 1
475 309 m 1
 483 339 487 369 487 400 c 0
 487 431 483 461 475 491 c 1
 444 477 l 1
 407 339 l 1
 475 309 l 1
421 741 m 1
 508 717 l 1
 477 600 l 1
 530 623 l 1
 570 532 l 1
 567 531 l 1
 580 488 587 444 587 400 c 0
 587 356 580 311 567 268 c 1
 570 267 l 1
 530 176 l 1
 380 241 l 1
 359 160 l 1
 570 68 l 1
 530 -23 l 1
 333 63 l 1
 278 -141 l 1
 191 -117 l 1
 249 99 l 1
 90 168 l 1
 130 259 l 1
 275 196 l 1
 297 277 l 1
 90 367 l 1
 90 432 l 1
 371 554 l 1
 421 741 l 1
EndSplineSet
EndChar

StartChar: uni2AA90338
Encoding: 171 -1 171
Width: 698
Flags: HW
VStem: 111 101<310.637 490.009>
LayerCount: 2
Fore
SplineSet
424 404 m 1
 422 395 l 1
 433 400 l 1
 424 404 l 1
224 491 m 1
 216 461 212 431 212 400 c 0
 212 369 215 339 223 309 c 1
 316 349 l 1
 340 440 l 1
 224 491 l 1
421 741 m 1
 508 717 l 1
 450 501 l 1
 608 432 l 1
 608 367 l 1
 389 272 l 1
 361 169 l 1
 569 259 l 1
 608 168 l 1
 328 47 l 1
 278 -141 l 1
 191 -117 l 1
 223 1 l 1
 168 -23 l 1
 128 68 l 1
 255 123 l 1
 283 226 l 1
 168 176 l 1
 128 267 l 1
 131 268 l 1
 118 311 111 356 111 400 c 0
 111 444 118 488 131 531 c 1
 128 532 l 1
 168 623 l 1
 366 537 l 1
 421 741 l 1
EndSplineSet
EndChar

StartChar: uni228F0338
Encoding: 172 58884 172
Width: 660
Flags: HW
HStem: 1 100<190 203 323 570> 499 100<190 337 457 570> 733 20G<399.675 480.652>
VStem: 90 100<101 499>
LayerCount: 2
Fore
SplineSet
190 101 m 1
 230 101 l 1
 337 499 l 1
 190 499 l 1
 190 101 l 1
405 753 m 1
 492 730 l 1
 457 599 l 1
 570 599 l 1
 570 499 l 1
 430 499 l 1
 323 101 l 1
 570 101 l 1
 570 1 l 1
 296 1 l 1
 255 -153 l 1
 168 -130 l 1
 203 1 l 1
 90 1 l 1
 90 599 l 1
 364 599 l 1
 405 753 l 1
EndSplineSet
EndChar

StartChar: uni22900338
Encoding: 173 58901 173
Width: 660
Flags: HW
HStem: 1 100<90 203 323 470> 499 100<90 337 457 470> 733 20G<399.675 480.652>
VStem: 470 100<101 499>
LayerCount: 2
Fore
SplineSet
470 101 m 1
 470 499 l 1
 430 499 l 1
 323 101 l 1
 470 101 l 1
405 753 m 1
 492 730 l 1
 457 599 l 1
 570 599 l 1
 570 1 l 1
 296 1 l 1
 255 -153 l 1
 168 -130 l 1
 203 1 l 1
 90 1 l 1
 90 101 l 1
 230 101 l 1
 337 499 l 1
 90 499 l 1
 90 599 l 1
 364 599 l 1
 405 753 l 1
EndSplineSet
EndChar

StartChar: uni22E2
Encoding: 174 8930 174
Width: 660
Flags: HW
HStem: -36 100<90 193 313 570> 163 100<190 247 367 570> 536 100<190 347 467 570>
VStem: 90 100<263 536>
LayerCount: 2
Fore
SplineSet
190 263 m 1
 273 263 l 1
 347 536 l 1
 190 536 l 1
 190 263 l 1
415 790 m 1
 502 767 l 1
 467 636 l 1
 570 636 l 1
 570 536 l 1
 440 536 l 1
 367 263 l 1
 570 263 l 1
 570 163 l 1
 340 163 l 1
 313 64 l 1
 570 64 l 1
 570 -36 l 1
 286 -36 l 1
 245 -190 l 1
 158 -167 l 1
 193 -36 l 1
 90 -36 l 1
 90 64 l 1
 220 64 l 1
 247 163 l 1
 90 163 l 1
 90 636 l 1
 374 636 l 1
 415 790 l 1
EndSplineSet
EndChar

StartChar: uni22E3
Encoding: 175 8931 175
Width: 660
Flags: HW
HStem: -36 100<90 193 313 570> 163 100<90 247 367 470> 536 100<90 347 467 470>
VStem: 470 100<263 536>
LayerCount: 2
Fore
SplineSet
470 263 m 1
 470 536 l 1
 440 536 l 1
 367 263 l 1
 470 263 l 1
415 790 m 1
 502 767 l 1
 467 636 l 1
 570 636 l 1
 570 163 l 1
 340 163 l 1
 313 64 l 1
 570 64 l 1
 570 -36 l 1
 286 -36 l 1
 245 -190 l 1
 158 -167 l 1
 193 -36 l 1
 90 -36 l 1
 90 64 l 1
 220 64 l 1
 247 163 l 1
 90 163 l 1
 90 263 l 1
 273 263 l 1
 347 536 l 1
 90 536 l 1
 90 636 l 1
 374 636 l 1
 415 790 l 1
EndSplineSet
EndChar

StartChar: sym021_uni0338
Encoding: 176 -1 176
Width: 660
Flags: HW
HStem: -136 100<90 167 287 570> 63 100<90 220 340 570> 262 100<190 273 393 570> 636 100<190 373 493 570>
VStem: 90 480<-136 -36 63 163 262 362 636 736> 90 100<362 636>
LayerCount: 2
Fore
SplineSet
190 362 m 1xf4
 300 362 l 1
 373 636 l 1
 190 636 l 1
 190 362 l 1xf4
428 840 m 1
 515 817 l 1
 493 736 l 1
 570 736 l 1
 570 636 l 1
 467 636 l 1
 393 362 l 1
 570 362 l 1
 570 262 l 1
 366 262 l 1
 340 163 l 1
 570 163 l 1
 570 63 l 1
 313 63 l 1
 287 -36 l 1
 570 -36 l 1
 570 -136 l 1
 260 -136 l 1
 232 -240 l 1
 145 -217 l 1
 167 -136 l 1
 90 -136 l 1
 90 -36 l 1
 193 -36 l 1
 220 63 l 1
 90 63 l 1
 90 163 l 1
 247 163 l 1
 273 262 l 1
 90 262 l 1
 90 736 l 1xf8
 400 736 l 1
 428 840 l 1
EndSplineSet
EndChar

StartChar: sym022_uni0338
Encoding: 177 -1 177
Width: 660
Flags: HW
HStem: -136 100<90 167 287 570> 63 100<90 220 340 570> 262 100<90 273 393 470> 636 100<90 373>
VStem: 90 480<-136 -36 63 163 262 362 636 736> 470 100<362 636>
LayerCount: 2
Fore
SplineSet
470 362 m 1xf4
 470 636 l 1
 467 636 l 1
 393 362 l 1
 470 362 l 1xf4
428 840 m 1
 515 817 l 1
 493 736 l 1
 570 736 l 1
 570 262 l 1
 366 262 l 1
 340 163 l 1
 570 163 l 1
 570 63 l 1
 313 63 l 1
 287 -36 l 1
 570 -36 l 1
 570 -136 l 1
 260 -136 l 1
 232 -240 l 1
 145 -217 l 1
 167 -136 l 1
 90 -136 l 1
 90 -36 l 1
 193 -36 l 1
 220 63 l 1
 90 63 l 1
 90 163 l 1
 247 163 l 1
 273 262 l 1
 90 262 l 1
 90 362 l 1
 300 362 l 1
 373 636 l 1
 90 636 l 1
 90 736 l 1xf8
 400 736 l 1
 428 840 l 1
EndSplineSet
EndChar

StartChar: sym023_uni0338
Encoding: 178 -1 178
Width: 660
Flags: HW
HStem: 1 100<190 203 323 570> 150 100<363 570> 350 100<417 570> 499 100<190 337 457 570> 733 20G<399.675 480.652>
VStem: 90 100<101 499>
LayerCount: 2
Fore
SplineSet
243 150 m 1
 239 150 l 1
 239 450 l 1
 324 450 l 1
 337 499 l 1
 190 499 l 1
 190 101 l 1
 230 101 l 1
 243 150 l 1
405 753 m 1
 492 730 l 1
 457 599 l 1
 570 599 l 1
 570 499 l 1
 430 499 l 1
 417 450 l 1
 570 450 l 1
 570 350 l 1
 390 350 l 1
 363 250 l 1
 570 250 l 1
 570 150 l 1
 336 150 l 1
 323 101 l 1
 570 101 l 1
 570 1 l 1
 296 1 l 1
 255 -153 l 1
 168 -130 l 1
 203 1 l 1
 90 1 l 1
 90 599 l 1
 364 599 l 1
 405 753 l 1
EndSplineSet
EndChar

StartChar: sym024_uni0338
Encoding: 179 -1 179
Width: 660
Flags: HW
HStem: 1 100<90 203 323 470> 150 100<90 243> 350 100<90 297> 499 100<90 337 457 470> 733 20G<399.675 480.652>
VStem: 470 100<101 499>
LayerCount: 2
Fore
SplineSet
336 150 m 1
 323 101 l 1
 470 101 l 1
 470 499 l 1
 430 499 l 1
 417 450 l 1
 421 450 l 1
 421 150 l 1
 336 150 l 1
405 753 m 1
 492 730 l 1
 457 599 l 1
 570 599 l 1
 570 1 l 1
 296 1 l 1
 255 -153 l 1
 168 -130 l 1
 203 1 l 1
 90 1 l 1
 90 101 l 1
 230 101 l 1
 243 150 l 1
 90 150 l 1
 90 250 l 1
 270 250 l 1
 297 350 l 1
 90 350 l 1
 90 450 l 1
 324 450 l 1
 337 499 l 1
 90 499 l 1
 90 599 l 1
 364 599 l 1
 405 753 l 1
EndSplineSet
EndChar

StartChar: notsubset
Encoding: 180 8836 180
Width: 660
Flags: HW
HStem: 1 100<323 570> 499 100<272.673 337 457 570> 733 20G<399.675 480.652>
VStem: 90 100<193.652 404.898>
LayerCount: 2
Fore
SplineSet
242 146 m 1
 337 499 l 1
 245 498 190 402 190 300 c 0
 190 241 208 184 242 146 c 1
405 753 m 1
 492 730 l 1
 457 599 l 1
 570 599 l 1
 570 499 l 1
 430 499 l 1
 323 102 l 1
 328 101 333 101 338 101 c 2
 570 101 l 1
 570 1 l 1
 338 1 l 2
 324 1 310 3 297 5 c 1
 255 -153 l 1
 168 -130 l 1
 214 40 l 1
 137 93 90 193 90 300 c 0
 90 457 191 599 338 599 c 2
 364 599 l 1
 405 753 l 1
EndSplineSet
EndChar

StartChar: uni2285
Encoding: 181 8837 181
Width: 660
Flags: HW
HStem: 1 100<90 203 323 387.327> 499 100<90 337> 733 20G<399.684 480.652>
VStem: 470 100<195.102 406.348>
LayerCount: 2
Fore
SplineSet
418 454 m 1
 323 101 l 1
 415 102 470 198 470 300 c 0
 470 359 452 416 418 454 c 1
405 753 m 1
 492 730 l 1
 446 560 l 1
 523 507 570 407 570 300 c 0
 570 143 469 1 322 1 c 2
 296 1 l 1
 255 -153 l 1
 168 -130 l 1
 203 1 l 1
 90 1 l 1
 90 101 l 1
 230 101 l 1
 337 498 l 1
 332 499 327 499 322 499 c 2
 90 499 l 1
 90 599 l 1
 322 599 l 2
 336 599 350 597 363 595 c 1
 405 753 l 1
EndSplineSet
EndChar

StartChar: uni2288
Encoding: 182 8840 182
Width: 660
Flags: HW
HStem: -36 100<90 193 313 570> 163 100<234.855 248 367 570> 536 100<236.565 347 467 570>
VStem: 90 100<313.82 485.22>
LayerCount: 2
Fore
SplineSet
274 264 m 1
 347 536 l 1
 289 536 l 2
 226 536 190 469 190 400 c 0
 190 336 220 274 274 264 c 1
415 790 m 1
 502 767 l 1
 467 636 l 1
 570 636 l 1
 570 536 l 1
 440 536 l 1
 367 263 l 1
 570 263 l 1
 570 163 l 1
 340 163 l 1
 313 64 l 1
 570 64 l 1
 570 -36 l 1
 286 -36 l 1
 245 -190 l 1
 158 -167 l 1
 193 -36 l 1
 90 -36 l 1
 90 64 l 1
 220 64 l 1
 248 168 l 1
 153 191 90 290 90 400 c 0
 90 524 171 636 289 636 c 2
 374 636 l 1
 415 790 l 1
EndSplineSet
EndChar

StartChar: uni2289
Encoding: 183 8841 183
Width: 660
Flags: HW
HStem: -36 100<90 193 313 570> 163 100<90 247 367 423.435> 536 100<90 347>
VStem: 470 100<314.086 488.406>
LayerCount: 2
Fore
SplineSet
433 509 m 1
 367 263 l 1
 371 263 l 2
 434 263 470 330 470 400 c 0
 470 442 457 483 433 509 c 1
415 790 m 1
 502 767 l 1
 460 612 l 1
 528 573 570 489 570 400 c 0
 570 275 489 163 371 163 c 2
 340 163 l 1
 313 64 l 1
 570 64 l 1
 570 -36 l 1
 286 -36 l 1
 245 -190 l 1
 158 -167 l 1
 193 -36 l 1
 90 -36 l 1
 90 64 l 1
 220 64 l 1
 247 163 l 1
 90 163 l 1
 90 263 l 1
 273 263 l 1
 347 536 l 1
 90 536 l 1
 90 636 l 1
 371 636 l 2
 372 636 373 636 374 636 c 2
 415 790 l 1
EndSplineSet
EndChar

StartChar: uni2AC50338
Encoding: 184 58030 184
Width: 660
Flags: HW
HStem: -136 100<90 167 287 570> 63 100<90 220 340 570> 262 100<233.968 273 393 570> 636 100<236.565 373 493 570>
VStem: 90 100<412.831 584.504>
LayerCount: 2
Fore
SplineSet
300 362 m 1
 373 636 l 1
 289 636 l 2
 226 636 190 568 190 499 c 0
 190 430 226 362 289 362 c 2
 300 362 l 1
428 840 m 1
 515 817 l 1
 493 736 l 1
 570 736 l 1
 570 636 l 1
 467 636 l 1
 393 362 l 1
 570 362 l 1
 570 262 l 1
 366 262 l 1
 340 163 l 1
 570 163 l 1
 570 63 l 1
 313 63 l 1
 287 -36 l 1
 570 -36 l 1
 570 -136 l 1
 260 -136 l 1
 232 -240 l 1
 145 -217 l 1
 167 -136 l 1
 90 -136 l 1
 90 -36 l 1
 193 -36 l 1
 220 63 l 1
 90 63 l 1
 90 163 l 1
 247 163 l 1
 273 263 l 1
 164 272 90 381 90 499 c 0
 90 623 171 736 289 736 c 2
 400 736 l 1
 428 840 l 1
EndSplineSet
EndChar

StartChar: uni2AC60338
Encoding: 185 58032 185
Width: 660
Flags: HW
HStem: -136 100<90 167 287 570> 63 100<90 220 340 570> 262 100<90 273> 636 100<90 372.875>
VStem: 470 100<413.716 578.276>
LayerCount: 2
Fore
SplineSet
452 580 m 1
 394 365 l 1
 443 379 470 439 470 499 c 0
 470 528 464 556 452 580 c 1
428 840 m 1
 515 817 l 1
 483 696 l 1
 537 652 570 578 570 499 c 0
 570 375 489 262 371 262 c 2
 366 262 l 1
 340 163 l 1
 570 163 l 1
 570 63 l 1
 313 63 l 1
 287 -36 l 1
 570 -36 l 1
 570 -136 l 1
 260 -136 l 1
 232 -240 l 1
 145 -217 l 1
 167 -136 l 1
 90 -136 l 1
 90 -36 l 1
 193 -36 l 1
 220 63 l 1
 90 63 l 1
 90 163 l 1
 247 163 l 1
 273 262 l 1
 90 262 l 1
 90 362 l 1
 300 362 l 1
 373 636 l 1
 372 636 372 636 371 636 c 2
 90 636 l 1
 90 736 l 1
 371 736 l 2
 381 736 391 735 400 734 c 1
 428 840 l 1
EndSplineSet
EndChar

StartChar: uni22D00338
Encoding: 186 -1 186
Width: 660
Flags: HW
HStem: 1 100<323 570> 150 100<363.156 570> 350 100<417 570> 499 100<272.673 337 457 570> 733 20G<399.675 480.652>
VStem: 90 100<193.652 404.898>
LayerCount: 2
Fore
SplineSet
321 441 m 1
 337 499 l 1
 245 498 190 402 190 300 c 0
 190 241 208 184 242 146 c 1
 261 215 l 1
 247 240 239 270 239 300 c 0
 239 362 271 420 321 441 c 1
405 753 m 1
 492 730 l 1
 457 599 l 1
 570 599 l 1
 570 499 l 1
 430 499 l 1
 417 450 l 1
 570 450 l 1
 570 350 l 1
 390 350 l 1
 363 250 l 1
 364 250 l 2
 570 250 l 1
 570 150 l 1
 364 150 l 2
 355 150 346 151 337 153 c 1
 323 102 l 1
 328 101 333 101 338 101 c 2
 570 101 l 1
 570 1 l 1
 338 1 l 2
 324 1 310 3 297 5 c 1
 255 -153 l 1
 168 -130 l 1
 214 40 l 1
 137 93 90 193 90 300 c 0
 90 457 191 599 338 599 c 2
 364 599 l 1
 405 753 l 1
EndSplineSet
EndChar

StartChar: uni22D10338
Encoding: 187 -1 187
Width: 660
Flags: HW
HStem: 1 100<90 203 323 387.327> 150 100<90 243> 350 100<90 296.844> 499 100<90 337> 733 20G<399.684 480.652>
VStem: 470 100<195.102 406.348>
LayerCount: 2
Fore
SplineSet
339 159 m 1
 323 101 l 1
 415 102 470 198 470 300 c 0
 470 359 452 416 418 454 c 1
 399 385 l 1
 413 360 421 330 421 300 c 0
 421 238 389 180 339 159 c 1
405 753 m 1
 492 730 l 1
 446 560 l 1
 523 507 570 407 570 300 c 0
 570 143 469 1 322 1 c 2
 296 1 l 1
 255 -153 l 1
 168 -130 l 1
 203 1 l 1
 90 1 l 1
 90 101 l 1
 230 101 l 1
 243 150 l 1
 90 150 l 1
 90 250 l 1
 270 250 l 1
 297 350 l 1
 296 350 l 2
 90 350 l 1
 90 450 l 1
 296 450 l 2
 305 450 314 449 323 447 c 1
 337 498 l 1
 332 499 327 499 322 499 c 2
 90 499 l 1
 90 599 l 1
 322 599 l 2
 336 599 350 597 363 595 c 1
 405 753 l 1
EndSplineSet
EndChar

StartChar: uni2280
Encoding: 188 8832 188
Width: 660
Flags: HW
HStem: 250 100<90 243.751>
LayerCount: 2
Fore
SplineSet
391 703 m 1
 478 680 l 1
 434 516 l 1
 455 538 476 561 497 583 c 1
 570 515 l 1
 513 454 453 392 388 343 c 1
 369 271 l 1
 442 220 508 152 570 85 c 1
 497 17 l 1
 448 70 398 126 342 170 c 1
 269 -103 l 1
 182 -80 l 1
 262 221 l 1
 224 239 184 250 140 250 c 2
 90 250 l 1
 90 350 l 1
 140 350 l 2
 204 350 260 373 312 408 c 1
 391 703 l 1
EndSplineSet
EndChar

StartChar: uni2281
Encoding: 189 8833 189
Width: 660
Flags: HW
HStem: 250 100<416.249 570>
LayerCount: 2
Fore
SplineSet
391 703 m 1
 478 680 l 1
 398 379 l 1
 436 361 476 350 520 350 c 2
 570 350 l 1
 570 250 l 1
 520 250 l 2
 456 250 400 227 348 192 c 1
 269 -103 l 1
 182 -80 l 1
 226 84 l 1
 205 62 184 39 163 17 c 1
 90 85 l 1
 147 146 207 208 272 257 c 1
 291 329 l 1
 218 380 152 448 90 515 c 1
 163 583 l 1
 212 530 262 474 318 430 c 1
 391 703 l 1
EndSplineSet
EndChar

StartChar: uni2AAF0338
Encoding: 190 58844 190
Width: 660
Flags: HW
HStem: -3 100<90 202 323 570> 316 100<90 270.252>
LayerCount: 2
Fore
SplineSet
401 741 m 1
 488 717 l 1
 439 532 l 1
 460 549 479 567 497 587 c 1
 570 519 l 1
 520 465 462 420 399 385 c 1
 391 352 l 1
 457 317 518 270 570 214 c 1
 497 146 l 1
 458 188 413 225 364 253 c 1
 323 97 l 1
 570 97 l 1
 570 -3 l 1
 296 -3 l 1
 259 -141 l 1
 172 -117 l 1
 202 -3 l 1
 90 -3 l 1
 90 97 l 1
 229 97 l 1
 281 291 l 1
 236 307 189 316 140 316 c 2
 90 316 l 1
 90 416 l 1
 140 416 l 2
 205 416 268 432 326 459 c 1
 401 741 l 1
EndSplineSet
EndChar

StartChar: uni2AB00338
Encoding: 191 58865 191
Width: 660
Flags: HW
HStem: -3 100<90 202 323 570> 316 100<413.938 570>
LayerCount: 2
Fore
SplineSet
401 741 m 1
 488 717 l 1
 412 431 l 1
 447 422 483 416 520 416 c 2
 570 416 l 1
 570 316 l 1
 520 316 l 2
 469 316 421 306 374 289 c 1
 323 97 l 1
 570 97 l 1
 570 -3 l 1
 296 -3 l 1
 259 -141 l 1
 172 -117 l 1
 202 -3 l 1
 90 -3 l 1
 90 97 l 1
 229 97 l 1
 266 234 l 1
 229 209 194 179 163 146 c 1
 90 214 l 1
 150 278 220 330 298 366 c 1
 220 402 150 455 90 519 c 1
 163 587 l 1
 210 536 266 493 327 463 c 1
 401 741 l 1
EndSplineSet
EndChar

StartChar: uni22E0
Encoding: 192 8928 192
Width: 660
Flags: HW
HStem: 150 100<90 241.138> 350 100<90 271.236>
LayerCount: 2
Fore
SplineSet
401 741 m 1
 488 717 l 1
 450 575 l 1
 466 589 482 604 497 620 c 1
 570 552 l 1
 523 501 469 458 410 424 c 1
 398 381 l 1
 461 346 520 301 570 247 c 1
 497 179 l 1
 460 219 418 254 372 282 c 1
 351 205 l 1
 418 167 477 108 534 47 c 1
 462 -19 l 1
 419 29 375 76 325 108 c 1
 259 -141 l 1
 172 -117 l 1
 242 144 l 1
 226 148 208 150 190 150 c 2
 90 150 l 1
 90 250 l 1
 190 250 l 2
 217 250 242 246 267 240 c 1
 289 322 l 1
 242 340 192 350 140 350 c 2
 90 350 l 1
 90 450 l 1
 140 450 l 2
 209 450 275 468 336 498 c 1
 401 741 l 1
EndSplineSet
EndChar

StartChar: uni22E1
Encoding: 193 8929 193
Width: 660
Flags: HW
HStem: 150 100<372.887 570> 350 100<421.501 570>
LayerCount: 2
Fore
SplineSet
401 741 m 1
 488 717 l 1
 420 462 l 1
 452 454 486 450 520 450 c 2
 570 450 l 1
 570 350 l 1
 520 350 l 2
 473 350 428 342 384 327 c 1
 358 228 l 1
 393 242 430 250 470 250 c 2
 570 250 l 1
 570 150 l 1
 470 150 l 2
 414 150 366 130 323 100 c 1
 259 -141 l 1
 172 -117 l 1
 198 -19 l 1
 126 47 l 1
 165 89 205 129 247 163 c 1
 277 275 l 1
 236 248 197 216 163 179 c 1
 90 247 l 1
 150 311 220 364 298 400 c 1
 220 436 150 488 90 552 c 1
 163 620 l 1
 212 567 271 523 335 493 c 1
 401 741 l 1
EndSplineSet
EndChar

StartChar: uni2AB30338
Encoding: 194 -1 194
Width: 660
Flags: HW
HStem: -102 100<90 176 296 570> 97 100<90 229 349 570> 416 100<90 272.937>
LayerCount: 2
Fore
SplineSet
419 807 m 1
 506 784 l 1
 473 662 l 1
 481 670 489 678 497 686 c 1
 570 618 l 1
 528 574 482 535 431 503 c 1
 414 439 l 1
 471 406 524 362 570 313 c 1
 497 245 l 1
 464 281 427 312 387 338 c 1
 349 197 l 1
 570 197 l 1
 570 97 l 1
 322 97 l 1
 296 -2 l 1
 570 -2 l 1
 570 -102 l 1
 269 -102 l 1
 241 -207 l 1
 154 -184 l 1
 176 -102 l 1
 90 -102 l 1
 90 -2 l 1
 203 -2 l 1
 229 97 l 1
 90 97 l 1
 90 197 l 1
 256 197 l 1
 305 382 l 1
 253 404 198 416 140 416 c 2
 90 416 l 1
 90 516 l 1
 140 516 l 2
 217 516 291 538 357 575 c 1
 419 807 l 1
EndSplineSet
EndChar

StartChar: uni2AB40338
Encoding: 195 -1 195
Width: 660
Flags: HW
HStem: -102 100<90 176 296 570> 97 100<90 229 349 570> 416 100<438.266 570>
LayerCount: 2
Fore
SplineSet
419 807 m 1
 506 784 l 1
 437 525 l 1
 464 519 492 516 520 516 c 2
 570 516 l 1
 570 416 l 1
 520 416 l 2
 480 416 441 410 403 399 c 1
 349 197 l 1
 570 197 l 1
 570 97 l 1
 322 97 l 1
 296 -2 l 1
 570 -2 l 1
 570 -102 l 1
 269 -102 l 1
 241 -207 l 1
 154 -184 l 1
 176 -102 l 1
 90 -102 l 1
 90 -2 l 1
 203 -2 l 1
 229 97 l 1
 90 97 l 1
 90 197 l 1
 256 197 l 1
 298 353 l 1
 248 324 203 288 163 245 c 1
 90 313 l 1
 150 377 220 430 298 466 c 1
 220 502 150 554 90 618 c 1
 163 686 l 1
 217 629 281 582 351 552 c 1
 419 807 l 1
EndSplineSet
EndChar

StartChar: uni227E0338
Encoding: 196 59446 196
Width: 660
Flags: HW
HStem: -36 100<382.114 477.079> 350 100<90 271.236>
LayerCount: 2
Fore
SplineSet
401 741 m 1
 488 717 l 1
 450 575 l 1
 466 589 482 604 497 620 c 1
 570 552 l 1
 523 501 469 458 410 424 c 1
 398 381 l 1
 461 346 520 301 570 247 c 1
 497 179 l 1
 460 219 418 254 372 282 c 1
 330 126 l 1
 341 118 353 110 363 101 c 0
 384 83 406 64 433 64 c 0
 467 64 487 97 510 122 c 1
 570 64 l 1
 529 21 493 -36 433 -36 c 0
 384 -36 340 -11 302 21 c 1
 259 -141 l 1
 172 -117 l 1
 220 63 l 1
 190 59 171 28 150 6 c 1
 90 64 l 1
 131 106 167 163 227 163 c 0
 234 163 240 163 246 162 c 1
 289 322 l 1
 242 340 192 350 140 350 c 2
 90 350 l 1
 90 450 l 1
 140 450 l 2
 209 450 275 468 336 498 c 1
 401 741 l 1
EndSplineSet
EndChar

StartChar: uni227F0338
Encoding: 197 59447 197
Width: 660
Flags: HW
HStem: -36 100<382.114 477.079> 350 100<421.501 570>
LayerCount: 2
Fore
SplineSet
401 741 m 1
 488 717 l 1
 420 462 l 1
 452 454 486 450 520 450 c 2
 570 450 l 1
 570 350 l 1
 520 350 l 2
 473 350 428 342 384 327 c 1
 330 126 l 1
 341 118 353 110 363 101 c 0
 384 83 406 64 433 64 c 0
 467 64 487 97 510 122 c 1
 570 64 l 1
 529 21 493 -36 433 -36 c 0
 384 -36 340 -11 302 21 c 1
 259 -141 l 1
 172 -117 l 1
 220 63 l 1
 190 59 171 28 150 6 c 1
 90 64 l 1
 131 106 167 163 227 163 c 0
 234 163 240 163 246 162 c 1
 277 275 l 1
 236 248 197 216 163 179 c 1
 90 247 l 1
 150 311 220 364 298 400 c 1
 220 436 150 488 90 552 c 1
 163 620 l 1
 212 567 271 523 335 493 c 1
 401 741 l 1
EndSplineSet
EndChar

StartChar: uni2AB70338
Encoding: 198 -1 198
Width: 660
Flags: HW
HStem: -136 100<383.878 476.517> 63 100<382.908 476.517> 163 100<182.921 245.647> 449 100<90 269.218>
LayerCount: 2
Fore
SplineSet
307 42 m 1xd0
 367 10 390 -36 433 -36 c 0
 467 -36 487 -2 510 22 c 1
 570 -36 l 1
 529 -79 493 -136 433 -136 c 0
 382 -136 336 -107 297 -74 c 0
 291 -69 286 -64 280 -59 c 1
 245 -190 l 1
 158 -167 l 1
 189 -51 l 1
 175 -63 163 -80 150 -94 c 1
 90 -36 l 1
 129 5 164 60 220 64 c 1
 246 160 l 1
 240 162 234 163 227 163 c 0
 193 163 173 130 150 105 c 1
 90 163 l 1
 131 206 167 263 227 263 c 0xb0
 242 263 258 260 272 256 c 1
 313 411 l 1
 259 435 201 449 140 449 c 2
 90 449 l 1
 90 549 l 1
 140 549 l 2
 221 549 299 574 368 615 c 1
 415 790 l 1
 502 767 l 1
 486 709 l 1
 490 713 494 716 497 720 c 1
 570 651 l 1
 531 610 489 573 442 543 c 1
 422 468 l 1
 476 435 526 394 570 347 c 1
 497 278 l 1
 466 311 431 341 394 366 c 1
 352 210 l 1
 356 207 360 204 363 201 c 0
 384 183 406 163 433 163 c 0xd0
 467 163 487 197 510 221 c 1
 570 163 l 1xb0
 529 120 493 63 433 63 c 0
 393 63 357 81 324 104 c 1
 307 42 l 1xd0
EndSplineSet
EndChar

StartChar: uni2AB80338
Encoding: 199 -1 199
Width: 660
Flags: HW
HStem: -136 100<383.878 476.517> 63 100<382.908 476.517> 163 100<182.921 245.647> 449 100<446.126 570>
LayerCount: 2
Fore
SplineSet
307 42 m 1xd0
 367 10 390 -36 433 -36 c 0
 467 -36 487 -2 510 22 c 1
 570 -36 l 1
 529 -79 493 -136 433 -136 c 0
 382 -136 336 -107 297 -74 c 0
 291 -69 286 -64 280 -59 c 1
 245 -190 l 1
 158 -167 l 1
 189 -51 l 1
 175 -63 163 -80 150 -94 c 1
 90 -36 l 1
 129 5 164 60 220 64 c 1
 246 160 l 1
 240 162 234 163 227 163 c 0
 193 163 173 130 150 105 c 1
 90 163 l 1
 131 206 167 263 227 263 c 0xb0
 242 263 258 260 272 256 c 1
 308 392 l 1
 254 363 206 324 163 278 c 1
 90 347 l 1
 150 411 220 463 297 499 c 1
 220 535 150 587 90 651 c 1
 163 720 l 1
 219 660 285 611 359 581 c 1
 415 790 l 1
 502 767 l 1
 445 556 l 1
 469 551 495 549 520 549 c 2
 570 549 l 1
 570 449 l 1
 520 449 l 2
 483 449 448 444 413 435 c 1
 352 210 l 1
 356 207 360 204 363 201 c 0
 384 183 406 163 433 163 c 0xd0
 467 163 487 197 510 221 c 1
 570 163 l 1xb0
 529 120 493 63 433 63 c 0
 393 63 357 81 324 104 c 1
 307 42 l 1xd0
EndSplineSet
EndChar

StartChar: uni22D60338
Encoding: 200 -1 200
Width: 660
Flags: HW
HStem: 221 159<453.472 527.319>
VStem: 411 159<263.245 337.574>
LayerCount: 2
Fore
SplineSet
278 278 m 1
 291 330 l 1
 240 300 l 1
 278 278 l 1
491 221 m 0
 467 221 411 277 411 300 c 0
 411 316 429 334 443 348 c 0
 457 362 475 380 491 380 c 0
 506 380 524 362 538 348 c 0
 552 334 570 316 570 300 c 0
 570 277 513 221 491 221 c 0
391 703 m 1
 478 680 l 1
 438 531 l 1
 520 578 l 1
 570 491 l 1
 402 393 l 1
 358 232 l 1
 570 109 l 1
 520 22 l 1
 332 131 l 1
 269 -103 l 1
 182 -80 l 1
 251 178 l 1
 90 271 l 1
 90 329 l 1
 328 467 l 1
 391 703 l 1
EndSplineSet
EndChar

StartChar: uni22D70338
Encoding: 201 -1 201
Width: 660
Flags: HW
HStem: 221 159<132.472 206.319>
VStem: 90 159<263.245 337.574>
LayerCount: 2
Fore
SplineSet
382 322 m 1
 369 270 l 1
 420 300 l 1
 382 322 l 1
170 221 m 0
 146 221 90 277 90 300 c 0
 90 316 108 334 122 348 c 0
 136 362 154 380 170 380 c 0
 185 380 203 362 217 348 c 0
 231 334 249 316 249 300 c 0
 249 277 192 221 170 221 c 0
391 703 m 1
 478 680 l 1
 409 422 l 1
 570 329 l 1
 570 271 l 1
 332 133 l 1
 269 -103 l 1
 182 -80 l 1
 222 69 l 1
 140 22 l 1
 90 109 l 1
 258 207 l 1
 302 368 l 1
 90 491 l 1
 140 578 l 1
 328 469 l 1
 391 703 l 1
EndSplineSet
EndChar

StartChar: sym025_uni0338
Encoding: 202 -1 202
Width: 660
Flags: HW
HStem: -3 100<90 202 323 570> 287 159<453.426 527.587>
VStem: 411 159<329.287 403.574>
LayerCount: 2
Fore
SplineSet
297 352 m 1
 305 383 l 1
 266 366 l 1
 297 352 l 1
570 366 m 0
 570 350 552 333 538 319 c 0
 524 304 506 287 491 287 c 0
 475 287 457 304 443 319 c 0
 429 333 411 350 411 366 c 0
 411 382 429 400 443 414 c 0
 457 428 475 446 491 446 c 0
 506 446 524 428 538 414 c 0
 552 400 570 382 570 366 c 0
401 741 m 1
 488 717 l 1
 444 553 l 1
 530 590 l 1
 570 498 l 1
 411 429 l 1
 381 316 l 1
 570 234 l 1
 530 143 l 1
 355 219 l 1
 323 97 l 1
 570 97 l 1
 570 -3 l 1
 296 -3 l 1
 259 -141 l 1
 172 -117 l 1
 202 -3 l 1
 90 -3 l 1
 90 97 l 1
 229 97 l 1
 271 255 l 1
 90 334 l 1
 90 399 l 1
 339 507 l 1
 401 741 l 1
EndSplineSet
EndChar

StartChar: sym026_uni0338
Encoding: 203 -1 203
Width: 660
Flags: HW
HStem: -3 100<90 202 323 570> 287 159<132.426 206.587>
VStem: 90 159<329.287 403.574>
LayerCount: 2
Fore
SplineSet
249 366 m 0
 249 350 231 333 217 319 c 0
 203 304 185 287 170 287 c 0
 154 287 136 304 122 319 c 0
 108 333 90 350 90 366 c 0
 90 382 108 400 122 414 c 0
 136 428 154 446 170 446 c 0
 185 446 203 428 217 414 c 0
 231 400 249 382 249 366 c 0
401 741 m 1
 488 717 l 1
 420 464 l 1
 570 399 l 1
 570 334 l 1
 362 244 l 1
 323 97 l 1
 570 97 l 1
 570 -3 l 1
 296 -3 l 1
 259 -141 l 1
 172 -117 l 1
 202 -3 l 1
 90 -3 l 1
 90 97 l 1
 229 97 l 1
 256 198 l 1
 130 143 l 1
 90 234 l 1
 289 320 l 1
 311 402 l 1
 90 498 l 1
 130 590 l 1
 337 500 l 1
 401 741 l 1
EndSplineSet
EndChar

StartChar: uni2A7F0338
Encoding: 204 -1 204
Width: 660
Flags: HW
HStem: 320 159<453.426 527.587>
VStem: 411 159<362.426 436.587>
LayerCount: 2
Fore
SplineSet
305 383 m 1
 316 422 l 1
 266 400 l 1
 305 383 l 1
570 400 m 0
 570 384 552 366 538 352 c 0
 524 338 506 320 491 320 c 0
 475 320 457 338 443 352 c 0
 429 366 411 384 411 400 c 0
 411 415 429 433 443 447 c 0
 457 461 475 479 491 479 c 0
 506 479 524 461 538 447 c 0
 552 433 570 415 570 400 c 0
401 741 m 1
 488 717 l 1
 454 590 l 1
 530 623 l 1
 570 532 l 1
 421 467 l 1
 389 346 l 1
 570 267 l 1
 530 176 l 1
 363 249 l 1
 341 167 l 1
 570 68 l 1
 530 -23 l 1
 315 70 l 1
 259 -141 l 1
 172 -117 l 1
 232 107 l 1
 90 168 l 1
 130 259 l 1
 258 204 l 1
 279 285 l 1
 90 367 l 1
 90 432 l 1
 348 544 l 1
 401 741 l 1
EndSplineSet
EndChar

StartChar: uni2A800338
Encoding: 205 -1 205
Width: 660
Flags: HW
HStem: 320 159<132.426 206.587>
VStem: 90 159<362.426 436.587>
LayerCount: 2
Fore
SplineSet
249 400 m 0
 249 384 231 366 217 352 c 0
 203 338 185 320 170 320 c 0
 154 320 136 338 122 352 c 0
 108 366 90 384 90 400 c 0
 90 415 108 433 122 447 c 0
 136 461 154 479 170 479 c 0
 185 479 203 461 217 447 c 0
 231 433 249 415 249 400 c 0
401 741 m 1
 488 717 l 1
 428 493 l 1
 570 432 l 1
 570 367 l 1
 372 281 l 1
 344 178 l 1
 530 259 l 1
 570 168 l 1
 312 56 l 1
 259 -141 l 1
 172 -117 l 1
 206 10 l 1
 130 -23 l 1
 90 68 l 1
 239 133 l 1
 266 235 l 1
 130 176 l 1
 90 267 l 1
 299 358 l 1
 319 433 l 1
 90 532 l 1
 130 623 l 1
 345 530 l 1
 401 741 l 1
EndSplineSet
EndChar

StartChar: uni2A950338
Encoding: 206 60772 206
Width: 660
Flags: HW
LayerCount: 2
Fore
SplineSet
401 741 m 1
 488 717 l 1
 454 590 l 1
 530 623 l 1
 570 532 l 1
 421 467 l 1
 394 365 l 1
 530 424 l 1
 570 333 l 1
 361 242 l 1
 341 167 l 1
 570 68 l 1
 530 -23 l 1
 315 70 l 1
 259 -141 l 1
 172 -117 l 1
 232 107 l 1
 90 168 l 1
 90 233 l 1
 288 319 l 1
 316 422 l 1
 130 341 l 1
 90 432 l 1
 348 544 l 1
 401 741 l 1
EndSplineSet
EndChar

StartChar: uni2A960338
Encoding: 207 60773 207
Width: 660
Flags: HW
LayerCount: 2
Fore
SplineSet
355 217 m 1
 344 178 l 1
 394 200 l 1
 355 217 l 1
401 741 m 1
 488 717 l 1
 428 493 l 1
 570 432 l 1
 530 341 l 1
 402 396 l 1
 381 315 l 1
 570 233 l 1
 570 168 l 1
 312 56 l 1
 259 -141 l 1
 172 -117 l 1
 206 10 l 1
 130 -23 l 1
 90 68 l 1
 239 133 l 1
 271 254 l 1
 90 333 l 1
 130 424 l 1
 297 351 l 1
 319 433 l 1
 90 532 l 1
 130 623 l 1
 345 530 l 1
 401 741 l 1
EndSplineSet
EndChar

StartChar: uni22DE0338
Encoding: 208 60796 208
Width: 660
Flags: HW
HStem: 150 100<90 238.499> 350 100<90 287.113>
LayerCount: 2
Fore
SplineSet
401 741 m 1
 488 717 l 1
 462 619 l 1
 534 553 l 1
 495 511 455 471 413 437 c 1
 383 325 l 1
 424 352 463 384 497 421 c 1
 570 353 l 1
 510 289 440 236 362 200 c 1
 440 164 510 112 570 48 c 1
 497 -20 l 1
 448 33 389 77 325 107 c 1
 259 -141 l 1
 172 -117 l 1
 240 138 l 1
 208 146 174 150 140 150 c 2
 90 150 l 1
 90 250 l 1
 140 250 l 2
 187 250 232 258 276 273 c 1
 302 372 l 1
 267 358 230 350 190 350 c 2
 90 350 l 1
 90 450 l 1
 190 450 l 2
 246 450 294 470 337 500 c 1
 401 741 l 1
EndSplineSet
EndChar

StartChar: uni22DF0338
Encoding: 209 60797 209
Width: 660
Flags: HW
HStem: 150 100<388.764 570> 350 100<418.862 570>
LayerCount: 2
Fore
SplineSet
401 741 m 1
 488 717 l 1
 418 456 l 1
 434 452 452 450 470 450 c 2
 570 450 l 1
 570 350 l 1
 470 350 l 2
 443 350 418 354 393 360 c 1
 371 278 l 1
 418 260 468 250 520 250 c 2
 570 250 l 1
 570 150 l 1
 520 150 l 2
 451 150 385 132 324 102 c 1
 259 -141 l 1
 172 -117 l 1
 210 25 l 1
 194 11 178 -4 163 -20 c 1
 90 48 l 1
 137 99 191 142 250 176 c 1
 262 219 l 1
 199 254 140 299 90 353 c 1
 163 421 l 1
 200 381 242 346 288 318 c 1
 309 395 l 1
 242 433 183 492 126 553 c 1
 198 619 l 1
 241 571 285 524 335 492 c 1
 401 741 l 1
EndSplineSet
EndChar

StartChar: uni2246
Encoding: 210 8774 210
Width: 660
Flags: HW
HStem: 51 100<90 250 370 570> 250 100<90 303 423 570> 399 100<384.164 476.517> 499 100<183.483 275.836> 537 20G<498.5 530.69>
LayerCount: 2
Fore
SplineSet
433 399 m 0xe0
 330 399 283 499 227 499 c 0
 193 499 173 465 150 441 c 1
 90 499 l 1
 131 542 167 599 227 599 c 0xd0
 330 599 377 499 433 499 c 0
 467 499 487 533 510 557 c 1xe8
 570 499 l 1xd0
 529 456 493 399 433 399 c 0xe0
345 405 m 1
 432 382 l 1
 423 350 l 1
 570 350 l 1
 570 250 l 1
 397 250 l 1
 370 151 l 1
 570 151 l 1
 570 51 l 1
 343 51 l 1
 315 -54 l 1
 228 -30 l 1
 250 51 l 1
 90 51 l 1
 90 151 l 1
 277 151 l 1
 303 250 l 1
 90 250 l 1
 90 350 l 1
 330 350 l 1
 345 405 l 1
EndSplineSet
EndChar

StartChar: sym027
Encoding: 211 -1 211
Width: 660
Flags: HW
HStem: 51 100<90 244 364 570> 250 100<90 297 416 570> 399 100<183.483 276.577> 499 100<383.871 476.517> 537 20G<129.31 161.5>
LayerCount: 2
Fore
SplineSet
227 499 m 0xe8
 283 499 330 599 433 599 c 0
 493 599 529 542 570 499 c 1
 510 441 l 1
 487 465 467 499 433 499 c 0xd0
 409 499 401 492 355 454 c 1
 438 431 l 1
 416 350 l 1
 570 350 l 1
 570 250 l 1
 390 250 l 1
 364 151 l 1
 570 151 l 1
 570 51 l 1
 337 51 l 1
 309 -54 l 1
 222 -30 l 1
 244 51 l 1
 90 51 l 1
 90 151 l 1
 271 151 l 1
 297 250 l 1
 90 250 l 1
 90 350 l 1
 324 350 l 1
 351 451 l 1
 315 422 273 399 227 399 c 0xe0
 167 399 131 456 90 499 c 1xd0
 150 557 l 1
 173 533 193 499 227 499 c 0xe8
EndSplineSet
EndChar

StartChar: uni2A87
Encoding: 212 10887 212
Width: 660
Flags: HW
HStem: -3 100<90 270 390 570>
LayerCount: 2
Fore
SplineSet
530 590 m 1
 570 498 l 1
 266 366 l 1
 570 234 l 1
 530 143 l 1
 90 334 l 1
 90 399 l 1
 530 590 l 1
325 202 m 1
 412 178 l 1
 390 97 l 1
 570 97 l 1
 570 -3 l 1
 363 -3 l 1
 335 -108 l 1
 248 -84 l 1
 270 -3 l 1
 90 -3 l 1
 90 97 l 1
 297 97 l 1
 325 202 l 1
EndSplineSet
EndChar

StartChar: uni2A88
Encoding: 213 10888 213
Width: 660
Flags: HW
HStem: -3 100<90 270 390 570>
LayerCount: 2
Fore
SplineSet
130 143 m 1
 90 234 l 1
 394 366 l 1
 90 498 l 1
 130 590 l 1
 570 399 l 1
 570 334 l 1
 130 143 l 1
325 202 m 1
 412 178 l 1
 390 97 l 1
 570 97 l 1
 570 -3 l 1
 363 -3 l 1
 335 -108 l 1
 248 -84 l 1
 270 -3 l 1
 90 -3 l 1
 90 97 l 1
 297 97 l 1
 325 202 l 1
EndSplineSet
EndChar

StartChar: uni2268
Encoding: 214 8808 214
Width: 660
Flags: HW
HStem: -102 100<90 244 364 570> 97 100<90 297 416 570>
LayerCount: 2
Fore
SplineSet
530 690 m 1
 570 598 l 1
 266 466 l 1
 570 334 l 1
 530 242 l 1
 90 433 l 1
 90 499 l 1
 530 690 l 1
352 301 m 1
 438 278 l 1
 416 197 l 1
 570 197 l 1
 570 97 l 1
 390 97 l 1
 364 -2 l 1
 570 -2 l 1
 570 -102 l 1
 337 -102 l 1
 309 -207 l 1
 222 -184 l 1
 244 -102 l 1
 90 -102 l 1
 90 -2 l 1
 271 -2 l 1
 297 97 l 1
 90 97 l 1
 90 197 l 1
 324 197 l 1
 352 301 l 1
EndSplineSet
EndChar

StartChar: uni2269
Encoding: 215 8809 215
Width: 660
Flags: HW
HStem: -102 100<90 244 364 570> 97 100<90 297 416 570>
LayerCount: 2
Fore
SplineSet
130 242 m 1
 90 334 l 1
 394 466 l 1
 90 598 l 1
 130 690 l 1
 570 499 l 1
 570 433 l 1
 130 242 l 1
352 301 m 1
 438 278 l 1
 416 197 l 1
 570 197 l 1
 570 97 l 1
 390 97 l 1
 364 -2 l 1
 570 -2 l 1
 570 -102 l 1
 337 -102 l 1
 309 -207 l 1
 222 -184 l 1
 244 -102 l 1
 90 -102 l 1
 90 -2 l 1
 271 -2 l 1
 297 97 l 1
 90 97 l 1
 90 197 l 1
 324 197 l 1
 352 301 l 1
EndSplineSet
EndChar

StartChar: uni22E6
Encoding: 216 8934 216
Width: 660
Flags: HW
HStem: -36 100<382.906 477.079> 63 100<182.921 277.094>
LayerCount: 2
Fore
SplineSet
530 623 m 1x00
 570 532 l 1
 266 400 l 1
 570 267 l 1
 530 176 l 1
 90 367 l 1
 90 432 l 1
 530 623 l 1x00
325 218 m 1
 412 195 l 1
 382 85 l 1
 397 73 414 64 433 64 c 0
 467 64 487 97 510 122 c 1
 570 64 l 1
 529 21 493 -36 433 -36 c 0x80
 406 -36 379 -28 355 -15 c 1
 335 -91 l 1
 248 -68 l 1
 278 42 l 1
 263 54 246 63 227 63 c 0x40
 193 63 173 30 150 6 c 1
 90 64 l 1x80
 131 106 167 163 227 163 c 0x40
 254 163 281 155 305 142 c 1
 325 218 l 1
EndSplineSet
EndChar

StartChar: uni22E7
Encoding: 217 8935 217
Width: 660
Flags: HW
HStem: -36 100<382.906 477.079> 63 100<182.921 277.094>
LayerCount: 2
Fore
SplineSet
130 176 m 1x00
 90 267 l 1
 394 400 l 1
 90 532 l 1
 130 623 l 1
 570 432 l 1
 570 367 l 1
 130 176 l 1x00
325 218 m 1
 412 195 l 1
 382 85 l 1
 397 73 414 64 433 64 c 0
 467 64 487 97 510 122 c 1
 570 64 l 1
 529 21 493 -36 433 -36 c 0x80
 406 -36 379 -28 355 -15 c 1
 335 -91 l 1
 248 -68 l 1
 278 42 l 1
 263 54 246 63 227 63 c 0x40
 193 63 173 30 150 6 c 1
 90 64 l 1x80
 131 106 167 163 227 163 c 0x40
 254 163 281 155 305 142 c 1
 325 218 l 1
EndSplineSet
EndChar

StartChar: uni2A89
Encoding: 218 10889 218
Width: 660
Flags: HW
HStem: -136 100<382.27 476.517> -36 100<182.921 254.664> 63 100<405.336 476.517> 163 100<182.921 277.755>
LayerCount: 2
Fore
SplineSet
530 723 m 1x00
 570 631 l 1
 266 499 l 1
 570 367 l 1
 530 275 l 1
 90 466 l 1
 90 532 l 1
 530 723 l 1x00
300 123 m 1
 260 157 251 163 227 163 c 0
 193 163 173 130 150 105 c 1
 90 163 l 1
 131 206 167 263 227 263 c 0x50
 263 263 297 249 328 228 c 1
 352 318 l 1
 438 295 l 1
 405 170 l 1
 414 166 423 163 433 163 c 0x20
 467 163 487 197 510 221 c 1
 570 163 l 1x10
 529 120 493 63 433 63 c 0
 414 63 396 66 379 73 c 1
 361 4 l 1
 388 -20 407 -36 433 -36 c 0xa0
 467 -36 487 -2 510 22 c 1
 570 -36 l 1x40
 529 -79 493 -136 433 -136 c 0x80
 397 -136 363 -121 333 -101 c 1
 309 -190 l 1
 222 -167 l 1
 255 -43 l 1
 246 -39 237 -36 227 -36 c 0
 193 -36 173 -69 150 -94 c 1
 90 -36 l 1
 131 7 167 64 227 64 c 0x40
 246 64 264 60 281 54 c 1
 300 123 l 1
EndSplineSet
EndChar

StartChar: uni2A8A
Encoding: 219 10890 219
Width: 660
Flags: HW
HStem: -136 100<382.27 476.517> -36 100<182.921 254.664> 63 100<405.336 476.517> 163 100<182.921 277.755>
LayerCount: 2
Fore
SplineSet
130 275 m 1x00
 90 367 l 1
 394 499 l 1
 90 631 l 1
 130 723 l 1
 570 532 l 1
 570 466 l 1
 130 275 l 1x00
300 123 m 1
 260 157 251 163 227 163 c 0
 193 163 173 130 150 105 c 1
 90 163 l 1
 131 206 167 263 227 263 c 0x50
 263 263 297 249 328 228 c 1
 352 318 l 1
 438 295 l 1
 405 170 l 1
 414 166 423 163 433 163 c 0x20
 467 163 487 197 510 221 c 1
 570 163 l 1x10
 529 120 493 63 433 63 c 0
 414 63 396 66 379 73 c 1
 361 4 l 1
 388 -20 407 -36 433 -36 c 0xa0
 467 -36 487 -2 510 22 c 1
 570 -36 l 1x40
 529 -79 493 -136 433 -136 c 0x80
 397 -136 363 -121 333 -101 c 1
 309 -190 l 1
 222 -167 l 1
 255 -43 l 1
 246 -39 237 -36 227 -36 c 0
 193 -36 173 -69 150 -94 c 1
 90 -36 l 1
 131 7 167 64 227 64 c 0x40
 246 64 264 60 281 54 c 1
 300 123 l 1
EndSplineSet
EndChar

StartChar: uni22E4
Encoding: 220 8932 220
Width: 660
Flags: HW
HStem: -36 100<90 244 364 570> 163 100<190 297 416 570> 536 100<190 570>
VStem: 90 100<263 536>
LayerCount: 2
Fore
SplineSet
352 368 m 1
 438 344 l 1
 416 263 l 1
 570 263 l 1
 570 163 l 1
 390 163 l 1
 364 64 l 1
 570 64 l 1
 570 -36 l 1
 337 -36 l 1
 309 -141 l 1
 222 -117 l 1
 244 -36 l 1
 90 -36 l 1
 90 64 l 1
 271 64 l 1
 297 163 l 1
 90 163 l 1
 90 636 l 1
 570 636 l 1
 570 536 l 1
 190 536 l 1
 190 263 l 1
 324 263 l 1
 352 368 l 1
EndSplineSet
EndChar

StartChar: uni22E5
Encoding: 221 8933 221
Width: 660
Flags: HW
HStem: -36 100<90 244 364 570> 163 100<90 297 416 470> 536 100<90 470>
VStem: 470 100<263 536>
LayerCount: 2
Fore
SplineSet
352 368 m 1
 438 344 l 1
 416 263 l 1
 470 263 l 1
 470 536 l 1
 90 536 l 1
 90 636 l 1
 570 636 l 1
 570 163 l 1
 390 163 l 1
 364 64 l 1
 570 64 l 1
 570 -36 l 1
 337 -36 l 1
 309 -141 l 1
 222 -117 l 1
 244 -36 l 1
 90 -36 l 1
 90 64 l 1
 271 64 l 1
 297 163 l 1
 90 163 l 1
 90 263 l 1
 324 263 l 1
 352 368 l 1
EndSplineSet
EndChar

StartChar: sym028
Encoding: 222 -1 222
Width: 660
Flags: HW
HStem: -136 100<90 244 363 570> 63 100<90 297 416 570> 262 100<190 350 374 570> 636 100<190 570>
VStem: 90 480<-136 -36 63 163 262 362 636 736> 90 100<362 636>
LayerCount: 2
Fore
SplineSet
90 -136 m 1xf8
 90 -36 l 1
 271 -36 l 1
 297 63 l 1
 90 63 l 1
 90 163 l 1
 324 163 l 1
 350 262 l 1
 90 262 l 1
 90 736 l 1
 570 736 l 1
 570 636 l 1xf8
 190 636 l 1
 190 362 l 1xf4
 570 362 l 1
 570 262 l 1
 374 262 l 1
 438 245 l 1
 416 163 l 1
 570 163 l 1
 570 63 l 1
 390 63 l 1
 363 -36 l 1
 570 -36 l 1
 570 -136 l 1
 337 -136 l 1
 309 -240 l 1
 222 -217 l 1
 244 -136 l 1
 90 -136 l 1xf8
EndSplineSet
EndChar

StartChar: sym029
Encoding: 223 -1 223
Width: 660
Flags: HW
HStem: -136 100<90 244 363 570> 63 100<90 297 416 570> 262 100<90 350 374 470> 636 100<90 470>
VStem: 90 480<-136 -36 63 163 262 362 636 736> 470 100<362 636>
LayerCount: 2
Fore
SplineSet
570 -36 m 1xf8
 570 -136 l 1
 337 -136 l 1
 309 -240 l 1
 222 -217 l 1
 244 -136 l 1
 90 -136 l 1
 90 -36 l 1
 271 -36 l 1
 297 63 l 1
 90 63 l 1
 90 163 l 1
 324 163 l 1
 350 262 l 1
 90 262 l 1
 90 362 l 1xf8
 470 362 l 1
 470 636 l 1xf4
 90 636 l 1
 90 736 l 1
 570 736 l 1
 570 262 l 1
 374 262 l 1
 438 245 l 1
 416 163 l 1
 570 163 l 1
 570 63 l 1
 390 63 l 1
 363 -36 l 1
 570 -36 l 1xf8
EndSplineSet
EndChar

StartChar: uni228A
Encoding: 224 8842 224
Width: 660
Flags: HW
HStem: -36 100<90 244 364 570> 163 100<236.565 297 416 570> 536 100<236.565 570>
VStem: 90 100<314.086 485.22>
LayerCount: 2
Fore
SplineSet
352 368 m 1
 438 344 l 1
 416 263 l 1
 570 263 l 1
 570 163 l 1
 390 163 l 1
 364 64 l 1
 570 64 l 1
 570 -36 l 1
 337 -36 l 1
 309 -141 l 1
 222 -117 l 1
 244 -36 l 1
 90 -36 l 1
 90 64 l 1
 271 64 l 1
 297 163 l 1
 289 163 l 2
 171 163 90 275 90 400 c 0
 90 524 171 636 289 636 c 2
 570 636 l 1
 570 536 l 1
 289 536 l 2
 226 536 190 469 190 400 c 0
 190 330 226 263 289 263 c 2
 324 263 l 1
 352 368 l 1
EndSplineSet
EndChar

StartChar: uni228B
Encoding: 225 8843 225
Width: 660
Flags: HW
HStem: -36 100<90 244 364 570> 163 100<90 297> 536 100<90 423.435>
VStem: 470 100<313.47 485.22>
LayerCount: 2
Fore
SplineSet
352 368 m 1
 438 344 l 1
 421 280 l 1
 453 304 470 351 470 400 c 0
 470 469 434 536 371 536 c 2
 90 536 l 1
 90 636 l 1
 371 636 l 2
 489 636 570 524 570 400 c 0
 570 282 498 175 390 164 c 1
 364 64 l 1
 570 64 l 1
 570 -36 l 1
 337 -36 l 1
 309 -141 l 1
 222 -117 l 1
 244 -36 l 1
 90 -36 l 1
 90 64 l 1
 271 64 l 1
 297 163 l 1
 90 163 l 1
 90 263 l 1
 324 263 l 1
 352 368 l 1
EndSplineSet
EndChar

StartChar: uni2ACB
Encoding: 226 10955 226
Width: 660
Flags: HW
HStem: -136 100<90 244 363 570> 63 100<90 297 416 570> 262 100<236.565 350 374 570> 636 100<236.565 570>
VStem: 90 100<413.496 584.504>
LayerCount: 2
Fore
SplineSet
90 -136 m 1
 90 -36 l 1
 271 -36 l 1
 297 63 l 1
 90 63 l 1
 90 163 l 1
 324 163 l 1
 350 262 l 1
 289 262 l 2
 171 262 90 375 90 499 c 0
 90 623 171 736 289 736 c 2
 570 736 l 1
 570 636 l 1
 289 636 l 2
 226 636 190 568 190 499 c 0
 190 430 226 362 289 362 c 2
 570 362 l 1
 570 262 l 1
 374 262 l 1
 438 245 l 1
 416 163 l 1
 570 163 l 1
 570 63 l 1
 390 63 l 1
 363 -36 l 1
 570 -36 l 1
 570 -136 l 1
 337 -136 l 1
 309 -240 l 1
 222 -217 l 1
 244 -136 l 1
 90 -136 l 1
EndSplineSet
EndChar

StartChar: uni2ACC
Encoding: 227 10956 227
Width: 660
Flags: HW
HStem: -136 100<90 244 363 570> 63 100<90 297 416 570> 262 100<90 350 374 425.57> 636 100<90 423.435>
VStem: 470 100<413.828 584.504>
LayerCount: 2
Fore
SplineSet
570 -36 m 1
 570 -136 l 1
 337 -136 l 1
 309 -240 l 1
 222 -217 l 1
 244 -136 l 1
 90 -136 l 1
 90 -36 l 1
 271 -36 l 1
 297 63 l 1
 90 63 l 1
 90 163 l 1
 324 163 l 1
 350 262 l 1
 90 262 l 1
 90 362 l 1
 371 362 l 2
 434 362 470 430 470 499 c 0
 470 568 434 636 371 636 c 2
 90 636 l 1
 90 736 l 1
 371 736 l 2
 489 736 570 623 570 499 c 0
 570 376 490 264 374 262 c 1
 438 245 l 1
 416 163 l 1
 570 163 l 1
 570 63 l 1
 390 63 l 1
 363 -36 l 1
 570 -36 l 1
EndSplineSet
EndChar

StartChar: uni2AB1
Encoding: 228 10929 228
Width: 660
Flags: HW
HStem: -3 100<90 270 390 570> 316 100<90 270.565>
LayerCount: 2
Fore
SplineSet
362 366 m 1
 440 330 510 278 570 214 c 1
 497 146 l 1
 403 246 277 316 140 316 c 2
 90 316 l 1
 90 416 l 1
 140 416 l 2
 277 416 403 486 497 587 c 1
 570 519 l 1
 510 455 440 402 362 366 c 1
325 202 m 1
 412 178 l 1
 390 97 l 1
 570 97 l 1
 570 -3 l 1
 363 -3 l 1
 335 -108 l 1
 248 -84 l 1
 270 -3 l 1
 90 -3 l 1
 90 97 l 1
 297 97 l 1
 325 202 l 1
EndSplineSet
EndChar

StartChar: uni2AB2
Encoding: 229 10930 229
Width: 660
Flags: HW
HStem: -3 100<90 270 390 570> 316 100<389.435 570>
LayerCount: 2
Fore
SplineSet
298 366 m 1
 220 402 150 455 90 519 c 1
 163 587 l 1
 257 486 383 416 520 416 c 2
 570 416 l 1
 570 316 l 1
 520 316 l 2
 383 316 257 246 163 146 c 1
 90 214 l 1
 150 278 220 330 298 366 c 1
325 202 m 1
 412 178 l 1
 390 97 l 1
 570 97 l 1
 570 -3 l 1
 363 -3 l 1
 335 -108 l 1
 248 -84 l 1
 270 -3 l 1
 90 -3 l 1
 90 97 l 1
 297 97 l 1
 325 202 l 1
EndSplineSet
EndChar

StartChar: uni2AB5
Encoding: 230 10933 230
Width: 660
Flags: HW
HStem: -102 100<90 244 364 570> 97 100<90 297 416 570> 416 100<90 270.565>
LayerCount: 2
Fore
SplineSet
362 466 m 1
 440 430 510 377 570 313 c 1
 497 245 l 1
 403 346 277 416 140 416 c 2
 90 416 l 1
 90 516 l 1
 140 516 l 2
 277 516 403 586 497 686 c 1
 570 618 l 1
 510 554 440 502 362 466 c 1
352 301 m 1
 438 278 l 1
 416 197 l 1
 570 197 l 1
 570 97 l 1
 390 97 l 1
 364 -2 l 1
 570 -2 l 1
 570 -102 l 1
 337 -102 l 1
 309 -207 l 1
 222 -184 l 1
 244 -102 l 1
 90 -102 l 1
 90 -2 l 1
 271 -2 l 1
 297 97 l 1
 90 97 l 1
 90 197 l 1
 324 197 l 1
 352 301 l 1
EndSplineSet
EndChar

StartChar: uni2AB6
Encoding: 231 10934 231
Width: 660
Flags: HW
HStem: -102 100<90 244 364 570> 97 100<90 297 416 570> 416 100<389.435 570>
LayerCount: 2
Fore
SplineSet
298 466 m 1
 220 502 150 554 90 618 c 1
 163 686 l 1
 257 586 383 516 520 516 c 2
 570 516 l 1
 570 416 l 1
 520 416 l 2
 383 416 257 346 163 245 c 1
 90 313 l 1
 150 377 220 430 298 466 c 1
352 301 m 1
 438 278 l 1
 416 197 l 1
 570 197 l 1
 570 97 l 1
 390 97 l 1
 364 -2 l 1
 570 -2 l 1
 570 -102 l 1
 337 -102 l 1
 309 -207 l 1
 222 -184 l 1
 244 -102 l 1
 90 -102 l 1
 90 -2 l 1
 271 -2 l 1
 297 97 l 1
 90 97 l 1
 90 197 l 1
 324 197 l 1
 352 301 l 1
EndSplineSet
EndChar

StartChar: uni22E8
Encoding: 232 8936 232
Width: 660
Flags: HW
HStem: -36 100<382.906 477.079> 63 100<182.921 277.094> 350 100<90 270.565>
LayerCount: 2
Fore
SplineSet
362 400 m 1x20
 440 364 510 311 570 247 c 1
 497 179 l 1
 403 280 277 350 140 350 c 2
 90 350 l 1
 90 450 l 1
 140 450 l 2
 277 450 403 519 497 620 c 1
 570 552 l 1
 510 488 440 436 362 400 c 1x20
325 218 m 1
 412 195 l 1
 382 85 l 1
 397 73 414 64 433 64 c 0
 467 64 487 97 510 122 c 1
 570 64 l 1
 529 21 493 -36 433 -36 c 0xa0
 406 -36 379 -28 355 -15 c 1
 335 -91 l 1
 248 -68 l 1
 278 42 l 1
 263 54 246 63 227 63 c 0x60
 193 63 173 30 150 6 c 1
 90 64 l 1xa0
 131 106 167 163 227 163 c 0x60
 254 163 281 155 305 142 c 1
 325 218 l 1
EndSplineSet
EndChar

StartChar: uni22E9
Encoding: 233 8937 233
Width: 660
Flags: HW
HStem: -36 100<382.906 477.079> 63 100<182.921 277.094> 350 100<389.435 570>
LayerCount: 2
Fore
SplineSet
298 400 m 1x20
 220 436 150 488 90 552 c 1
 163 620 l 1
 257 519 383 450 520 450 c 2
 570 450 l 1
 570 350 l 1
 520 350 l 2
 383 350 257 280 163 179 c 1
 90 247 l 1
 150 311 220 364 298 400 c 1x20
325 218 m 1
 412 195 l 1
 382 85 l 1
 397 73 414 64 433 64 c 0
 467 64 487 97 510 122 c 1
 570 64 l 1
 529 21 493 -36 433 -36 c 0xa0
 406 -36 379 -28 355 -15 c 1
 335 -91 l 1
 248 -68 l 1
 278 42 l 1
 263 54 246 63 227 63 c 0x60
 193 63 173 30 150 6 c 1
 90 64 l 1xa0
 131 106 167 163 227 163 c 0x60
 254 163 281 155 305 142 c 1
 325 218 l 1
EndSplineSet
EndChar

StartChar: uni2AB9
Encoding: 234 10937 234
Width: 660
Flags: HW
HStem: -136 100<382.27 476.517> -36 100<182.921 254.664> 63 100<405.336 476.517> 163 100<182.921 277.755> 449 100<90 270.565>
LayerCount: 2
Fore
SplineSet
363 499 m 1x08
 440 463 510 411 570 347 c 1
 497 278 l 1
 403 379 277 449 140 449 c 2
 90 449 l 1
 90 549 l 1
 140 549 l 2
 277 549 403 619 497 720 c 1
 570 651 l 1
 510 587 440 535 363 499 c 1x08
300 123 m 1
 260 157 251 163 227 163 c 0
 193 163 173 130 150 105 c 1
 90 163 l 1
 131 206 167 263 227 263 c 0x58
 263 263 297 249 328 228 c 1
 352 318 l 1
 438 295 l 1
 405 170 l 1
 414 166 423 163 433 163 c 0x28
 467 163 487 197 510 221 c 1
 570 163 l 1x18
 529 120 493 63 433 63 c 0
 414 63 396 66 379 73 c 1
 361 4 l 1
 388 -20 407 -36 433 -36 c 0xa8
 467 -36 487 -2 510 22 c 1
 570 -36 l 1x48
 529 -79 493 -136 433 -136 c 0x88
 397 -136 363 -121 333 -101 c 1
 309 -190 l 1
 222 -167 l 1
 255 -43 l 1
 246 -39 237 -36 227 -36 c 0
 193 -36 173 -69 150 -94 c 1
 90 -36 l 1
 131 7 167 64 227 64 c 0x48
 246 64 264 60 281 54 c 1
 300 123 l 1
EndSplineSet
EndChar

StartChar: uni2ABA
Encoding: 235 10938 235
Width: 660
Flags: HW
HStem: -136 100<382.27 476.517> -36 100<182.921 254.664> 63 100<405.336 476.517> 163 100<182.921 277.755> 449 100<389.435 570>
LayerCount: 2
Fore
SplineSet
297 499 m 1x08
 220 535 150 587 90 651 c 1
 163 720 l 1
 257 619 383 549 520 549 c 2
 570 549 l 1
 570 449 l 1
 520 449 l 2
 383 449 257 379 163 278 c 1
 90 347 l 1
 150 411 220 463 297 499 c 1x08
300 123 m 1
 260 157 251 163 227 163 c 0
 193 163 173 130 150 105 c 1
 90 163 l 1
 131 206 167 263 227 263 c 0x58
 263 263 297 249 328 228 c 1
 352 318 l 1
 438 295 l 1
 405 170 l 1
 414 166 423 163 433 163 c 0x28
 467 163 487 197 510 221 c 1
 570 163 l 1x18
 529 120 493 63 433 63 c 0
 414 63 396 66 379 73 c 1
 361 4 l 1
 388 -20 407 -36 433 -36 c 0xa8
 467 -36 487 -2 510 22 c 1
 570 -36 l 1x48
 529 -79 493 -136 433 -136 c 0x88
 397 -136 363 -121 333 -101 c 1
 309 -190 l 1
 222 -167 l 1
 255 -43 l 1
 246 -39 237 -36 227 -36 c 0
 193 -36 173 -69 150 -94 c 1
 90 -36 l 1
 131 7 167 64 227 64 c 0x48
 246 64 264 60 281 54 c 1
 300 123 l 1
EndSplineSet
EndChar
